<?xml version="1.0" encoding="UTF-8" standalone="no"?>
<svg width="223px" height="223px" viewBox="0 0 223 223" version="1.1" xmlns="http://www.w3.org/2000/svg" xmlns:xlink="http://www.w3.org/1999/xlink">
    <!-- Generator: Sketch 47.1 (45422) - http://www.bohemiancoding.com/sketch -->
    <title>Group 6</title>
    <desc>Created with Sketch.</desc>
    <defs>
        <circle id="path-1" cx="111.5" cy="111.5" r="111.5"></circle>
    </defs>
    <g id="Welcome" stroke="none" stroke-width="1" fill="none" fill-rule="evenodd">
        <g id="Overview-Capt-Pick" transform="translate(-1138.000000, -570.000000)">
            <g id="Group-6" transform="translate(1138.000000, 570.000000)">
                <mask id="mask-2" fill="white">
                    <use xlink:href="#path-1"></use>
                </mask>
                <circle stroke="#FFFFFF" stroke-width="3" cx="111.5" cy="111.5" r="110" opacity="0.3"></circle>
                <path d="M111.999591,49 C109.763184,52.321291 108.456979,56.314806 108.456979,60.6115129 C108.456979,64.9090325 109.763184,68.9017348 111.999591,72.2222129 C114.236816,68.9017348 115.541386,64.9090325 115.541386,60.6115129 C115.541386,56.314806 114.236816,52.321291 111.999591,49 Z M140.129603,70.7387679 C137.073343,73.7771883 135.158992,77.5195338 134.377557,81.4398927 C138.321513,80.6644371 142.083189,78.7591248 145.138631,75.7215172 C148.195708,72.682284 150.110059,68.9407514 150.890676,65.0203925 C146.94672,65.7958481 143.185862,67.7003476 140.129603,70.7387679 L140.129603,70.7387679 Z M78.8605515,75.7215172 C81.9159935,78.7591248 85.6784868,80.6644371 89.6224428,81.4398927 C88.8418256,77.5195338 86.9258395,73.7771883 83.8695801,70.7387679 C80.8149555,67.7003476 77.0524622,65.7958481 73.1085062,65.0203925 C73.888306,68.9407514 75.8051095,72.682284 78.8605515,75.7215172 L78.8605515,75.7215172 Z M112.049453,78.2486571 L111.780528,78.2437801 C98.2223106,78.2437801 87.9966338,88.6124506 87.9966338,102.360937 C87.9966338,110.002507 92.7383725,116.011882 96.199245,120.399627 C97.788271,122.413048 99.4304281,124.494748 99.4304281,125.485608 L99.4304281,131.072303 C99.4304281,133.922143 101.774732,136.240381 104.654433,136.240381 L111.225513,136.240381 L111.225513,127.52504 C111.225513,126.530116 110.92144,125.563642 110.346808,124.72641 L104.587406,116.346775 C104.304586,115.935474 103.738127,115.829804 103.322888,116.111049 C102.909283,116.393107 102.803021,116.954784 103.085842,117.36771 L108.845244,125.747345 C109.212257,126.281385 109.406798,126.895897 109.406798,127.52504 L109.406798,133.837607 L104.654433,133.837607 C103.107094,133.837607 101.846663,132.597203 101.846663,131.072303 L101.846663,125.485608 C101.846663,123.664832 100.276437,121.672545 98.1021527,118.916995 C94.8578913,114.803992 90.4145037,109.171778 90.4145037,102.360937 C90.4145037,89.982097 99.5996299,80.6465544 111.780528,80.6465544 L112.049453,80.6522444 L112.318377,80.6465544 C124.499275,80.6465544 133.685219,89.982097 133.685219,102.360937 C133.685219,109.171778 129.241014,114.803992 125.996753,118.916995 C123.823286,121.672545 122.251425,123.664832 122.251425,125.485608 L122.251425,131.072303 C122.251425,132.597203 120.990994,133.837607 119.442838,133.837607 L114.692108,133.837607 L114.692108,127.52504 C114.692108,126.895897 114.886649,126.281385 115.253662,125.747345 L121.013881,117.36771 C121.296701,116.954784 121.190439,116.393107 120.776017,116.111049 C120.360778,115.829804 119.795137,115.935474 119.511499,116.346775 L113.752097,124.72641 C113.177465,125.563642 112.87421,126.530116 112.87421,127.52504 L112.87421,136.240381 L119.442838,136.240381 C122.323356,136.240381 124.668477,133.922143 124.668477,131.072303 L124.668477,125.485608 C124.668477,124.494748 126.310634,122.413048 127.898843,120.399627 C131.359716,116.011882 136.102272,110.002507 136.102272,102.360937 C136.102272,88.6124506 125.876595,78.2437801 112.318377,78.2437801 L112.049453,78.2486571 Z M117.938004,91.6524966 L117.938004,93.5700016 L116.41437,93.5700016 L116.41437,112.149235 L124.641503,112.149235 L124.641503,91.6524966 L117.938004,91.6524966 Z M121.541921,93.4919684 L122.298017,93.4919684 L122.298017,92.5466278 L121.541921,92.5466278 L121.541921,93.4919684 Z M120.169507,93.4919684 L120.926419,93.4919684 L120.926419,92.5466278 L120.169507,92.5466278 L120.169507,93.4919684 Z M118.797092,93.4919684 L119.554822,93.4919684 L119.554822,92.5466278 L118.797092,92.5466278 L118.797092,93.4919684 Z M122.911884,95.4875066 L123.670432,95.4875066 L123.670432,94.5413532 L122.911884,94.5413532 L122.911884,95.4875066 Z M121.541921,95.4875066 L122.298017,95.4875066 L122.298017,94.5413532 L121.541921,94.5413532 L121.541921,95.4875066 Z M120.169507,95.4875066 L120.926419,95.4875066 L120.926419,94.5413532 L120.169507,94.5413532 L120.169507,95.4875066 Z M117.425494,95.4875066 L118.181589,95.4875066 L118.181589,94.5413532 L117.425494,94.5413532 L117.425494,95.4875066 Z M122.911884,97.4814192 L123.670432,97.4814192 L123.670432,96.5352658 L122.911884,96.5352658 L122.911884,97.4814192 Z M121.541921,97.4814192 L122.298017,97.4814192 L122.298017,96.5352658 L121.541921,96.5352658 L121.541921,97.4814192 Z M120.169507,97.4814192 L120.926419,97.4814192 L120.926419,96.5352658 L120.169507,96.5352658 L120.169507,97.4814192 Z M118.797092,97.4814192 L119.554822,97.4814192 L119.554822,96.5352658 L118.797092,96.5352658 L118.797092,97.4814192 Z M117.425494,97.4814192 L118.181589,97.4814192 L118.181589,96.5352658 L117.425494,96.5352658 L117.425494,97.4814192 Z M122.911884,99.4777703 L123.670432,99.4777703 L123.670432,98.5316169 L122.911884,98.5316169 L122.911884,99.4777703 Z M121.541921,99.4777703 L122.298017,99.4777703 L122.298017,98.5316169 L121.541921,98.5316169 L121.541921,99.4777703 Z M120.169507,99.4777703 L120.926419,99.4777703 L120.926419,98.5316169 L120.169507,98.5316169 L120.169507,99.4777703 Z M118.797092,99.4777703 L119.554822,99.4777703 L119.554822,98.5316169 L118.797092,98.5316169 L118.797092,99.4777703 Z M117.425494,99.4777703 L118.181589,99.4777703 L118.181589,98.5316169 L117.425494,98.5316169 L117.425494,99.4777703 Z M122.911884,101.472496 L123.670432,101.472496 L123.670432,100.525529 L122.911884,100.525529 L122.911884,101.472496 Z M121.541921,101.472496 L122.298017,101.472496 L122.298017,100.525529 L121.541921,100.525529 L121.541921,101.472496 Z M117.425494,101.472496 L118.181589,101.472496 L118.181589,100.525529 L117.425494,100.525529 L117.425494,101.472496 Z M122.911884,103.466408 L123.670432,103.466408 L123.670432,102.521068 L122.911884,102.521068 L122.911884,103.466408 Z M121.541921,103.466408 L122.298017,103.466408 L122.298017,102.521068 L121.541921,102.521068 L121.541921,103.466408 Z M120.169507,103.466408 L120.926419,103.466408 L120.926419,102.521068 L120.169507,102.521068 L120.169507,103.466408 Z M118.797092,103.466408 L119.554822,103.466408 L119.554822,102.521068 L118.797092,102.521068 L118.797092,103.466408 Z M117.425494,103.466408 L118.181589,103.466408 L118.181589,102.521068 L117.425494,102.521068 L117.425494,103.466408 Z M120.169507,105.462759 L120.926419,105.462759 L120.926419,104.515793 L120.169507,104.515793 L120.169507,105.462759 Z M118.797092,105.462759 L119.554822,105.462759 L119.554822,104.515793 L118.797092,104.515793 L118.797092,105.462759 Z M117.425494,105.462759 L118.181589,105.462759 L118.181589,104.515793 L117.425494,104.515793 L117.425494,105.462759 Z M122.911884,107.457485 L123.670432,107.457485 L123.670432,106.510519 L122.911884,106.510519 L122.911884,107.457485 Z M121.541921,107.457485 L122.298017,107.457485 L122.298017,106.510519 L121.541921,106.510519 L121.541921,107.457485 Z M120.169507,107.457485 L120.926419,107.457485 L120.926419,106.510519 L120.169507,106.510519 L120.169507,107.457485 Z M117.425494,107.457485 L118.181589,107.457485 L118.181589,106.510519 L117.425494,106.510519 L117.425494,107.457485 Z M122.911884,109.451397 L123.670432,109.451397 L123.670432,108.505244 L122.911884,108.505244 L122.911884,109.451397 Z M120.169507,109.451397 L120.926419,109.451397 L120.926419,108.505244 L120.169507,108.505244 L120.169507,109.451397 Z M107.819407,112.149235 L114.904632,112.149235 L114.904632,99.7248757 L107.819407,99.7248757 L107.819407,112.149235 Z M113.031968,101.885422 L113.789698,101.885422 L113.789698,100.939268 L113.031968,100.939268 L113.031968,101.885422 Z M110.288773,101.885422 L111.045685,101.885422 L111.045685,100.939268 L110.288773,100.939268 L110.288773,101.885422 Z M108.916358,101.885422 L109.674088,101.885422 L109.674088,100.939268 L108.916358,100.939268 L108.916358,101.885422 Z M113.031968,103.776916 L113.789698,103.776916 L113.789698,102.831575 L113.031968,102.831575 L113.031968,103.776916 Z M111.66037,103.776916 L112.417283,103.776916 L112.417283,102.831575 L111.66037,102.831575 L111.66037,103.776916 Z M110.288773,103.776916 L111.045685,103.776916 L111.045685,102.831575 L110.288773,102.831575 L110.288773,103.776916 Z M113.031968,105.667597 L113.789698,105.667597 L113.789698,104.722256 L113.031968,104.722256 L113.031968,105.667597 Z M111.66037,105.667597 L112.417283,105.667597 L112.417283,104.722256 L111.66037,104.722256 L111.66037,105.667597 Z M110.288773,105.667597 L111.045685,105.667597 L111.045685,104.722256 L110.288773,104.722256 L110.288773,105.667597 Z M108.916358,105.667597 L109.674088,105.667597 L109.674088,104.722256 L108.916358,104.722256 L108.916358,105.667597 Z M113.031968,107.559903 L113.789698,107.559903 L113.789698,106.614563 L113.031968,106.614563 L113.031968,107.559903 Z M110.288773,107.559903 L111.045685,107.559903 L111.045685,106.614563 L110.288773,106.614563 L110.288773,107.559903 Z M108.916358,107.559903 L109.674088,107.559903 L109.674088,106.614563 L108.916358,106.614563 L108.916358,107.559903 Z M113.031968,109.451397 L113.789698,109.451397 L113.789698,108.506057 L113.031968,108.506057 L113.031968,109.451397 Z M111.66037,109.451397 L112.417283,109.451397 L112.417283,108.506057 L111.66037,108.506057 L111.66037,109.451397 Z M108.916358,109.451397 L109.674088,109.451397 L109.674088,108.506057 L108.916358,108.506057 L108.916358,109.451397 Z M143.647693,103.694005 C146.986773,105.917953 151.001843,107.216069 155.323438,107.216069 C159.645033,107.216069 163.660103,105.917953 167,103.694005 C163.660103,101.469244 159.645033,100.171128 155.323438,100.171128 C151.001843,100.171128 146.986773,101.469244 143.647693,103.694005 L143.647693,103.694005 Z M57,103.694005 C60.3390799,105.917953 64.3549672,107.216069 68.6765622,107.216069 C72.9973397,107.216069 77.013227,105.917953 80.3531243,103.694005 C77.013227,101.469244 72.9973397,100.171128 68.6765622,100.171128 C64.3549672,100.171128 60.3390799,101.469244 57,103.694005 L57,103.694005 Z M100.136662,107.432287 L100.136662,106.889305 L98.8181953,106.889305 L98.8181953,108.324792 L97.7155224,109.070172 L98.8181953,109.070172 L98.8181953,112.149235 L100.148923,112.149235 L100.148923,108.979134 L101.728958,108.979134 L101.728958,112.149235 L106.257355,112.149235 L106.257355,109.070172 L107.360845,109.070172 L102.537366,105.806593 L100.136662,107.432287 Z M103.467568,110.318705 L105.04842,110.318705 L105.04842,108.979134 L103.467568,108.979134 L103.467568,110.318705 Z M109.872716,120.31753 C109.872716,121.512414 110.847057,122.481327 112.049453,122.481327 C113.252666,122.481327 114.225372,121.512414 114.225372,120.31753 C114.225372,119.121833 113.252666,118.15292 112.049453,118.15292 C110.847057,118.15292 109.872716,119.121833 109.872716,120.31753 L109.872716,120.31753 Z M140.129603,136.64843 C143.185862,139.68685 146.94672,141.592163 150.890676,142.367618 C150.110059,138.447259 148.195708,134.704914 145.138631,131.666493 C142.083189,128.628073 138.321513,126.722761 134.377557,125.947305 C135.158992,129.868477 137.073343,133.610009 140.129603,136.64843 L140.129603,136.64843 Z M78.8605515,131.666493 C75.8051095,134.704914 73.888306,138.447259 73.1085062,142.367618 C77.0524622,141.592163 80.8149555,139.68685 83.8695801,136.64843 C86.9258395,133.610009 88.8418256,129.868477 89.6224428,125.947305 C85.6784868,126.722761 81.9159935,128.628073 78.8605515,131.666493 L78.8605515,131.666493 Z M103.523968,138.439131 C102.401678,138.439131 101.491094,139.344642 101.491094,140.46068 C101.491094,141.577531 102.401678,142.482229 103.523968,142.482229 L120.575754,142.482229 C121.698045,142.482229 122.606994,141.577531 122.606994,140.46068 C122.606994,139.344642 121.698045,138.439131 120.575754,138.439131 L103.523968,138.439131 Z M103.523968,144.376162 C102.401678,144.376162 101.491094,145.28086 101.491094,146.397711 C101.491094,147.51375 102.401678,148.418448 103.523968,148.418448 L120.575754,148.418448 C121.698045,148.418448 122.606994,147.51375 122.606994,146.397711 C122.606994,145.28086 121.698045,144.376162 120.575754,144.376162 L103.523968,144.376162 Z M105.286283,150.459505 C105.819228,152.606233 108.353169,154.234365 111.402072,154.234365 L112.696834,154.234365 C115.746554,154.234365 118.279677,152.606233 118.81344,150.459505 L105.286283,150.459505 Z M118.454601,165.093995 C118.454601,165.588205 118.815074,165.946671 119.287532,165.946671 C119.760806,165.946671 120.120462,165.588205 120.120462,165.093995 C120.120462,164.587591 119.760806,164.228313 119.287532,164.228313 C118.815074,164.228313 118.454601,164.587591 118.454601,165.093995 L118.454601,165.093995 Z M109.867812,165.093995 C109.867812,165.588205 110.229102,165.946671 110.70156,165.946671 C111.174017,165.946671 111.533673,165.588205 111.533673,165.093995 C111.533673,164.587591 111.174017,164.228313 110.70156,164.228313 C110.229102,164.228313 109.867812,164.587591 109.867812,165.093995 L109.867812,165.093995 Z M146.884598,173.547599 L148.313414,173.547599 L148.313414,164.377064 L146.884598,164.377064 L146.884598,173.547599 Z M59.9810586,167.243974 C59.9810586,170.321411 64.6778403,169.246015 64.6778403,171.1749 C64.6778403,171.843059 64.0705119,172.225097 63.0512138,172.225097 C62.1177428,172.225097 60.9987219,171.78047 60.104486,170.965185 L59.4718183,172.225097 C60.3660541,173.041195 61.6591813,173.597995 63.025057,173.597995 C64.9394084,173.597995 66.3061015,172.645339 66.3061015,171.100118 C66.3199973,167.986103 61.6215809,168.998909 61.6215809,167.109041 C61.6215809,166.527856 62.1798652,166.205969 63.037318,166.205969 C63.69696,166.205969 64.6402399,166.441694 65.5859719,167.009061 L66.1941177,165.723951 C65.3873437,165.192349 64.2814012,164.833884 63.1501193,164.833884 C61.26029,164.833884 59.9810586,165.761342 59.9810586,167.243974 L59.9810586,167.243974 Z M100.698216,169.209437 C100.698216,171.694309 102.67469,173.609375 105.222526,173.609375 C106.452713,173.609375 107.70824,173.053388 108.59185,172.188519 L107.720501,171.224483 C107.062494,171.854439 106.168258,172.250296 105.296909,172.250296 C103.556664,172.250296 102.189971,170.902596 102.189971,169.197244 C102.189971,167.491079 103.556664,166.157198 105.296909,166.157198 C106.179702,166.157198 107.087833,166.57744 107.720501,167.256979 L108.577954,166.194589 C107.73358,165.366298 106.502575,164.859082 105.272387,164.859082 C102.700029,164.859082 100.698216,166.750576 100.698216,169.209437 L100.698216,169.209437 Z M138.547116,164.896473 L138.547116,173.547599 L140.013532,173.547599 L140.013532,170.939987 L142.014527,170.939987 C144.20189,170.939987 145.457417,169.802815 145.457417,167.850357 C145.457417,165.971056 144.20189,164.896473 142.014527,164.896473 L138.547116,164.896473 Z M140.013532,166.205969 L141.951588,166.205969 C143.295394,166.205969 144.053124,166.750576 144.053124,167.886935 C144.053124,169.061499 143.295394,169.629678 141.951588,169.629678 L140.013532,169.629678 L140.013532,166.205969 Z M113.783159,165.415069 L113.783159,167.219588 L112.850505,167.219588 L112.850505,168.282792 L113.783159,168.282792 L113.783159,171.694309 C113.783159,173.041195 114.640611,173.609375 115.636205,173.609375 C116.194489,173.609375 116.740513,173.436239 117.262831,173.127357 L116.903175,172.040581 C116.51818,172.225097 116.20675,172.324265 115.909217,172.324265 C115.460464,172.324265 115.200531,172.113737 115.200531,171.433385 L115.200531,168.282792 L117.151665,168.282792 L117.151665,167.219588 L115.200531,167.219588 L115.200531,165.415069 L113.783159,165.415069 Z M93.331805,165.415069 L93.331805,167.219588 L92.398334,167.219588 L92.398334,168.282792 L93.331805,168.282792 L93.331805,171.694309 C93.331805,173.041195 94.1876231,173.609375 95.1823991,173.609375 C95.7423183,173.609375 96.2883416,173.436239 96.8106604,173.127357 L96.4493695,172.040581 C96.0651914,172.225097 95.7537619,172.324265 95.4554108,172.324265 C95.0082929,172.324265 94.7475422,172.113737 94.7475422,171.433385 L94.7475422,168.282792 L96.699494,168.282792 L96.699494,167.219588 L94.7475422,167.219588 L94.7475422,165.415069 L93.331805,165.415069 Z M128.954924,168.81358 C128.941846,171.187092 132.421518,170.433584 132.421518,171.78047 C132.421518,172.274681 131.949879,172.485208 131.341733,172.485208 C130.620786,172.485208 129.70121,172.175514 129.12903,171.66911 L128.618973,172.68273 C129.27698,173.276108 130.309356,173.597995 131.277976,173.597995 C132.607886,173.597995 133.813551,172.991612 133.813551,171.644725 C133.827447,169.259833 130.309356,169.914175 130.309356,168.703033 C130.309356,168.233208 130.718874,168.047879 131.277976,168.047879 C131.862417,168.047879 132.596442,168.269786 133.180883,168.629064 L133.701567,167.578054 C133.1065,167.158625 132.223708,166.910707 131.389959,166.910707 C130.122172,166.910707 128.954924,167.478886 128.954924,168.81358 L128.954924,168.81358 Z M159.198732,168.233208 L159.198732,166.972483 L157.769099,166.972483 L157.769099,173.547599 L159.198732,173.547599 L159.198732,170.050733 C159.298455,169.02492 159.981802,168.269786 161.076301,168.258406 C162.069442,168.258406 162.666961,168.863977 162.666961,169.852398 L162.666961,173.547599 L164.09496,173.547599 L164.09496,169.457355 C164.09496,167.886935 163.175384,166.923712 161.634585,166.923712 C160.515564,166.923712 159.67119,167.318756 159.198732,168.233208 L159.198732,168.233208 Z M150.325853,167.752003 L150.910294,168.740424 C151.569936,168.294984 152.227943,168.072264 152.862246,168.072264 C153.905248,168.072264 154.439828,168.566475 154.439828,169.394766 L154.439828,169.592287 L152.438832,169.592287 C150.848989,169.605293 149.94004,170.371807 149.94004,171.569943 C149.94004,172.732314 150.835911,173.609375 152.264726,173.609375 C153.221084,173.609375 153.979632,173.324879 154.452089,172.743693 L154.452089,173.547599 L155.8572,173.547599 L155.844939,169.233822 C155.831861,167.788581 154.87632,166.923712 153.172858,166.923712 C151.917331,166.923712 151.246246,167.207396 150.325853,167.752003 L150.325853,167.752003 Z M151.283029,171.508167 C151.283029,170.878211 151.718703,170.631105 152.650539,170.631105 L154.439828,170.631105 L154.439828,171.235863 C154.366262,171.952794 153.583193,172.485208 152.563077,172.485208 C151.768564,172.485208 151.283029,172.101545 151.283029,171.508167 L151.283029,171.508167 Z M121.486338,170.27264 C121.486338,172.250296 122.829327,173.597995 124.867923,173.597995 C126.010648,173.597995 126.954746,173.18832 127.601309,172.485208 L126.844397,171.681303 C126.358861,172.175514 125.700036,172.447817 124.979089,172.447817 C123.934452,172.447817 123.1522,171.817048 122.92905,170.803429 L127.924182,170.803429 C128.099106,168.431543 127.155009,166.923712 124.83114,166.923712 C122.86611,166.935092 121.486338,168.282792 121.486338,170.27264 L121.486338,170.27264 Z M124.841766,168.060072 C125.924004,168.060072 126.631873,168.703033 126.681734,169.765424 L122.90371,169.765424 C123.066373,168.715226 123.798763,168.060072 124.841766,168.060072 L124.841766,168.060072 Z M89.6028252,168.282792 L89.6028252,166.972483 L88.1731922,166.972483 L88.1731922,173.547599 L89.6028252,173.547599 L89.6028252,170.111696 C89.7156265,168.98753 90.5600009,168.20801 91.8899111,168.282792 L91.8899111,166.923712 C90.846091,166.923712 90.0499432,167.392725 89.6028252,168.282792 L89.6028252,168.282792 Z M80.7315806,167.752003 L81.3152044,168.740424 C81.974029,168.294984 82.6336709,168.072264 83.2671561,168.072264 C84.3109762,168.072264 84.8455559,168.566475 84.8455559,169.394766 L84.8455559,169.592287 L82.8445602,169.592287 C81.253082,169.605293 80.3457677,170.371807 80.3457677,171.569943 C80.3457677,172.732314 81.2416384,173.609375 82.6712714,173.609375 C83.628447,173.609375 84.3853596,173.324879 84.8569995,172.743693 L84.8569995,173.547599 L86.2612931,173.547599 L86.2506669,169.233822 C86.2375885,167.788581 85.2804129,166.923712 83.5769508,166.923712 C82.3222415,166.923712 81.6519733,167.207396 80.7315806,167.752003 L80.7315806,167.752003 Z M81.6879389,171.508167 C81.6879389,170.878211 82.1244306,170.631105 83.0554495,170.631105 L84.8455559,170.631105 L84.8455559,171.235863 C84.7703551,171.952794 83.9872857,172.485208 82.9679876,172.485208 C82.1726572,172.485208 81.6879389,172.101545 81.6879389,171.508167 L81.6879389,171.508167 Z M74.0493338,168.505512 C73.7370869,167.504897 72.9303129,166.923712 71.7483522,166.923712 C70.6546707,166.923712 69.8094789,167.318756 69.3500999,168.245401 L69.3500999,166.972483 L67.932728,166.972483 L67.932728,173.547599 L69.3500999,173.547599 L69.3500999,170.297838 C69.3500999,169.14766 70.0457075,168.282792 71.1892504,168.245401 C72.1578697,168.245401 72.7423109,168.850971 72.7423109,169.852398 L72.7423109,173.547599 L74.1719439,173.547599 L74.1719439,170.297838 C74.1719439,169.14766 74.8552904,168.282792 75.9865723,168.245401 C76.956009,168.245401 77.5518938,168.850971 77.5518938,169.852398 L77.5518938,173.547599 L78.9815268,173.547599 L78.9815268,169.457355 C78.9815268,167.886935 78.0750299,166.923712 76.5579351,166.923712 C75.3522698,166.923712 74.4694775,167.404917 74.0493338,168.505512 L74.0493338,168.505512 Z M118.578846,173.547599 L119.996218,173.547599 L119.996218,166.972483 L118.578846,166.972483 L118.578846,173.547599 Z M109.992874,173.547599 L111.410246,173.547599 L111.410246,166.972483 L109.992874,166.972483 L109.992874,173.547599 Z" id="Fill-4" fill="#FFFFFF" mask="url(#mask-2)"></path>
            </g>
        </g>
    </g>
</svg>
