<svg version="1" xmlns="http://www.w3.org/2000/svg" width="682.667" height="682.667" viewBox="0 0 512.000000 512.000000"><path d="M417 17.5V29h13V6h-13v11.5zM371 27.5l-4.5 4.5 8.1 8.1 8.1 8 4.5-4.6 4.6-4.6-8-8c-4.3-4.3-8-7.9-8.2-7.9-.1 0-2.2 2-4.6 4.5zM461.8 32.1c-4.3 4.4-7.8 8.3-7.8 8.7 0 .4 1.9 2.6 4.3 4.9l4.3 4.2 8.2-8.2 8.2-8.3-4.7-4.5-4.8-4.6-7.7 7.8zM51.7 28.6c-4.3 2.8-10.3 10.7-11.2 14.6l-.6 2.6-5.2-2.3c-6.1-2.8-11.6-3.5-17.1-2.3-2.2.5-4.2 1-4.3 1.2-.1.1.8 3.1 2.1 6.7l2.3 6.4 4.4.1c5.5 0 10.4 2.6 12.4 6.4.9 1.7 1.7 3 1.8 3 .2 0 4.1-1.5 8.7-3.3l8.5-3.3-.3-4.2c-.3-2.9.3-5.4 1.9-8.2 1.3-2.2 2.5-4 2.8-4 .3 0 1.4-.7 2.4-1.4 1.8-1.4 1.8-1.7-.4-8-1.3-3.6-2.8-6.6-3.3-6.5-.6 0-2.8 1.1-4.9 2.5zM409.7 41.4c-10.6 4.4-17.1 10.5-21.9 20.5-6.6 13.8-3.7 31.4 6.9 42.7 8.5 9 18.2 12.9 30.7 12.2 21.9-1.1 38.1-18.7 37.2-40.1-.6-12.9-6.3-23.3-16.9-30.8-10.1-7.2-24.9-9-36-4.5zm21.2 13.2c3.9 1.1 6.7 2.9 10.2 6.4 18.6 18.6-1.6 49.4-26.3 40.1-9.9-3.8-16-12.6-16-23.1 0-10.5 6.5-19.7 16.4-23.1 6.6-2.3 9-2.3 15.7-.3zM68.3 66.2c-.6.7-2.1 3.8-3.5 6.8l-2.5 5.6 2.4 1.7c4.5 3.5 6.7 10.7 4.8 16.6-.5 1.7.5 2.6 7.6 6.1l8.2 4.2 2.5-2.7c3.6-3.9 8.7-5.8 13.7-5.1l4.1.7 2.8-6.2c2.7-5.8 2.7-6.3 1.1-7.5-3.2-2.3-12.2-2.8-18.7-1-3.4.9-6.1 1.5-6.2 1.4-.1-.2-.9-2.3-1.7-4.8-2.5-7.9-12.4-18.6-14.6-15.8zM351.9 72.1c-.6.3-.9 3.2-.7 6.5l.3 5.9 10.8.1c12.8.1 12.3.6 11.8-10.6l-.1-2.5h-10.6c-5.8 0-11 .2-11.5.6zM472.8 72.8c-.2.8-.1 3.8 0 6.7l.4 5.2 11.1-.1 11.2-.1.1-6.3c.1-3.4-.2-6.3-.5-6.3-.3-.1-5.4-.2-11.3-.3-8.5-.1-10.8.1-11 1.2zM372.6 117.9l-7.8 7.8 4.7 4.6 4.6 4.6 8.1-8 8.1-8-4.4-4.5c-2.4-2.4-4.6-4.4-4.9-4.4-.3 0-4.1 3.5-8.4 7.9zM144.4 133.7l.1 22.8 5.5.1c3 .1 6-.2 6.5-.5.7-.4 1-8.8 1-22.9l.1-22.2h-13.2v22.7zM459.7 115.8l-4.7 4.8 7.8 7.7c4.2 4.2 8 7.7 8.4 7.7 1 0 8.8-7.7 8.8-8.7 0-.4-3.5-4.3-7.8-8.5l-7.8-7.7-4.7 4.7zM197.9 115.2c0 .7-.1 79.9-.1 176l-.1 174.8h-9.5l.2-121.5.1-121.5H183c-10.2-.1-57.5-.1-62.7-.1l-5.3.1v243h-8V307l-34.7.2-34.8.3v158L27 466l-10.5.5-.2 7.2-.1 7.3H499v-15h-5.5c-5.3 0-5.5-.1-5.6-2.8 0-1.5-.1-58.4-.1-126.5l-.1-123.7H415.4v252.5h-5.9V311.3c0-102.2-.3-154.3-1-154.3-.8 0-47.6 35.2-51.1 38.5-.6.5-4.6 3.5-8.7 6.5l-7.6 5.5-.1 129.2V466h-8v-55.7c.1-30.7.1-77.5 0-104.1V258h-55V114h-40c-31.3 0-40 .3-40.1 1.2zm64.8 14.1c.4.4.5 13.3.4 34.9l-.1 8.7-13.7.3-13.6.3-.1 6.7c-.1 3.7.4 6.9.9 7.1.6.2 6.7.3 13.8.2l12.7-.1.1 4.8v37.6c-.1 1.6-1.3 1.8-13.6 1.7-8.6 0-13.5.3-13.6 1 0 .5-.2 3.8-.3 7.2l-.1 6.3 5 .1c2.7 0 8.7.1 13.2.1 4.6 0 8.5.4 8.9.9.3.6.6 6.6.6 13.3v12.3l26.6.1c14.7 0 27.2.1 27.7.1.7.1 1 31.5 1 96.3v96.3l-10.7.3-10.8.3V439c0-25-.1-27-1.7-27.1-2.3-.1-63.3-.1-65.4 0-1.4.1-1.6 2.9-1.7 24.8 0 13.7-.1 25.8-.1 27.1-.1 2.2-.4 2.3-7.8 2l-7.8-.3V215h13.2c14.7 0 13.5.6 13.5-6.5 0-1.4 0-3.8-.1-5.4l-.1-2.9h-12.5c-6.8 0-12.8-.3-13.2-.5-.5-.3-.8-10.1-.8-21.9v-21.3l13-.1 13-.2.5-3.8c.3-2.2.3-5.5 0-7.5l-.5-3.5-11.5.1c-6.3.1-12.2 0-13-.3-1.2-.2-1.6-1.8-1.6-6.2v-5.9l4.6-.3c6.5-.4 45.2 0 45.7.5zM395 326v140h-19.5c-14.9 0-19.5-.3-19.6-1.3 0-.6-.1-56.8-.2-124.6-.2-108.5 0-123.7 1.3-125.3 1.7-2.1 36.1-28.6 37.3-28.7.4-.1.7 62.9.7 139.9zm77.3-98.1c.4.1.7 11.3.7 24.9v24.8h-21.2l-21.3-.1-.3-24.7c-.2-22.5-.1-24.7 1.5-25 1.4-.3 38.5-.2 40.6.1zM173.5 351.5v114l-22 .3-22 .2V352.3c-.1-62.6.3-114 .7-114.3.4-.3 10.3-.6 22-.5h21.3v114zM473 314.1c0 16.5-.3 21.8-1.2 22.1-1.1.3-34.5.2-40-.1-1.7-.1-1.8-1.8-1.8-22v-21.8h43v21.8zm-381.5 8.1c.6.4.9 26.1.8 71-.1 38.6-.2 70.9-.2 71.5-.1 1-4.8 1.3-20 1.3H52.3v-72c0-63.6.2-71.9 1.5-72.2 2.9-.6 36.8-.2 37.7.4zM473 373v22h-43v-44h43v22zm0 64.7V466h-43v-55.9l4.8-.3c2.6-.2 12.2-.3 21.4-.3H473v28.2zm-191.5-10.5c.8.5 1.2 27.7.6 37.5-.1 1-4.7 1.3-19.6 1.3H243v-39.5h18.8c10.3 0 19.2.3 19.7.7z"/><path d="M229.8 282.2c-.5 1.5-.1 10.9.5 11.5.4.3 46.5.6 64.9.3h3.7l-.1-6.5-.1-6.5h-34.2c-26.5 0-34.4.3-34.7 1.2zM229.9 319.2c-.2 5.7-.1 9.9.3 10.3.4.4 25.7.7 53.4.6l15.1-.1.2-6.5.2-6.5H230l-.1 2.2zM229.9 354.7c-.4 7.6-.3 10.6.5 11 .7.4 41.2.7 63.8.4l4.6-.1v-6.5l-.1-6.5h-34.3c-32.1 0-34.4.1-34.5 1.7zM232.3 385.8c-2.2.3-2.5 1.1-2.5 6.2 0 1.1 0 3.1.1 4.5l.1 2.5h68.9v-13l-22.7-.1c-12.5 0-27-.1-32.2-.2-5.2-.1-10.5-.1-11.7.1zM368.7 229.2c-.8.5-1.1 29-1.2 104 0 56.8.1 103.7.2 104.3.3.9 3.6 1 11.6.6 1.6-.1 1.7-5.8 1.7-104.6 0-57.5-.3-104.5-.7-104.6-4.6-.4-10.7-.3-11.6.3zM141 251.5v6.5H160.7l.2-6.5.2-6.5H141v6.5zM141 287.4v6.4l7.3.4c3.9.2 8.4.2 10 0 2.6-.3 2.7-.5 2.7-6.8V281h-20v6.4zM141 323.5v6.6l9.8-.3 9.7-.3.3-6.3.3-6.2H141v6.5zM141 359.5c0 4.5.4 6.5 1.3 6.6 1.5.1 12.2.1 15.8 0 2.6-.1 2.7-.3 2.8-6.6l.1-6.5h-20v6.5zM145.8 385.8l-4.8.3V399H160.7l.2-6.5c.2-5.7 0-6.5-1.6-6.6-1 0-3.4-.1-5.3-.2s-5.6-.1-8.2.1zM141 428.5v6.5h19.6l.2-6.5.1-6.5H141v6.5zM65.5 333.2l.1 6.3 8.2.3 8.2.3V327H65.3l.2 6.2zM65.7 353.7c-.2.5-.3 3.5-.2 6.7l.1 5.9 3.7-.1c2 0 5.7-.1 8.2-.1l4.5-.1v-13h-7.9c-4.4 0-8.2.3-8.4.7zM65.6 381.7c.1 3.2.2 6.1.3 6.5 0 .5 3.7.8 8.1.8h8v-13H65.4l.2 5.7zM65.8 399.7c-.2.5-.4 3.3-.3 6.3v5.5l8.3.3 8.2.3V399h-7.9c-4.4 0-8.1.3-8.3.7zM65.7 422.7c-.3.7-.2 9.5.2 11.5 0 .5 3.7.8 8.1.8h8v-13h-7.9c-4.4 0-8.2.3-8.4.7zM65.5 451.2l.1 6.3 8.2.3 8.2.3V445H65.3l.2 6.2zM417 141.7c0 6.8.4 11.3 1 11.4.6 0 3 .1 5.5.1s5-.1 5.5-.1c.7-.1 1-4.1.8-11.3l-.3-11.3h-6.2l-6.3-.1v11.3zM124.9 173.2c0 .2-.1 3.1-.2 6.6l-.2 6.2h59.3l.1-6.5V173h-29.4c-16.2 0-29.5.1-29.6.2zM124.9 200.7c-.4 7.3-.4 9 .2 10.3.6 1.3 4.8 1.5 29.6 1.4l28.8-.1.2-6.6.2-6.7h-29.4c-27.4 0-29.5.1-29.6 1.7zM16.4 500.2l.1 6.3 241.3.3 241.2.2v-13H16.2l.2 6.2z"/></svg>