<?xml version="1.0" encoding="utf-8"?>
<!-- Generator: Adobe Illustrator 21.0.2, SVG Export Plug-In . SVG Version: 6.00 Build 0)  -->
<svg version="1.1" id="Layer_1" xmlns="http://www.w3.org/2000/svg" xmlns:xlink="http://www.w3.org/1999/xlink" x="0px" y="0px"
	 viewBox="0 0 287 152" style="enable-background:new 0 0 287 152;" xml:space="preserve">
<style type="text/css">
	.st0{clip-path:url(#SVGID_2_);fill:#FFFFFF;}
	.st1{clip-path:url(#SVGID_2_);}
	.st2{clip-path:url(#SVGID_4_);fill-rule:evenodd;clip-rule:evenodd;fill:#FFFFFF;}
	.st3{clip-path:url(#SVGID_4_);fill:#FFFFFF;}
</style>
<g>
	<g>
		<defs>
			<rect id="SVGID_1_" x="38.3" y="14" width="210.4" height="123.9"/>
		</defs>
		<clipPath id="SVGID_2_">
			<use xlink:href="#SVGID_1_"  style="overflow:visible;"/>
		</clipPath>
		<rect x="45.8" y="109.5" class="st0" width="195.9" height="0.8"/>
		<g class="st1">
			<defs>
				<rect id="SVGID_3_" x="38.3" y="14" width="210.4" height="123.9"/>
			</defs>
			<clipPath id="SVGID_4_">
				<use xlink:href="#SVGID_3_"  style="overflow:visible;"/>
			</clipPath>
			<path class="st2" d="M71.1,98.6h-3.9l-0.5,1.1c-0.2,0.4-0.2,0.7-0.2,0.9c0,0.3,0.1,0.5,0.4,0.7c0.1,0.1,0.5,0.2,1.1,0.2v0.3h-3.7
				v-0.3c0.4-0.1,0.7-0.2,1-0.5c0.3-0.3,0.6-0.8,1-1.7l4-8.9h0.2l4,9.1c0.4,0.9,0.7,1.4,0.9,1.6c0.2,0.2,0.4,0.3,0.8,0.3v0.3h-5.4
				v-0.3h0.2c0.4,0,0.7-0.1,0.9-0.2c0.1-0.1,0.2-0.2,0.2-0.4c0-0.1,0-0.2,0-0.3c0,0-0.1-0.3-0.2-0.6L71.1,98.6z M70.9,98l-1.7-3.8
				L67.5,98H70.9z"/>
			<path class="st3" d="M83,94.1v6c0,0.6,0.1,1,0.2,1.1c0.1,0.1,0.3,0.2,0.7,0.3v0.3h-3.1v-1c-0.4,0.4-0.7,0.8-1.1,1
				c-0.4,0.2-0.8,0.3-1.2,0.3c-0.4,0-0.8-0.1-1.2-0.4c-0.3-0.3-0.6-0.6-0.7-0.9c-0.1-0.4-0.2-1-0.2-1.9v-3.1c0-0.6-0.1-0.9-0.2-1.1
				c-0.1-0.1-0.3-0.2-0.7-0.3v-0.3h3.1v5.3c0,0.5,0,0.9,0.1,1.1c0.1,0.2,0.1,0.3,0.2,0.4c0.1,0.1,0.2,0.1,0.4,0.1
				c0.2,0,0.4-0.1,0.5-0.2c0.2-0.1,0.5-0.4,0.8-0.9v-4.1c0-0.6-0.1-0.9-0.2-1.1c-0.1-0.1-0.3-0.2-0.7-0.3v-0.3H83z"/>
			<path class="st3" d="M89.2,93.9l0.1,2.6H89c-0.3-0.8-0.7-1.3-1-1.6c-0.4-0.3-0.7-0.4-1.1-0.4c-0.2,0-0.4,0.1-0.6,0.2
				c-0.2,0.1-0.2,0.3-0.2,0.5c0,0.1,0.1,0.3,0.2,0.4c0.2,0.2,0.7,0.6,1.5,1.2c0.8,0.5,1.3,1,1.6,1.4c0.3,0.4,0.4,0.8,0.4,1.3
				c0,0.4-0.1,0.8-0.3,1.3c-0.2,0.4-0.5,0.7-0.9,0.9c-0.4,0.2-0.8,0.3-1.3,0.3c-0.4,0-0.9-0.1-1.5-0.3c-0.2-0.1-0.3-0.1-0.3-0.1
				c-0.2,0-0.3,0.1-0.5,0.4h-0.3l-0.1-2.8h0.3c0.2,0.7,0.6,1.3,1,1.6c0.4,0.4,0.8,0.5,1.2,0.5c0.3,0,0.5-0.1,0.6-0.2
				c0.2-0.2,0.3-0.4,0.3-0.6c0-0.3-0.1-0.5-0.2-0.7c-0.2-0.2-0.5-0.5-1.1-0.9c-0.8-0.6-1.4-1-1.6-1.3c-0.4-0.4-0.5-0.9-0.5-1.5
				c0-0.6,0.2-1.1,0.6-1.6c0.4-0.5,1-0.7,1.8-0.7c0.4,0,0.8,0.1,1.2,0.3c0.1,0.1,0.3,0.1,0.4,0.1c0.1,0,0.2,0,0.2-0.1
				c0.1,0,0.2-0.2,0.3-0.4H89.2z"/>
			<path class="st3" d="M93.2,91.3v2.8h1.8v0.8h-1.8v4.7c0,0.4,0,0.7,0.1,0.9c0,0.1,0.1,0.2,0.2,0.3c0.1,0.1,0.2,0.1,0.3,0.1
				c0.4,0,0.7-0.3,1-0.8l0.2,0.2c-0.4,1.1-1.2,1.6-2.2,1.6c-0.5,0-0.9-0.1-1.2-0.4c-0.3-0.3-0.5-0.6-0.6-0.9
				c-0.1-0.2-0.1-0.7-0.1-1.5v-4.2h-1v-0.3c0.7-0.5,1.3-1,1.8-1.5c0.5-0.5,0.9-1.1,1.3-1.8H93.2z"/>
			<path class="st3" d="M98.8,94.1v1.7c0.5-0.8,1-1.3,1.3-1.6c0.4-0.3,0.8-0.4,1.1-0.4c0.3,0,0.6,0.1,0.7,0.3
				c0.2,0.2,0.3,0.5,0.3,0.8c0,0.4-0.1,0.7-0.3,0.9c-0.2,0.2-0.4,0.3-0.6,0.3c-0.3,0-0.5-0.1-0.8-0.3c-0.2-0.2-0.3-0.3-0.4-0.3
				c-0.1,0-0.1,0-0.2,0c-0.2,0-0.3,0.1-0.5,0.2c-0.2,0.2-0.4,0.5-0.5,0.8c-0.2,0.5-0.3,1.1-0.3,1.8v1.8l0,0.5c0,0.3,0,0.5,0.1,0.6
				c0.1,0.1,0.2,0.3,0.3,0.3c0.1,0.1,0.4,0.1,0.7,0.1v0.3h-4.2v-0.3c0.3,0,0.6-0.1,0.7-0.3c0.1-0.2,0.2-0.6,0.2-1.2v-4.3
				c0-0.4,0-0.7-0.1-0.8c-0.1-0.2-0.1-0.3-0.2-0.3c-0.1-0.1-0.3-0.1-0.6-0.1v-0.3H98.8z"/>
			<path class="st2" d="M106.5,100.6c-0.9,0.8-1.8,1.2-2.5,1.2c-0.4,0-0.8-0.1-1.1-0.4c-0.3-0.3-0.4-0.7-0.4-1.1
				c0-0.6,0.3-1.1,0.8-1.6c0.5-0.5,1.6-1.1,3.3-1.9v-0.8c0-0.6,0-0.9-0.1-1.1c-0.1-0.2-0.2-0.3-0.4-0.4c-0.2-0.1-0.4-0.2-0.6-0.2
				c-0.4,0-0.6,0.1-0.9,0.2c-0.1,0.1-0.2,0.2-0.2,0.3c0,0.1,0.1,0.3,0.2,0.4c0.2,0.2,0.3,0.5,0.3,0.7c0,0.3-0.1,0.5-0.3,0.7
				c-0.2,0.2-0.5,0.3-0.8,0.3c-0.3,0-0.6-0.1-0.9-0.3c-0.2-0.2-0.3-0.5-0.3-0.7c0-0.4,0.2-0.8,0.5-1.1c0.3-0.4,0.7-0.6,1.3-0.8
				c0.6-0.2,1.1-0.3,1.7-0.3c0.7,0,1.3,0.2,1.7,0.5c0.4,0.3,0.7,0.6,0.8,1c0.1,0.2,0.1,0.8,0.1,1.6v3c0,0.4,0,0.6,0,0.7
				c0,0.1,0.1,0.2,0.1,0.2c0.1,0,0.1,0.1,0.2,0.1c0.1,0,0.3-0.1,0.4-0.3l0.2,0.2c-0.3,0.4-0.6,0.7-0.9,0.9c-0.3,0.2-0.6,0.3-1,0.3
				c-0.4,0-0.8-0.1-1-0.3C106.7,101.4,106.6,101.1,106.5,100.6 M106.5,100v-2.6c-0.7,0.4-1.2,0.8-1.5,1.3c-0.2,0.3-0.3,0.6-0.3,0.9
				c0,0.3,0.1,0.5,0.3,0.7c0.1,0.1,0.3,0.2,0.6,0.2C105.8,100.5,106.2,100.4,106.5,100"/>
			<path class="st3" d="M113.2,90.6v9.6c0,0.5,0.1,0.9,0.2,1c0.1,0.1,0.4,0.2,0.7,0.3v0.3H110v-0.3c0.3,0,0.6-0.1,0.8-0.3
				c0.1-0.1,0.2-0.5,0.2-1v-8c0-0.5-0.1-0.9-0.2-1c-0.1-0.2-0.4-0.2-0.7-0.3v-0.3H113.2z"/>
			<path class="st2" d="M116.7,90.4c0.4,0,0.7,0.1,0.9,0.4c0.2,0.2,0.4,0.5,0.4,0.9c0,0.4-0.1,0.6-0.4,0.9c-0.2,0.2-0.5,0.4-0.9,0.4
				c-0.4,0-0.6-0.1-0.9-0.4c-0.2-0.2-0.4-0.5-0.4-0.9c0-0.4,0.1-0.6,0.4-0.9C116.1,90.5,116.4,90.4,116.7,90.4 M117.9,94.1v6.1
				c0,0.5,0.1,0.9,0.2,1c0.1,0.1,0.4,0.2,0.7,0.3v0.3h-4.2v-0.3c0.3,0,0.6-0.1,0.8-0.3c0.1-0.1,0.2-0.5,0.2-1v-4.5
				c0-0.5-0.1-0.9-0.2-1c-0.1-0.2-0.4-0.2-0.7-0.3v-0.3H117.9z"/>
			<path class="st2" d="M123.3,100.6c-0.9,0.8-1.8,1.2-2.5,1.2c-0.4,0-0.8-0.1-1.1-0.4c-0.3-0.3-0.4-0.7-0.4-1.1
				c0-0.6,0.3-1.1,0.8-1.6c0.5-0.5,1.6-1.1,3.3-1.9v-0.8c0-0.6,0-0.9-0.1-1.1c-0.1-0.2-0.2-0.3-0.4-0.4c-0.2-0.1-0.4-0.2-0.6-0.2
				c-0.4,0-0.6,0.1-0.9,0.2c-0.1,0.1-0.2,0.2-0.2,0.3c0,0.1,0.1,0.3,0.2,0.4c0.2,0.2,0.3,0.5,0.3,0.7c0,0.3-0.1,0.5-0.3,0.7
				c-0.2,0.2-0.5,0.3-0.8,0.3c-0.3,0-0.6-0.1-0.9-0.3c-0.2-0.2-0.3-0.5-0.3-0.7c0-0.4,0.2-0.8,0.5-1.1c0.3-0.4,0.7-0.6,1.3-0.8
				c0.6-0.2,1.1-0.3,1.7-0.3c0.7,0,1.3,0.2,1.7,0.5c0.4,0.3,0.7,0.6,0.8,1c0.1,0.2,0.1,0.8,0.1,1.6v3c0,0.4,0,0.6,0,0.7
				c0,0.1,0.1,0.2,0.1,0.2c0.1,0,0.1,0.1,0.2,0.1c0.1,0,0.3-0.1,0.4-0.3l0.2,0.2c-0.3,0.4-0.6,0.7-0.9,0.9c-0.3,0.2-0.6,0.3-1,0.3
				c-0.4,0-0.8-0.1-1-0.3C123.5,101.4,123.3,101.1,123.3,100.6 M123.3,100v-2.6c-0.7,0.4-1.2,0.8-1.5,1.3c-0.2,0.3-0.3,0.6-0.3,0.9
				c0,0.3,0.1,0.5,0.3,0.7c0.1,0.1,0.3,0.2,0.6,0.2C122.6,100.5,122.9,100.4,123.3,100"/>
			<path class="st3" d="M129.9,94.1v1c0.4-0.4,0.8-0.7,1.1-0.9c0.4-0.2,0.8-0.3,1.2-0.3c0.5,0,0.9,0.1,1.2,0.4
				c0.3,0.3,0.5,0.6,0.7,1c0.1,0.3,0.1,0.9,0.1,1.8v3c0,0.6,0.1,1,0.2,1.1c0.1,0.1,0.3,0.2,0.7,0.3v0.3h-3.9v-0.3
				c0.3,0,0.5-0.2,0.6-0.4c0.1-0.1,0.1-0.5,0.1-1v-3.4c0-0.6,0-1-0.1-1.2c0-0.2-0.1-0.3-0.3-0.4c-0.1-0.1-0.2-0.1-0.4-0.1
				c-0.5,0-0.9,0.3-1.3,1v4.1c0,0.6,0.1,0.9,0.2,1.1c0.1,0.2,0.3,0.2,0.6,0.3v0.3h-3.9v-0.3c0.3,0,0.6-0.1,0.7-0.3
				c0.1-0.1,0.1-0.5,0.1-1.1v-4.3c0-0.6-0.1-0.9-0.2-1.1c-0.1-0.1-0.3-0.2-0.7-0.3v-0.3H129.9z"/>
			<path class="st3" d="M150.3,90.4v3.9H150c-0.4-1.1-0.9-1.9-1.7-2.5c-0.7-0.6-1.5-0.8-2.4-0.8c-0.8,0-1.5,0.2-2.1,0.7
				c-0.6,0.5-0.9,1.1-1.2,2c-0.2,0.8-0.3,1.7-0.3,2.6c0,1.1,0.1,2,0.4,2.8c0.3,0.8,0.7,1.4,1.2,1.8c0.6,0.4,1.2,0.6,2,0.6
				c0.3,0,0.5,0,0.8-0.1c0.3-0.1,0.6-0.1,0.9-0.3v-2.3c0-0.4,0-0.7-0.1-0.8c-0.1-0.1-0.2-0.2-0.4-0.4c-0.2-0.1-0.4-0.2-0.7-0.2h-0.3
				v-0.3h5.4v0.3c-0.4,0-0.7,0.1-0.9,0.2c-0.2,0.1-0.3,0.2-0.4,0.4c0,0.1-0.1,0.4-0.1,0.8v2.3c-0.7,0.3-1.5,0.6-2.2,0.7
				c-0.8,0.2-1.6,0.2-2.4,0.2c-1.1,0-1.9-0.1-2.6-0.4c-0.7-0.3-1.3-0.7-1.9-1.1c-0.5-0.5-0.9-1-1.3-1.6c-0.4-0.8-0.6-1.6-0.6-2.5
				c0-1.7,0.6-3.1,1.8-4.3c1.2-1.2,2.7-1.7,4.5-1.7c0.6,0,1.1,0,1.5,0.1c0.2,0,0.6,0.2,1.2,0.4c0.5,0.2,0.9,0.3,1,0.3
				c0.2,0,0.3-0.1,0.4-0.2c0.1-0.1,0.3-0.3,0.4-0.6H150.3z"/>
			<path class="st2" d="M155.6,93.9c0.7,0,1.3,0.2,1.9,0.5c0.6,0.3,1,0.8,1.3,1.5c0.3,0.6,0.5,1.3,0.5,2.1c0,1.1-0.3,2-0.8,2.7
				c-0.7,0.9-1.6,1.3-2.8,1.3c-1.2,0-2.1-0.4-2.7-1.2C152.3,100,152,99,152,98c0-1.1,0.3-2.1,1-2.9
				C153.6,94.3,154.5,93.9,155.6,93.9 M155.6,94.4c-0.3,0-0.5,0.1-0.7,0.3c-0.2,0.2-0.3,0.6-0.4,1.3c-0.1,0.6-0.1,1.5-0.1,2.6
				c0,0.6,0,1.1,0.1,1.6c0.1,0.4,0.2,0.7,0.4,0.9c0.2,0.2,0.4,0.3,0.7,0.3c0.2,0,0.5-0.1,0.6-0.2c0.2-0.2,0.4-0.4,0.4-0.8
				c0.1-0.5,0.2-1.6,0.2-3.2c0-0.9-0.1-1.6-0.2-1.9c-0.1-0.4-0.3-0.6-0.5-0.8C156,94.5,155.9,94.4,155.6,94.4"/>
			<path class="st3" d="M162.9,102l-2.6-6c-0.3-0.7-0.6-1.2-0.7-1.4c-0.1-0.1-0.3-0.2-0.6-0.3v-0.3h4.1v0.3c-0.3,0-0.4,0-0.5,0.1
				c-0.1,0.1-0.2,0.3-0.2,0.4c0,0.2,0.1,0.6,0.4,1.1L164,99l1-2.5c0.3-0.7,0.4-1.2,0.4-1.5c0-0.2-0.1-0.3-0.2-0.4
				c-0.1-0.1-0.3-0.2-0.7-0.2v-0.3h2.5v0.3c-0.2,0-0.4,0.1-0.6,0.3c-0.2,0.1-0.4,0.6-0.7,1.3l-2.6,6H162.9z"/>
			<path class="st2" d="M173.1,97.7h-4.2c0,1,0.3,1.8,0.8,2.4c0.4,0.5,0.8,0.7,1.4,0.7c0.3,0,0.6-0.1,0.9-0.3c0.3-0.2,0.6-0.5,0.9-1
				l0.3,0.2c-0.4,0.9-0.9,1.5-1.4,1.8c-0.5,0.4-1.1,0.5-1.8,0.5c-1.1,0-2-0.4-2.6-1.3c-0.5-0.7-0.7-1.6-0.7-2.6c0-1.3,0.3-2.3,1-3.1
				c0.7-0.8,1.5-1.1,2.4-1.1c0.8,0,1.5,0.3,2,1C172.8,95.5,173.1,96.4,173.1,97.7 M171.1,97.1c0-0.9,0-1.5-0.1-1.8
				c-0.1-0.3-0.2-0.6-0.4-0.7c-0.1-0.1-0.3-0.1-0.5-0.1c-0.3,0-0.5,0.1-0.7,0.4c-0.3,0.5-0.5,1.2-0.5,2v0.3H171.1z"/>
			<path class="st3" d="M176.8,94.1v1.7c0.5-0.8,1-1.3,1.3-1.6c0.4-0.3,0.8-0.4,1.1-0.4c0.3,0,0.6,0.1,0.7,0.3
				c0.2,0.2,0.3,0.5,0.3,0.8c0,0.4-0.1,0.7-0.3,0.9c-0.2,0.2-0.4,0.3-0.6,0.3c-0.3,0-0.5-0.1-0.8-0.3c-0.2-0.2-0.3-0.3-0.4-0.3
				c-0.1,0-0.1,0-0.2,0c-0.2,0-0.3,0.1-0.5,0.2c-0.2,0.2-0.4,0.5-0.5,0.8c-0.2,0.5-0.3,1.1-0.3,1.8v1.8l0,0.5c0,0.3,0,0.5,0.1,0.6
				c0.1,0.1,0.2,0.3,0.3,0.3c0.1,0.1,0.4,0.1,0.7,0.1v0.3h-4.2v-0.3c0.3,0,0.6-0.1,0.7-0.3c0.1-0.2,0.2-0.6,0.2-1.2v-4.3
				c0-0.4,0-0.7-0.1-0.8c-0.1-0.2-0.1-0.3-0.2-0.3c-0.1-0.1-0.3-0.1-0.6-0.1v-0.3H176.8z"/>
			<path class="st3" d="M183.9,94.1v1c0.4-0.4,0.8-0.7,1.1-0.9c0.4-0.2,0.8-0.3,1.2-0.3c0.5,0,0.9,0.1,1.2,0.4
				c0.3,0.3,0.5,0.6,0.7,1c0.1,0.3,0.1,0.9,0.1,1.8v3c0,0.6,0.1,1,0.2,1.1c0.1,0.1,0.3,0.2,0.7,0.3v0.3h-3.9v-0.3
				c0.3,0,0.5-0.2,0.6-0.4c0.1-0.1,0.1-0.5,0.1-1v-3.4c0-0.6,0-1-0.1-1.2c0-0.2-0.1-0.3-0.3-0.4c-0.1-0.1-0.2-0.1-0.4-0.1
				c-0.5,0-0.9,0.3-1.3,1v4.1c0,0.6,0.1,0.9,0.2,1.1c0.1,0.2,0.3,0.2,0.6,0.3v0.3h-3.9v-0.3c0.3,0,0.6-0.1,0.7-0.3
				c0.1-0.1,0.1-0.5,0.1-1.1v-4.3c0-0.6-0.1-0.9-0.2-1.1c-0.1-0.1-0.3-0.2-0.7-0.3v-0.3H183.9z"/>
			<path class="st3" d="M192.8,94.1v1c0.4-0.5,0.8-0.8,1.2-1c0.4-0.2,0.8-0.3,1.2-0.3c0.5,0,0.9,0.1,1.2,0.3
				c0.3,0.2,0.6,0.6,0.8,1.1c0.4-0.5,0.9-0.9,1.3-1.1c0.4-0.2,0.8-0.3,1.3-0.3c0.5,0,1,0.1,1.3,0.4c0.3,0.2,0.5,0.6,0.7,0.9
				c0.1,0.4,0.2,1,0.2,1.8v3.2c0,0.6,0.1,1,0.2,1.1c0.1,0.1,0.3,0.2,0.7,0.3v0.3h-4v-0.3c0.3,0,0.5-0.1,0.7-0.4
				c0.1-0.1,0.1-0.5,0.1-1v-3.3c0-0.7,0-1.1-0.1-1.3c-0.1-0.2-0.1-0.3-0.3-0.4c-0.1-0.1-0.3-0.1-0.4-0.1c-0.2,0-0.5,0.1-0.7,0.3
				c-0.2,0.2-0.5,0.4-0.7,0.8v4.1c0,0.6,0,0.9,0.1,1c0.1,0.2,0.4,0.3,0.7,0.3v0.3h-4v-0.3c0.2,0,0.4-0.1,0.5-0.2
				c0.1-0.1,0.2-0.2,0.2-0.3c0-0.1,0.1-0.4,0.1-0.9v-3.3c0-0.7,0-1.1-0.1-1.3c-0.1-0.2-0.1-0.3-0.3-0.4c-0.1-0.1-0.3-0.1-0.4-0.1
				c-0.2,0-0.4,0.1-0.6,0.2c-0.3,0.2-0.5,0.5-0.8,0.9v4.1c0,0.5,0.1,0.9,0.2,1.1c0.1,0.2,0.3,0.3,0.7,0.3v0.3h-4v-0.3
				c0.3,0,0.6-0.1,0.7-0.3c0.1-0.1,0.1-0.5,0.1-1.1v-4.3c0-0.6-0.1-0.9-0.2-1.1c-0.1-0.1-0.3-0.2-0.7-0.3v-0.3H192.8z"/>
			<path class="st2" d="M209.5,97.7h-4.2c0,1,0.3,1.8,0.8,2.4c0.4,0.5,0.8,0.7,1.4,0.7c0.3,0,0.6-0.1,0.9-0.3c0.3-0.2,0.6-0.5,0.9-1
				l0.3,0.2c-0.4,0.9-0.9,1.5-1.4,1.8c-0.5,0.4-1.1,0.5-1.8,0.5c-1.1,0-2-0.4-2.6-1.3c-0.5-0.7-0.7-1.6-0.7-2.6c0-1.3,0.3-2.3,1-3.1
				c0.7-0.8,1.5-1.1,2.4-1.1c0.8,0,1.5,0.3,2,1C209.1,95.5,209.4,96.4,209.5,97.7 M207.5,97.1c0-0.9,0-1.5-0.1-1.8
				c-0.1-0.3-0.2-0.6-0.4-0.7c-0.1-0.1-0.3-0.1-0.5-0.1c-0.3,0-0.5,0.1-0.7,0.4c-0.3,0.5-0.5,1.2-0.5,2v0.3H207.5z"/>
			<path class="st3" d="M212.9,94.1v1c0.4-0.4,0.8-0.7,1.1-0.9c0.4-0.2,0.7-0.3,1.2-0.3c0.5,0,0.9,0.1,1.2,0.4
				c0.3,0.3,0.6,0.6,0.7,1c0.1,0.3,0.1,0.9,0.1,1.8v3c0,0.6,0.1,1,0.2,1.1c0.1,0.1,0.3,0.2,0.7,0.3v0.3h-3.9v-0.3
				c0.3,0,0.5-0.2,0.6-0.4c0.1-0.1,0.1-0.5,0.1-1v-3.4c0-0.6,0-1-0.1-1.2c0-0.2-0.1-0.3-0.3-0.4c-0.1-0.1-0.2-0.1-0.4-0.1
				c-0.5,0-0.9,0.3-1.3,1v4.1c0,0.6,0.1,0.9,0.2,1.1c0.1,0.2,0.3,0.2,0.6,0.3v0.3h-3.9v-0.3c0.3,0,0.6-0.1,0.7-0.3
				c0.1-0.1,0.1-0.5,0.1-1.1v-4.3c0-0.6-0.1-0.9-0.2-1.1c-0.1-0.1-0.3-0.2-0.7-0.3v-0.3H212.9z"/>
			<path class="st3" d="M221.4,91.3v2.8h1.8v0.8h-1.8v4.7c0,0.4,0,0.7,0.1,0.9c0,0.1,0.1,0.2,0.2,0.3c0.1,0.1,0.2,0.1,0.3,0.1
				c0.4,0,0.7-0.3,1-0.8l0.2,0.2c-0.4,1.1-1.2,1.6-2.2,1.6c-0.5,0-0.9-0.1-1.2-0.4c-0.3-0.3-0.5-0.6-0.6-0.9
				c-0.1-0.2-0.1-0.7-0.1-1.5v-4.2h-1v-0.3c0.7-0.5,1.3-1,1.8-1.5c0.5-0.5,0.9-1.1,1.3-1.8H221.4z"/>
			<path class="st3" d="M130.4,70.7c-0.1,0.1-0.1,0.2-0.2,0.2"/>
			<path class="st3" d="M132.3,55.7c0.2,0,0.4-0.2,0.4-0.4c0-0.2-0.2-0.4-0.4-0.4s-0.4,0.2-0.4,0.4
				C131.9,55.5,132.1,55.7,132.3,55.7"/>
			<path class="st3" d="M151,38.6L151,38.6l-14.5,0v0h0l0,11.7c0,1.1,0.5,2.1,1.1,2.4l5.6,3.3c0.1,0.1,0.3,0.2,0.5,0.2
				c0.2,0,0.3-0.1,0.5-0.2l5.7-3.4c0.7-0.3,1.1-1.3,1.1-2.4L151,38.6L151,38.6z M141.3,42h-1.3v-3h1.3V42z M140.4,43.1l0.2-0.2
				l-0.1-0.2l0.2,0l0.1-0.2l0.1,0.2l0.2,0l-0.1,0.2l0.2,0.2l-0.2,0v0.3l-0.2-0.2l-0.2,0.2v-0.3L140.4,43.1z M136.9,44h1.5v2.8h-1.5
				V44z M137.2,42.7l0.2,0l0.1-0.2l0.1,0.2l0.2,0l-0.1,0.2l0.2,0.2l-0.2,0v0.3l-0.2-0.2l-0.2,0.2v-0.3l-0.2,0l0.2-0.2L137.2,42.7z
				 M138.9,45.6l0.2,0l0.1-0.2l0.1,0.2l0.2,0l-0.1,0.2l0.2,0.2l-0.2,0v0.3l-0.2-0.2l-0.2,0.2V46l-0.2,0l0.2-0.2L138.9,45.6z
				 M139.9,43.3c0-0.1-0.1-0.1-0.2-0.1c-0.1,0-0.2,0.2-0.3,0.2c-0.1,0-0.1,0-0.1-0.1c0-0.1,0.2-0.1,0.2-0.2c-0.9,0-1,0.4-1.1,0.4
				c-0.2,0,0.2-0.5,0.3-0.6c-0.2,0-0.3-0.3-0.5-0.4c0.1-0.1,0.2-0.1,0.3,0c0-0.1,0.1-0.2,0.3-0.2c0.4,0,0.3,0.4,0.4,0.4
				c0.1,0,0-0.4,0.3-0.4c0.4,0,0.9,1.1,0.5,1.1C139.7,43.5,139.9,43.3,139.9,43.3 M138.8,40.2L139,40l-0.1-0.2l0.2,0l0.1-0.2
				l0.1,0.2l0.2,0l-0.1,0.2l0.2,0.2l-0.2,0v0.3l-0.2-0.2l-0.2,0.2v-0.3L138.8,40.2z M138.4,42h-1.5v-3h1.5V42z M141.3,54.5l-3.5-2.1
				c-0.6-0.4-0.9-1.1-0.9-1.9v-3.3h4.4V54.5z M140.1,44h1.3v2.8h-1.3V44z M145.8,54.8l-1.6,1h0c-0.1,0.1-0.3,0.1-0.4,0.1
				c-0.2,0-0.3-0.1-0.4-0.2l-1.6-1v-7.5h4.1V54.8z M145.8,46.8h-4.1V39h4.1V46.8z M150.6,50.5c-0.1,0.8-0.4,1.5-0.9,1.9l-3.5,2.1
				v-7.3h4.4V50.5z M150.6,46.8h-4.4V39h4.4V46.8z"/>
			<path class="st3" d="M141.1,49.9c0,0-0.6,0.2-0.4,0.2c0-0.2,0.3-0.5,0.4-0.6c0-0.2-0.3,0-0.5,0.1c0.8-1.2,0.3-0.7-0.2-0.6
				c0.7-0.8,0.5-0.8,0-0.5c0.4-0.3,0.5-0.7,0.5-0.9c-0.4,0.5-0.8,0.5-0.8,0.9c0,0.3-0.1,0.9-0.3,1c-0.2,0.2-0.1-0.9-0.6-0.9
				c-0.2,0-0.6,0-0.7,0.2c0.1,0,0.3,0.3,0.3,0.4c0,0.1,0.1,0.4-0.1,0.4c-0.2,0-0.4-0.4-0.4-0.6c0-0.2,0-0.1,0-0.4
				c0-0.5-0.8-1.1-1.1-1.1c0,0.3,0.4,0.4,0.4,0.8c-0.2,0-0.4-0.3-0.4-0.1c0,0.2,0.3,0.2,0.3,0.4c0,0.2-0.3-0.1-0.3,0.1
				c0,0.2,0.2,0.1,0.2,0.3c-0.1,0-0.2,0-0.3,0c0,0.1,0,0.1,0.1,0.2c0,0-0.1,0.1-0.1,0.4c0,0.9,0.6,1.4,1,1.4c0.3,0,0.3-0.2,0.3-0.3
				c0,0.2,0.2-0.1,0.2,0.2c0,0.3-0.3,0.2-0.3,0.4c0,0.3,0.5,0,0.5,0.4c0,0.4-0.1,0.4-0.1,0.6c0,0.1,0.5-0.2,0.5-0.2
				c0.1,0,0.1,0.4,0.3,0.4c0.1,0,0.2-0.4,0.3-0.4c-0.1,0,0.4,0.3,0.4,0.2c0-0.4-0.2-0.2-0.2-0.5c0-0.3,0.6-0.2,0.5-0.4
				c-0.1-0.1-0.1,0-0.2-0.2c0,0-0.5-0.7,0.1-0.3C141,51.3,141.1,50,141.1,49.9"/>
			<path class="st3" d="M156.6,53c0.3,0,0.5-0.2,0.5-0.4s-0.2-0.4-0.5-0.4c-0.3,0-0.5,0.2-0.5,0.4S156.3,53,156.6,53"/>
			<path class="st3" d="M154.6,54.1c0.3,0,0.5-0.2,0.5-0.4s-0.2-0.4-0.5-0.4c-0.3,0-0.5,0.2-0.5,0.4S154.4,54.1,154.6,54.1"/>
			<path class="st3" d="M131.7,56.8c0.3,0,0.5-0.2,0.5-0.4c0-0.2-0.2-0.4-0.5-0.4c-0.3,0-0.5,0.2-0.5,0.4
				C131.2,56.6,131.4,56.8,131.7,56.8"/>
			<path class="st3" d="M133.2,56.9c0.3,0,0.5-0.2,0.5-0.4c0-0.2-0.2-0.4-0.5-0.4c-0.3,0-0.5,0.2-0.5,0.4
				C132.7,56.7,132.9,56.9,133.2,56.9"/>
			<path class="st3" d="M174.5,36.9c0.7,0.8,0.9,2.2,0.4,3.2c-0.3,0-0.2-0.4-0.3-0.6c-0.5-0.9-0.9-2.1-0.5-3.2
				C174.4,36.3,174.3,36.7,174.5,36.9"/>
			<path class="st3" d="M113.9,38c-0.2,0.6-0.2,1.5,0,2c-0.1,0.1-0.1-0.1-0.2-0.1c-1-0.7-0.5-2.1-0.8-3.1c0-0.1,0.2-0.1,0.3-0.1
				C113.6,37.1,113.8,37.5,113.9,38"/>
			<path class="st3" d="M176.7,38.1c0.2,0.3-0.1,0.6-0.3,0.7c-0.2,0.1-0.5-0.1-0.6-0.3c-0.1-0.3,0.1-0.5,0.3-0.7
				C176.3,37.8,176.5,37.9,176.7,38.1"/>
			<path class="st3" d="M112.3,39.2c0,0.2-0.1,0.5-0.3,0.6c-0.2,0-0.4,0-0.5-0.1c-0.2-0.1-0.2-0.4-0.1-0.5c0.1-0.2,0.3-0.2,0.5-0.2
				C112.1,39,112.3,39,112.3,39.2"/>
			<path class="st3" d="M177.6,39.7c0.1,0.2,0.1,0.3,0,0.4c-0.2,0.2-0.4,0.3-0.7,0.2c-0.2-0.1-0.2-0.3-0.3-0.4
				c0-0.2,0.3-0.4,0.4-0.5C177.3,39.4,177.5,39.5,177.6,39.7"/>
			<path class="st3" d="M176.2,39.7c0.2,0.1,0,0.4,0,0.5c-0.1,0.1-0.3,0.3-0.5,0.3c-0.1-0.1-0.3-0.1-0.3-0.3c0-0.3,0.1-0.5,0.4-0.6
				C175.9,39.5,176.1,39.6,176.2,39.7"/>
			<path class="st3" d="M174.4,40.1c0,0.3,0,0.6-0.3,0.7c-0.3,0.1-0.5-0.2-0.6-0.4c0-0.3,0.1-0.5,0.4-0.6
				C174.1,39.8,174.2,39.9,174.4,40.1"/>
			<path class="st3" d="M115.1,40.2c0.1,0.3-0.2,0.4-0.3,0.5c-0.2,0.1-0.4-0.1-0.5-0.3c-0.2-0.2,0.1-0.3,0.1-0.5
				C114.6,39.7,115,39.9,115.1,40.2"/>
			<path class="st3" d="M113.6,40.3c0,0.2-0.1,0.4-0.3,0.5c-0.2,0.1-0.4-0.1-0.5-0.2c-0.1-0.3,0-0.5,0.2-0.6
				C113.3,39.8,113.5,40.1,113.6,40.3"/>
			<path class="st3" d="M168.2,40.4c0.3,0.5,0.5,1.2,0.5,1.8c-0.1,0.5,0.1,1.1-0.3,1.5c-0.4-0.1-0.4-0.6-0.6-0.8
				c-0.5-0.9-0.1-1.9,0.1-2.8C168.2,40,168.2,40.2,168.2,40.4"/>
			<path class="st3" d="M112.4,40.7c0.1,0.3-0.2,0.5-0.3,0.6c-0.3,0.1-0.5-0.2-0.6-0.4c0-0.3,0.1-0.5,0.3-0.6
				C112,40.3,112.3,40.4,112.4,40.7"/>
			<path class="st3" d="M172.2,41.4c0.3,0.7,0.4,1.6,0.1,2.4l-0.2,0.1c-0.4-0.7-0.9-1.3-1-2.1c0-0.5,0.1-1,0.3-1.5
				c0.2-0.1,0.3,0,0.4,0.2C171.8,40.9,172,41.3,172.2,41.4"/>
			<path class="st3" d="M175.4,41c0,0.3-0.1,0.5-0.4,0.6c-0.3,0.1-0.5,0-0.6-0.3c-0.1-0.3,0.1-0.5,0.3-0.6
				C175,40.5,175.3,40.7,175.4,41"/>
			<path class="st3" d="M113.6,41.7c0,0.2-0.2,0.4-0.4,0.5c-0.2,0.2-0.4-0.1-0.5-0.2c-0.1-0.2-0.1-0.4,0-0.6
				c0.1-0.2,0.3-0.2,0.4-0.2C113.3,41.4,113.5,41.5,113.6,41.7"/>
			<path class="st3" d="M114.7,41.6c0.1,0.3-0.2,0.4-0.3,0.5c-0.3,0.1-0.5-0.1-0.6-0.3c-0.1-0.3,0.1-0.4,0.3-0.6
				C114.4,41.2,114.6,41.4,114.7,41.6"/>
			<path class="st3" d="M176.1,41.5c0,0.3-0.5,0.7-0.6,1c-0.3,0.7-0.9,1.2-1.6,1.4c-0.2,0.1-0.4,0.3-0.6,0.3c-0.1-0.5,0.4-1,0.7-1.4
				C174.6,42.2,175.3,41.7,176.1,41.5"/>
			<path class="st3" d="M113.1,42.6c0.4,0.4,0.6,0.8,1,1.2c0,0.1-0.1,0.3-0.2,0.3c-1.2-0.1-2.1-1.4-2.7-2.2c0.1-0.3,0.4-0.1,0.6-0.1
				C112.3,42.1,112.8,42.2,113.1,42.6"/>
			<path class="st3" d="M176.5,43c-0.1,1.1-0.6,2.2-1.6,2.8c-0.3,0.1-0.6,0.4-0.9,0.2c0.5-1.1,1.3-2,2.2-3H176.5z"/>
			<path class="st3" d="M171.6,43.7c0.1,0.4-0.1,0.6-0.4,0.7c-0.3,0-0.5-0.2-0.6-0.4c0-0.3,0.1-0.5,0.4-0.6c0.1-0.1,0.2-0.1,0.3-0.1
				C171.4,43.4,171.5,43.6,171.6,43.7"/>
			<path class="st3" d="M111.7,43.9c0.5,0.3,0.9,0.8,1.4,1.2c-0.3,0.2-0.7,0-1.1,0c-0.9-0.3-1.4-1-2.3-1.3c0-0.3,0.4-0.2,0.5-0.3
				C110.7,43.6,111.2,43.8,111.7,43.9"/>
			<path class="st3" d="M138.8,36.4c-1.4-0.6-2.4,0.9-3.8,0.7c-0.2,0.1-0.1,0.3-0.2,0.4c-0.1,0.1-0.2,0-0.3,0
				c-0.1-0.6-0.3-1.2-0.4-1.8c-0.2-0.3-0.1-0.6-0.2-0.9c-0.8-2.2,2-0.5,2.5-1.8c0.5-1.1-0.9-1.2-1.4-2v-0.3
				c-0.4-0.4-0.8-0.5-1.1-1.1c0.2-0.6,0.3-1.3,0.1-2c0-0.2-0.1-0.4-0.4-0.3c-0.5,0.7-0.8,1.2-1.3,1.8c-0.5-0.4-0.9-0.8-1.5-1.1
				c-0.4-0.1-0.7-0.4-1.2-0.3c-0.1,0.2,0,0.3,0.1,0.4c0,1,0.5,1.8,1.2,2.5l0.1,0.4c-0.5,1-0.3,2.2-0.5,3.4c-1.1,2.9-3,5.7-5.5,7.7
				c-1.4,1.6-3.2,3.2-3.4,5.5c-0.1,0.4,0.1,0.8-0.2,1c-0.8-0.3-1.7-0.7-2.4-1.2c-1.2-0.8-2.8-0.7-3.6-2.2c-0.3-0.6,0.1-1.2,0.4-1.6
				c0.9-0.8,0.7-2.3,0.3-3.3c-0.1,0-0.1,0.1-0.2,0.1c-0.1,1.5-1.3,2.5-0.8,4.2c0.1,0.5,0.4,0.8,0.5,1.2c-0.2-0.1-0.4-0.1-0.6-0.1
				c-0.6-0.1-1.1-0.3-1.7-0.2c-1.2,0.5-2.8-0.1-3.7,0.9c-0.2,0-0.4,0.1-0.3,0.3c0.6,0,1.1,0.2,1.6,0.1c0.9,0.2,1.5-0.6,2.1-0.9h0.2
				c0.3-0.3,0.7-0.1,1-0.2c1.6,0.2,2.8,0.9,4.2,1.7v0.1c-0.5,0.2-1.1,0.4-1.6,0.7c-0.6,0.4-1.2,1-1.4,1.7c-0.4,0.6,0.1,1.2,0.4,1.7
				c0,0.3,0,0.6,0.3,0.7c0.8-0.9,0.1-1.9,0.2-2.9c0.2-0.8,0.9-1.1,1.6-1.3c1.4-0.6,2.5,0.6,3.6,1.2c0,1.2,0.1,2.3-0.1,3.4
				c-0.4,0.1-0.8,0.2-1.2,0.2c-2,0.2-3.6,1.2-5.4,1.9c-0.8,0.3-1.8,0.3-2.6,0.6c0.6,0.2,1.3-0.1,1.9-0.1c2.5-0.4,4.4-2.3,7.1-1.9
				l0,0.1c-0.3,0.6-0.7,1.2-1.2,1.7c-0.1-0.3-0.1-0.5-0.4-0.7c-0.2-0.1-0.4,0-0.6,0.2c-0.1,0.1-0.1,0.3,0,0.4
				c0.1,0.2,0.3,0.3,0.6,0.4c-0.1,0.2-0.3,0.3-0.5,0.5c-0.7,1.2-2.2,0.7-3,1.6c-0.1,0.2-0.6,0.3-0.4,0.6c1,0.1,1.9-0.2,2.6-0.7
				c0.9-1,1.9-2,2.9-3c0.2,0.8-0.1,1.7-0.6,2.3c-0.2-0.1-0.4-0.3-0.7-0.4c-0.3,0.1-0.4,0.3-0.5,0.5c0.1,0.2,0.2,0.4,0.4,0.5
				c-0.9,0.6-1.9,0.7-2.9,0.9c-1.8,0.2-3.6,0.4-5.5,0.4c-0.9-0.1-1.9,0.3-2.7,0c-1,0.2-2-0.1-2.8,0.4c-0.1,0.1,0,0.3,0,0.4
				c1.2,0.8,2.8,0.2,4.1,0.4h10c0.7,0,1.5-0.1,2.1-0.4c1.3-0.7,2-2.1,2.7-3.4c0.3-0.5,0.4-1,0.5-1.5c0.3-0.9,1-1.5,1.9-1.6
				c0.1,1.3-0.1,2.7-0.4,3.9c-0.2,0.8-0.7,1.6-0.4,2.5c0.1,0.4,0.5,0.4,0.8,0.5c3.1-0.1,6.1-0.2,9.4,0.1c0.6,0.1,1.1,0.3,1.7,0.3
				c0.1-0.1,0.2-0.1,0.2-0.3c-0.1-0.3-0.3-0.6-0.6-0.7c-0.1-0.2-0.3-0.1-0.4-0.2c-1.6-0.9-3.6-0.4-5.5-0.4c-1,0.1-2,0.3-2.8-0.3
				c-0.4-0.5-0.1-1.9-0.1-1.9c0-0.6,1.4-4.6,1.6-4.9c0-0.4,0.2-0.7,0.2-1.2c0.2-0.5,0.2-1.2,0.2-1.7c0.1-0.8,0.5-1.6,0.8-2.4
				c0.2-0.4,0.3-0.8,0.4-1.2c0.2-0.5,0.2-0.9,0.5-1.3c0.8,0.5,1.6,0.5,2,1.4l0.3,2.1c0,0.1,0.1,0.4,0.3,0.2c0.7-0.4,0.5-1.4,0.5-2.1
				c0.2-0.8-0.4-1.2-0.6-1.9c-0.2-0.1-0.5-0.7-0.5-0.7c-0.1-0.6-1.3-0.9-1-1.6c0.2-0.6,0.3-1.1,0.9-1.5c0.1,0.1,0.1,0.1,0.1,0.2
				l0.3-0.2l0-2.1c0.8,0,2,0.1,2.9,0.1c0.2,0.1,0.4,0.3,0.7,0.3l0.2-0.3l2.1-0.4C140.2,37.4,139.6,36.4,138.8,36.4"/>
			<path class="st3" d="M141,37.3c0.1,0,0.1,0,0.2,0L141,37.3z"/>
			<path class="st3" d="M119,44.4c0,0.3-0.2,0.5-0.4,0.6c-0.2-0.1-0.4-0.1-0.5-0.3c-0.1-0.3,0.2-0.5,0.4-0.6
				C118.7,44.1,118.9,44.2,119,44.4"/>
			<path class="st3" d="M117.3,44.4c0.2,0.2,0.2,0.4,0.1,0.6c-0.2,0.2-0.5,0.3-0.6,0.1c-0.2-0.2-0.3-0.3-0.2-0.5
				C116.8,44.3,117.1,44.2,117.3,44.4"/>
			<path class="st3" d="M152.6,44.7C152.6,44.7,152.6,44.7,152.6,44.7"/>
			<path class="st3" d="M171.9,45.1c0.1,0.3-0.1,0.5-0.3,0.6c-0.3-0.1-0.6-0.1-0.6-0.5c0-0.2,0.2-0.3,0.4-0.4
				C171.6,44.8,171.8,45,171.9,45.1"/>
			<path class="st3" d="M173.2,45.1c0.1,0.1,0.3,0.3,0.1,0.5c-0.1,0.1-0.2,0.1-0.3,0.2c-0.3,0.1-0.5-0.1-0.6-0.3
				c-0.1-0.3,0.2-0.4,0.4-0.5C173,44.8,173.1,45,173.2,45.1"/>
			<path class="st3" d="M111,45.4c-0.1,0.3-0.4,0.4-0.7,0.3c-0.1-0.1-0.2-0.2-0.2-0.3c0-0.2,0.1-0.4,0.3-0.4
				C110.7,45,110.9,45.1,111,45.4"/>
			<path class="st3" d="M119.5,45.8c0,0.2-0.3,0.4-0.4,0.5c-0.3,0-0.4-0.2-0.6-0.4c0-0.2,0.1-0.5,0.3-0.5
				C119.1,45.3,119.4,45.5,119.5,45.8"/>
			<path class="st3" d="M118,45.6c0.1,0.1,0.2,0.3,0.1,0.4c-0.2,0.1-0.4,0.4-0.6,0.2c-0.2-0.1-0.3-0.2-0.3-0.5
				c0.1-0.1,0.2-0.3,0.4-0.3C117.8,45.4,117.9,45.5,118,45.6"/>
			<path class="st3" d="M177.1,45.9c0,0.2-0.2,0.4-0.3,0.5c-0.2,0.1-0.4,0-0.6-0.1c-0.2-0.1-0.1-0.3-0.1-0.4
				c0.1-0.2,0.3-0.3,0.5-0.3C176.8,45.6,177,45.8,177.1,45.9"/>
			<path class="st3" d="M178.7,46.2c-0.1,0.2-0.3,0.4-0.5,0.5c-0.2,0-0.4-0.1-0.4-0.3c0-0.2,0.1-0.4,0.2-0.4
				C178.3,45.8,178.6,45.9,178.7,46.2"/>
			<path class="st3" d="M113.9,46.5c0.1,0.3-0.1,0.5-0.3,0.6c-0.2,0.1-0.4,0-0.5-0.1c-0.1-0.1-0.2-0.3-0.1-0.5
				c0.1-0.2,0.3-0.2,0.4-0.3C113.6,46.2,113.8,46.3,113.9,46.5"/>
			<path class="st3" d="M115.1,46.7c0.1,0.2-0.2,0.3-0.2,0.4c-0.1,0.1-0.3,0.2-0.5,0.1c-0.2-0.2-0.4-0.4-0.2-0.6
				C114.5,46.2,115,46.4,115.1,46.7"/>
			<path class="st3" d="M175.6,46.6c0,0.3-0.2,0.4-0.4,0.6c-0.2,0.1-0.5-0.1-0.5-0.3c0-0.2,0.1-0.4,0.3-0.5
				C175.2,46.4,175.5,46.4,175.6,46.6"/>
			<path class="st3" d="M177.7,47c-0.1,0.2,0,0.5-0.3,0.6c-0.2,0.1-0.5,0-0.6-0.1c-0.2-0.1-0.2-0.4-0.1-0.5c0.1-0.2,0.4-0.4,0.6-0.3
				C177.5,46.8,177.5,46.9,177.7,47"/>
			<path class="st3" d="M112.9,47.6c0.1,0.2-0.1,0.3-0.2,0.4c-0.2,0.1-0.4,0-0.5-0.1c-0.2-0.1-0.1-0.4-0.1-0.5
				C112.4,46.9,112.8,47.2,112.9,47.6"/>
			<path class="st3" d="M176.1,48c0.1,0,0.1,0.2,0,0.2c-0.6,0.3-1.5,0.4-2.1-0.1c-0.3-0.3-0.7-0.4-1-0.6c0.1-0.3,0.6-0.3,0.9-0.4
				C174.7,47.3,175.3,48,176.1,48"/>
			<path class="st3" d="M114.1,47.8c0.1,0.2-0.1,0.3-0.2,0.4c-0.1,0.2-0.3,0.1-0.4,0.1c-0.2-0.2-0.3-0.4-0.2-0.6
				C113.6,47.4,114,47.5,114.1,47.8"/>
			<path class="st3" d="M116.4,48c0.1,0.2-0.1,0.4-0.3,0.6c-0.2,0.1-0.3-0.1-0.5-0.1c-0.1-0.2-0.4-0.4-0.1-0.6
				C115.7,47.5,116.2,47.7,116.4,48"/>
			<path class="st3" d="M145.6,49c0,0.5-0.9-0.1-0.8,0.6c0.1,0.5,0.2,1.1,0.5,1.4c0.2,0.3,0.1,0.9,0.1,1.3c-0.2,0.4-0.6,0.6-1,0.8
				c-0.7-0.1-1.8,0.4-2.1-0.5c-0.1-0.4-0.4-0.8-0.4-1.2c0.1,0,0.2,0,0.2-0.1c0-0.2-0.2-0.3-0.2-0.4c0.8-0.1-0.3-0.9,0.4-0.9
				c0.6,0.6,1.5,0.4,2,1.1c0.1,0.1,0.2,0.2,0.4,0.3c-0.1-0.6-0.4-1.2-0.5-1.9c-0.1-0.3,0-0.7,0.3-0.8C145,48.3,145.4,48.8,145.6,49"
				/>
			<path class="st3" d="M118.6,48.9c0.1,0.3-0.1,0.4-0.3,0.5c-0.2,0.1-0.4-0.2-0.5-0.3c-0.1-0.3,0.1-0.4,0.3-0.5
				C118.3,48.6,118.5,48.7,118.6,48.9"/>
			<path class="st3" d="M134.2,49.1c0.3,1,0.2,2-0.3,2.9c0,0.2,0.1,0.5-0.2,0.5c-0.7-0.9-0.2-2.3,0.1-3.3
				C133.8,49,134.1,48.9,134.2,49.1"/>
			<path class="st3" d="M155.9,49.6c0.4,0.7,0.4,1.7,0.1,2.4l-0.2,0.2c-0.3-0.6-0.5-1.2-0.6-1.8c0.1-0.5,0.3-0.9,0.3-1.4
				C155.8,49,155.8,49.4,155.9,49.6"/>
			<path class="st3" d="M120.6,49.9c-0.2,0.3-0.6,0.4-0.9,0.6c-0.6,0.5-1.5,0.6-2.3,0.4c0.7-0.9,1.7-1.5,2.9-1.2
				C120.4,49.8,120.5,49.8,120.6,49.9"/>
			<path class="st3" d="M110.2,50.8c0.9,0.7,1.2,1.6,1.7,2.5c0.1,0.1,0.3,0.1,0.2,0.3c-0.2,0.2-0.4-0.2-0.7-0.1
				c-1-0.4-1.6-1.5-1.5-2.6C109.9,50.8,110.1,50.8,110.2,50.8"/>
			<path class="st3" d="M154.9,51.6c0,0.3,0,0.5-0.2,0.6c-0.3,0.1-0.5-0.1-0.6-0.3c-0.1-0.2,0.1-0.3,0.1-0.4
				C154.4,51.3,154.8,51.4,154.9,51.6"/>
			<path class="st3" d="M165.6,53c0-0.5,0.1-0.9,0.2-1.4c0.1-0.2,0.1-0.3,0.1-0.5c0.6-0.8,1.8-0.6,2.8-0.5c0.4,0.2,0.9,0.2,1.3,0.3
				c0.2-0.1,0.4-0.2,0.6-0.1c0.8-0.4,0.3-1.4,0.3-2.1l-0.3-0.8c-0.1-0.2-0.2-0.3-0.2-0.5c-0.2-0.2-0.3-0.5-0.4-0.7
				c-0.4-1.1-1.3-1.8-2-2.7c-1.3-1.7-3.3-2.6-5.3-3.3c-2-0.7-4,0.2-5.8,0.8c-0.6-0.2-0.8-0.6-1-1.1c-0.1-1,0.1-1.9,0.5-2.7
				c0.1-0.6,0.5-1.1,0.7-1.7c0.5-1.4,0.9-2.8,1-4.4c0-0.9-0.7-1.6-1.4-2c-0.5-0.1-1-0.1-1.4,0.3c-0.3,0.7-1,1.1-1.6,1.5
				c-0.1,0.4,0.5,0.2,0.7,0.3c0.6,0.1,1.2-0.1,1.6,0.3c0.1,1-0.5,1.9-1.1,2.6c-0.9,1.3-1.8,2.6-2.3,4l-0.1-0.1l0.1,6.2
				c0.8,1.3,1.8,2.9,3.3,3.4c0.8,0.7,1.8,1.5,2.9,0.9c0.6-0.2,0.6,0.6,0.9,1c0.3,0.9-0.4,1.6-0.4,2.5l-0.7,1.4
				c-0.8,1.5-1.4,3.1-2.6,4.3c-0.4,0-0.6,0.4-1,0.4c-0.2,0.3-0.6,0.1-0.9,0.2c-0.8,0.3-1.9,0.1-2.4,0.9c0.1,0.1,0.1,0.1,0.2,0.1
				c1.5,0,3.3,0.1,4.9,0.1c0.2-0.1,0.4-0.3,0.4-0.5c-0.2-0.4,0.1-0.8,0.3-1.1c0.1-0.6,0.5-1,0.7-1.6c0.5-1,1.1-2.1,1.7-3.1l0.8-1.3
				c0.2-0.4,0.5-1,0.8-1.4c0.2-0.2,0.3-0.4,0.5-0.7c0-0.3-0.1-0.4-0.3-0.5c0.2-0.2,0.5-0.1,0.7-0.2c0.6,0.4,1.3,1,1.4,1.7l0.2,0.7
				l0.1,0.3l-0.1,0.8l0.1,0.8c0.1,1.2-0.1,2.5-0.2,3.7c-0.4,1.5-2.1,1.3-3.3,1.7c-0.3,0.2-0.9,0.1-0.9,0.6c1.5,0.3,3.2,0.1,4.8,0.1
				c0.3-0.1,0.3-0.3,0.4-0.6c0.1-0.3,0.4-0.6,0.3-1c-0.3-0.4,0-0.9-0.1-1.4c0.1-0.1,0.1-0.3,0-0.5c0.2-0.7,0.2-1.6,0.3-2.3L165.6,53
				z"/>
			<path class="st3" d="M178,52c-0.8,1.1-1.7,2.4-3.1,2.9c-0.1,0-0.2,0.1-0.3-0.1c0.9-0.9,1.3-2.3,2.7-2.7
				C177.5,52,177.8,51.9,178,52"/>
			<path class="st3" d="M108.9,53.2c-0.1,0.1,0,0.3-0.3,0.4c-0.2,0.1-0.4,0-0.5-0.2c-0.1-0.3,0.1-0.5,0.3-0.6
				C108.7,52.9,108.9,53,108.9,53.2"/>
			<path class="st3" d="M116.2,53.6c0.1,0.2-0.2,0.2-0.3,0.3c-1.1,0.4-2.2,0-2.9-0.7c0-0.1,0-0.2,0.1-0.2
				C114.1,53.1,115.3,52.9,116.2,53.6"/>
			<path class="st3" d="M110.3,53.2c0.1,0.1,0.1,0.3,0.1,0.4c-0.2,0.2-0.4,0.3-0.6,0.2c-0.2-0.1-0.2-0.2-0.3-0.3
				c0-0.3,0.2-0.4,0.4-0.5C110,53.1,110.2,53.1,110.3,53.2"/>
			<path class="st3" d="M134,53.4c0.1,0.2-0.2,0.4-0.3,0.5c-0.2,0.1-0.4-0.1-0.5-0.2c-0.1-0.2,0-0.4,0.2-0.5
				C133.6,53.1,134,53.1,134,53.4"/>
			<path class="st3" d="M179,53.5c0.1,0.3-0.1,0.4-0.3,0.5c-0.2,0.1-0.3,0-0.5-0.1c0-0.1-0.2-0.2-0.1-0.4c0.1-0.2,0.3-0.3,0.6-0.3
				C178.8,53.3,178.9,53.3,179,53.5"/>
			<path class="st3" d="M180.7,53.4c0.2,0.2,0,0.4-0.1,0.6c-0.1,0.2-0.3,0.2-0.5,0.2c-0.2-0.2-0.4-0.2-0.4-0.5
				c0-0.2,0.2-0.4,0.4-0.4C180.4,53.1,180.5,53.4,180.7,53.4"/>
			<path class="st3" d="M107.9,54.1c0,0.2-0.1,0.3-0.2,0.4c-0.1,0.1-0.3,0.2-0.4,0.1c-0.2-0.1-0.3-0.2-0.4-0.4
				c0.1-0.2,0.2-0.4,0.5-0.5C107.5,53.8,107.8,53.9,107.9,54.1"/>
			<path class="st3" d="M161.2,54.1c0.1,0.1,0,0.2,0,0.3c-0.2,0.2-0.4,0.4-0.6,0.3c-0.1-0.2-0.3-0.3-0.3-0.5
				C160.5,53.9,161,53.8,161.2,54.1"/>
			<path class="st3" d="M111.9,54.5c-0.1,0.2-0.1,0.4-0.4,0.4c-0.2,0-0.3-0.2-0.4-0.3c0-0.2,0-0.5,0.2-0.6
				C111.6,53.9,111.9,54.2,111.9,54.5"/>
			<path class="st3" d="M109.5,54.5c0.1,0.3-0.1,0.4-0.3,0.6c-0.3,0.1-0.6-0.1-0.7-0.4c0-0.2,0.2-0.5,0.5-0.6
				C109.2,54.2,109.4,54.4,109.5,54.5"/>
			<path class="st3" d="M162.8,54.5c0.1,0.3,0,0.5-0.3,0.6c-0.3,0.1-0.6-0.2-0.7-0.4c0.1-0.2,0.2-0.5,0.5-0.5
				C162.6,54.2,162.7,54.3,162.8,54.5"/>
			<path class="st3" d="M110.7,54.6c0.1,0.2-0.1,0.3-0.1,0.4c-0.1,0-0.2,0.2-0.4,0.1c-0.1-0.1-0.3-0.2-0.3-0.4
				c0-0.3,0.2-0.4,0.3-0.5C110.5,54.2,110.6,54.4,110.7,54.6"/>
			<path class="st3" d="M177.6,54.8c-0.1,0.2-0.2,0.3-0.4,0.4c-0.2,0.1-0.3-0.1-0.5-0.2c-0.1-0.1-0.1-0.3,0-0.5
				C176.9,54.1,177.6,54.3,177.6,54.8"/>
			<path class="st3" d="M179.5,54.9c-0.1,0.3-0.4,0.4-0.6,0.4c-0.2-0.1-0.5-0.3-0.3-0.6c0.1-0.1,0.2-0.2,0.3-0.2
				C179.2,54.4,179.4,54.6,179.5,54.9"/>
			<path class="st3" d="M167.5,55.1c0.1,0.3-0.2,0.4-0.4,0.6c-0.2,0-0.3-0.1-0.5-0.2c-0.1-0.3,0.1-0.5,0.4-0.7
				C167.2,54.8,167.3,54.9,167.5,55.1"/>
			<path class="st3" d="M160.5,55.4c0.1,0.1,0.1,0.2,0,0.3c-0.1,0.1-0.4,0.4-0.6,0.2c-0.2-0.1-0.3-0.3-0.3-0.5
				C159.9,55.1,160.4,55.1,160.5,55.4"/>
			<path class="st3" d="M162,55.6c0,0.2,0,0.3-0.2,0.4c-0.2,0.2-0.4,0-0.6-0.1c-0.1-0.1-0.1-0.3,0-0.4c0.1-0.1,0.2-0.2,0.3-0.2
				C161.7,55.4,161.9,55.4,162,55.6"/>
			<path class="st3" d="M119,55.6c0.2,0.2,0,0.3-0.1,0.5c-0.1,0.2-0.4,0.3-0.6,0.1c-0.3-0.1-0.2-0.4-0.2-0.6
				c0.2-0.1,0.2-0.2,0.4-0.2C118.7,55.4,118.8,55.5,119,55.6"/>
			<path class="st3" d="M170.2,55.7c0,0.3-0.2,0.4-0.4,0.4c-0.3,0.1-0.5-0.1-0.6-0.3c0-0.2,0.2-0.3,0.2-0.4
				C169.8,55.2,170,55.5,170.2,55.7"/>
			<path class="st3" d="M168.8,55.7c0.1,0.3-0.2,0.4-0.3,0.5c-0.2,0.1-0.4,0.1-0.6-0.1c-0.1-0.1-0.1-0.2-0.1-0.4
				c0.2-0.1,0.2-0.3,0.4-0.3C168.5,55.4,168.7,55.5,168.8,55.7"/>
			<path class="st3" d="M180.3,56c0,0.4-0.4,0.2-0.6,0.3c-1.1,0.6-2.4,0.2-3.4-0.2c0.1-0.3,0.5-0.2,0.7-0.3
				C178,55,179.1,55.9,180.3,56L180.3,56z"/>
			<path class="st3" d="M111,55.7l-0.1,0.2c-0.9,0.6-2.2,0.9-3.3,0.6l-0.1-0.2C108.4,55.6,109.7,55.4,111,55.7L111,55.7z"/>
			<path class="st3" d="M172.8,55.9c0,0.2-0.1,0.4-0.3,0.5c-0.3,0.1-0.6,0-0.7-0.3c-0.1-0.2,0.1-0.4,0.3-0.5
				C172.4,55.6,172.7,55.6,172.8,55.9"/>
			<path class="st3" d="M115.5,56c-0.1,0.2-0.1,0.4-0.3,0.5c-0.3,0.1-0.6-0.1-0.6-0.3c-0.1-0.3,0.1-0.4,0.3-0.5
				C115.1,55.5,115.3,55.7,115.5,56"/>
			<path class="st3" d="M113.7,56.1c0.1,0.2-0.1,0.3-0.1,0.4c-0.1,0.2-0.4,0.1-0.5,0.1c-0.2-0.2-0.4-0.3-0.3-0.6
				c0.2-0.1,0.2-0.2,0.4-0.3C113.4,55.7,113.6,55.8,113.7,56.1"/>
			<path class="st3" d="M174.6,56.7c0,0.2-0.2,0.4-0.4,0.5c-0.2,0-0.4-0.1-0.5-0.3c-0.1-0.2-0.1-0.4,0.1-0.5
				c0.1-0.1,0.2-0.1,0.3-0.1C174.3,56.3,174.5,56.5,174.6,56.7"/>
			<path class="st3" d="M111.8,56.4c0.1,0.2-0.1,0.3-0.1,0.4c-0.1,0.4-0.4,0.7-0.6,1.1c-0.5,0.6-1.2,0.6-1.8,0.8l-0.1-0.2
				C109.9,57.5,110.7,56.8,111.8,56.4L111.8,56.4z"/>
			<path class="st3" d="M173.3,57c0.1,0.3-0.2,0.4-0.4,0.5c-0.2,0-0.4-0.1-0.5-0.3c-0.1-0.3,0.2-0.4,0.3-0.5
				C173,56.6,173.2,56.8,173.3,57"/>
			<path class="st3" d="M114.7,57c0,0.1,0,0.1,0.1,0.1c0,0.3-0.2,0.4-0.4,0.5c-0.2,0-0.4-0.1-0.6-0.3c-0.1-0.2,0-0.5,0.3-0.6
				C114.4,56.7,114.7,56.7,114.7,57"/>
			<path class="st3" d="M178,57.7c0.3,0,0.3-0.3,0.6-0.4c0.3-0.1,0.5,0.1,0.6,0.3c0.1,0.3-0.1,0.5-0.3,0.6c-0.2,0.1-0.6-0.2-0.5,0.2
				c0.2,0.1,0.3,0.3,0.4,0.5c-0.1,0.1-0.2,0.1-0.3,0c-0.7-0.3-1.5-0.8-1.8-1.6c-0.1-0.2-0.6-0.4-0.3-0.6
				C176.9,56.7,177.5,57.3,178,57.7"/>
			<path class="st3" d="M180.4,56.9c0.1,0.1,0.1,0.4,0,0.5c-0.1,0.3-0.5,0.2-0.7,0.1c-0.1-0.1-0.3-0.3-0.2-0.5
				c0.1-0.2,0.2-0.3,0.4-0.3C180,56.7,180.2,56.8,180.4,56.9"/>
			<path class="st3" d="M171.2,58.3c0.2,0.3,0.5,0.7,0.6,1c-0.1,0.1-0.2,0.1-0.2,0.1c-0.9-0.5-2-1-2.3-2c-0.1-0.1-0.3-0.2-0.3-0.4
				c0.7-0.1,1.3,0.4,1.7,0.7C170.9,57.9,171.1,58,171.2,58.3"/>
			<path class="st3" d="M113.3,57.3c0.1,0.2-0.1,0.4-0.2,0.5c-0.3,0.1-0.4-0.1-0.6-0.2c-0.2-0.3,0.2-0.5,0.4-0.6
				C113.1,57,113.2,57.2,113.3,57.3"/>
			<path class="st3" d="M174.4,57.9c0,0.2-0.2,0.3-0.3,0.4c-0.2,0-0.4,0.1-0.6-0.1c0-0.1-0.2-0.3,0-0.5
				C173.8,57.4,174.2,57.7,174.4,57.9"/>
			<path class="st3" d="M180.7,58.3c0.1,0.3-0.2,0.5-0.4,0.6c-0.3,0.1-0.5-0.1-0.6-0.2c-0.1-0.2,0-0.3,0-0.5
				c0.2-0.2,0.4-0.3,0.7-0.2C180.5,58.1,180.6,58.2,180.7,58.3"/>
			<path class="st3" d="M163.1,61.8c0,0.3-0.6,0.2-0.8,0.5c-0.8,0.4-1.7,0.4-2.7,0.4v-0.2C160.6,61.7,161.9,61.5,163.1,61.8"/>
			<path class="st3" d="M126.2,62.9c0,0.2-0.2,0.4-0.4,0.4c-0.2,0-0.4-0.1-0.4-0.3c-0.1-0.3,0.2-0.4,0.3-0.6
				C126,62.5,126.2,62.7,126.2,62.9"/>
			<path class="st3" d="M162.7,63.2c-0.1,0.2-0.1,0.5-0.4,0.6c-0.2,0.1-0.4-0.1-0.6-0.2c-0.1-0.1,0-0.3-0.1-0.4
				C161.9,62.7,162.5,62.7,162.7,63.2"/>
			<path class="st3" d="M167.7,63.3c-0.6,0.4-1.3,0.9-2.2,0.9l-1.4,0l-0.1-0.1c0.8-1,2.4-1,3.7-0.9V63.3z"/>
			<path class="st3" d="M119.3,63.9c0,0.2-0.1,0.4-0.3,0.5c-0.3,0.1-0.4-0.1-0.5-0.2c-0.1-0.2,0-0.5,0.2-0.6
				C118.9,63.4,119.2,63.7,119.3,63.9"/>
			<path class="st3" d="M120.5,64.2c0.1,0.1,0,0.2-0.1,0.3c-0.2,0.1-0.4,0.1-0.5,0c-0.2-0.1-0.2-0.3-0.2-0.4
				c0.1-0.2,0.2-0.1,0.3-0.2C120.3,63.9,120.5,64,120.5,64.2"/>
			<path class="st3" d="M110.8,66.7c-0.3,0.3-0.7-0.1-0.9-0.2c-0.9-0.5-0.9-1.5-1.7-2.1c0.1-0.3,0.3,0,0.5,0
				c0.2,0.1,0.4,0.2,0.5,0.3C110.1,65.1,110.3,66,110.8,66.7"/>
			<path class="st3" d="M184.6,56.8c-0.4-0.7-1.1-1-1.9-1c-0.7,0.1-1.1,0.5-1.4,1c-0.2,0.6,0.1,1.1,0.5,1.4c0.2,0.1,0.4,0.1,0.5-0.1
				c0.1-0.3-0.2-0.3-0.3-0.6c-0.1-0.4,0-0.7,0.3-0.9c0.3-0.3,0.7-0.1,1-0.1c0.3,0.2,0.6,0.4,0.8,0.7c0.2,0.4,0.2,0.9,0,1.4
				c-0.3,0.6-0.9,1.1-1.6,1.3c-2.1,0.3-25.2,0.2-25.2,0.2c-2.7,0.3-5.8-0.5-8.1,0.9c-1.1,0.5-1.6,1.7-1.9,2.7c-0.7,0.6-1.4,1.3-2,2
				l-0.1-0.1c0.1-0.6,0.4-1.1,0.5-1.8c0.4-0.5,0.4-1.2,0.7-1.8c1-1.6,1.9-3.1,3.4-4.2c0.6-0.8,1.7-0.7,2.7-0.7
				c1,0.5,2.3,0.6,3.5,0.5c0.1-0.1,0.1-0.1,0.1-0.2c-0.4-0.3-0.9-0.5-1.3-0.8c-1-0.5-2,0.2-3,0.1c-0.1-0.1-0.1-0.1-0.1-0.2
				c1-0.7,2.1-1.2,3.1-1.7c0.9-0.5,1.8-0.7,2.8-1.1c0.4,0,0.7-0.3,1.1-0.1l1.3-0.4c0.1,0,0.1,0.1,0.2,0.1c1.1-0.4,2.6,0,3.9-0.1
				l0.2,0.2l1.2,0.3c0.5,0.1,0.7,0.6,1.1,0.6c0.3-0.4-0.3-0.5-0.4-0.7c0.6-0.1,1.2,0,1.7,0.3l-0.3,0.3c-0.2,0.3,0.1,0.5,0.3,0.6
				c0.2,0.1,0.3-0.1,0.4-0.1c0.3-0.2,0-0.5,0.1-0.7c1.9,0.3,3.7,0.8,5.4,1.5c0.5,0.2,0.9,0.5,1.5,0.5c-0.5-0.5-1.3-0.7-1.9-1
				c-0.4-0.3-1-0.3-1.4-0.6c0.1-0.1,0.3-0.1,0.3-0.2c0.9-0.1,1.6-0.7,2.2-1.4c0-0.2,0.3-0.1,0.3-0.3c-0.2-0.3-0.6,0.1-0.9,0.1
				c-1.1,0.2-1.5,1.5-2.6,1.7c-1.3-0.3-2.6-0.6-3.9-0.9c-0.6-0.1-1.3-0.2-1.9-0.4l-1.4-0.1h-2.6c0-0.1-0.1-0.1-0.1-0.2
				c0.9-0.2,1.7-0.8,2.6-1l6.8-3.1c0.7-0.6,1.3-1.4,1.9-2.1c0-0.2-0.1-0.4-0.3-0.5c-0.2-0.1-0.4-0.1-0.5,0.1c-0.3,0.2,0,0.5,0,0.8
				c-0.3,0.4-0.8,0.8-1.2,1c-0.1,0-7,3.1-7,3.1c-1,0.4-2,0.9-3.1,1.1l-1.5,0.2c-0.1,0.3-0.4,0.5-0.6,0.6c-0.4,0.1-0.7,0.3-1.2,0.3
				c-3.3,1.3-6.7,2.6-9.3,5.2c0.2-0.3,0.2-0.7,0.3-1.1c-0.1-0.4,0-0.8-0.3-1.1c-0.1-0.1-0.2-0.6-0.2-0.7l-0.4,0.2
				c-0.2,0.6-0.4,1.6-0.2,2.2c0.1,0.5,0.5,1,0.1,1.4c-1.2,1.5-1.9,3.3-2.7,4.9c-0.3-0.1-0.5-0.3-0.6-0.6c0.9-1.1,1.5-2.3,1.8-3.7
				c0.2-0.1,0.1-0.5,0.2-0.6c-0.1-0.4,0.2-0.8,0-1.1c0.2-0.6-0.7-1.1-0.2-1.4l-0.5,0.2c-1.1,1.4,0.6,3.6-0.7,4.9v0.1
				c-0.4,0.5-0.5,0.9-1,1.2c-0.6-0.3-0.8-0.9-1.2-1.5c-0.6-0.5-0.6-1.6-0.2-2.4c0.2-0.7-0.2-1.4-0.2-2l-0.3-0.2
				c-0.6,0.8-0.8,2-0.4,3c0.3,0.5,0.3,1.1,0.7,1.5c0.2,0.7,0.7,1.2,1.1,1.9c0.1,0.3-0.2,0.3-0.3,0.4c-0.3-0.2-0.2-0.6-0.5-0.8
				c-0.8-1.8-1.9-3.2-3.2-4.7c-0.1-0.2-0.3-0.4-0.2-0.7c0.5-0.5,0.6-1.4,0.3-1.9c0-0.1-0.2-0.3-0.2-0.4l-0.4-0.3
				c0.1,0.9-0.5,1.7-0.3,2.6v0.1c-2.6-2-5.5-3.7-8.4-5.1l-0.2,0.6c0.7,0.2,2.7,1.4,2.7,1.4c0.9,0.3,1.7,0.9,2.5,1.4
				c3.4,1.9,5.7,5.1,7.3,8.6c0,0.3,0.3,0.6,0.1,0.9c-0.5-0.8-1.3-1.3-1.9-1.9c-0.2-1.2-0.9-2.3-1.9-2.8c-0.4-0.6-1.2-0.6-1.8-0.8
				l-9.2-0.1c-7.5-0.1-14.3,0.2-21.8,0.1c-1-0.1-2.3-0.5-2.6-1.6c-0.2-0.4-0.2-1,0-1.4c0.3-0.5,0.8-0.6,1.3-0.7
				c0.4,0.1,0.7,0.4,0.9,0.7c0,0.3-0.3,0.6-0.4,0.9c0,0.1,0.1,0.3,0.3,0.2c0.3-0.1,0.6-0.5,0.7-0.8c0-0.2,0.1-0.4-0.1-0.6
				c-0.2-0.5-0.7-0.9-1.2-1c-0.6-0.1-1.3,0.1-1.7,0.6c-0.6,0.5-0.6,1.4-0.4,2.1c0.4,1.1,1.6,1.9,2.7,2l24.6,0.1
				c2.4,0.1,5.1-0.3,7.5,0.2c0.9,0.3,1.8,0.9,2.1,1.9c0,0.1-0.1,0-0.2,0c-2-1.3-4.6-1.8-7.2-1.5c-1-0.1-1.9,0.3-2.8,0.6
				c-0.5,0.1-0.9-0.1-1.2-0.4c-0.9-0.8-2.5-0.8-3.7-0.5c0,0.1,0,0.2,0,0.2c1.2-0.1,2,1,3.1,1.1c0.3,0.1,0.5-0.2,0.7,0
				c-1.2,0.6-2.3,1.2-3.5,1.6c-0.4-0.1-0.6-0.4-0.9-0.6c-0.5-0.5-1.4-0.3-2-0.4c-0.2,0.1-0.4-0.1-0.6,0c0.2,0.4,0.7,0.6,1.1,0.8
				c0.6,0.3,1.4,0,1.9,0.4c-0.2,0.2-0.4,0.2-0.5,0.4c-1.2,0.5-2.2,1.5-3.5,1.5c-1.4,0.2-2.8-0.3-3.7-1.2c-0.4-1-1.4-1.5-2.6-1.5
				c-0.1,0.1-0.2,0.1-0.2,0.2c0.6,0.3,1,1,1.5,1.4c0.4,0.4,1,0,1.4,0.5c0.5,0.3,1.1,0.6,1.6,0.7c0.4,0.2,0.9,0.3,1.3,0.4l-0.2,0.1
				c-2.3,0.8-5,0.8-7.5,0.7c-0.8,0-1.5-0.3-2.3-0.2c0.1,0.2,0.4,0.3,0.6,0.4c-0.2,0.1-0.4,0.2-0.7,0.2c-0.3,0.1-0.7,0.1-1,0.3
				c-0.4,0-0.8,0.1-1.1,0.3c-0.4,0.5-0.9,0.9-1.4,1.2c0,0.1,0,0.3,0.1,0.3c0.5-0.2,1.1-0.1,1.6-0.3c0.8-0.1,1.3-1,2-1.4
				c0.7-0.6,1.7-0.4,2.6-0.3c0.5,0.1-0.1,0.3,0.1,0.7c0.2,0.2,0.4,0.4,0.7,0.3c0.1-0.1,0.1-0.1,0.2-0.1c0.2-0.2,0.1-0.4,0-0.6
				c0.4-0.2,0.8,0,1.2-0.1c1,0,1.9-0.2,2.9-0.3c0.2,0,0.3-0.2,0.5,0c-0.1,0.2-0.3,0.2-0.2,0.5c0.1,0.2,0.3,0.3,0.5,0.4
				c0.3-0.1,0.5-0.3,0.4-0.6c-0.1-0.2-0.3-0.2-0.4-0.3c0.5-0.3,1.1-0.3,1.7-0.6c0.4-0.1,0.7-0.2,1.1-0.4c0.3,0,0.6-0.3,0.9-0.2
				c-0.1,0.4-0.3,0.8-0.5,1.2c-0.4,1.4-0.7,3.1,0,4.4c0.1,0,0.1,0,0.2-0.1c-0.5-1.4-0.2-2.9,0.2-4.2c0.4-2.2,2.6-2.8,4.2-3.6
				l0.1,0.1c-0.4,1.1-1.1,2.2-1,3.5c0.1,0.2-0.1,0.5,0,0.6c0.4-0.2,0.7-0.7,0.9-1.2c0.2-1.1-0.5-2.6,0.7-3.4c2.1-0.8,4-1.9,6.4-1.9
				c0.1,0.1,0.3-0.1,0.3,0.1c-0.5,0.6-1.2,1.1-1.5,1.8c-0.8,1.1-0.8,3-0.4,4.4c0.2,0.8-0.5,1.2-0.8,1.8c-0.2,0.2-0.2,0.6-0.3,0.8
				l0.5,0.1c0.4-0.5,0.8-1,0.9-1.7c0,0.3,0.3,0.5,0.5,0.5c0.2-0.3-0.2-0.5-0.2-0.8c0.4-0.2,0.6,0.3,0.9,0.4c0.5,0.1,1,0.4,1.5,0.4
				l0.2-0.2c-0.6-0.9-1.7-1-2.6-1.1c-0.5-0.8-0.5-1.9-0.5-2.9c0.1-0.5,0.2-1.1,0.5-1.6c0.1-0.4,0.5-0.7,0.7-1c0.5-0.4,1-0.7,1.6-0.9
				h0.1c0,0.1,0,0.1,0,0.1c-0.7,0.5-0.8,1.3-1.2,1.9c-0.4,0.6-0.6,1.5-0.2,2.2c0.2,0.3,0.1,0.8,0.4,1.1c0.3-0.5,0.4-1,0.5-1.6
				c-0.1-0.8-0.6-1.6-0.1-2.4c0.3-0.6,0.8-0.9,1.4-1.1c1.4-0.1,2.6,0.6,3.8,1.1c0.3,0.2,0.7,0.3,0.7,0.7c0,0.7-0.4,1.4-0.9,1.7
				c-0.7,0.4-1.7,0.5-2.3,0c-0.4-0.4-0.5-1-0.4-1.6c0.3-0.3,0.7-0.6,1.1-0.4c0.3,0.1,0.5,0.4,0.8,0.2c0.1-0.1,0.2-0.3,0.1-0.4
				c-0.3-0.2-0.4-0.5-0.8-0.6c-0.5-0.1-1.1-0.1-1.4,0.3c-0.5,0.5-0.7,1.1-0.6,1.8c0.2,0.8,0.8,1.4,1.6,1.6c1.2,0.3,2.4-0.1,3.1-1.1
				c0.3-0.3,0.4-0.7,0.6-1.1c1.2,0.7,2.1,2,2.6,3.4c0,0.4,0.1,0.9,0,1.3l0.9,0.1c-0.1-0.2,0-0.4,0.1-0.6c0.3-1.7,1.4-3.1,2.6-4.2
				c0.4-0.3,0.3,0.3,0.4,0.5c0.4,1,1.3,1.7,2.2,1.9c1.1,0.2,2.1-0.1,2.7-0.9c0.3-0.6,0.7-1.5,0.2-2.1c-0.4-0.4-0.8-0.7-1.4-0.7
				c-0.7,0-1.1,0.5-1.4,0.9c0,0.2,0,0.4,0.2,0.5c0.1,0,0.3,0,0.4-0.1c0.1-0.4,0.4-0.6,0.7-0.8c0.3-0.2,0.6,0,0.8,0.2
				c0.3,0.2,0.3,0.6,0.4,1c-0.1,0.5-0.4,1-0.8,1.2c-0.7,0.4-1.8,0.2-2.4-0.2c-0.3-0.3-0.5-0.7-0.7-1.1c-0.1-0.4-0.2-0.8,0-1.2
				c1.1-0.7,2.3-1.1,3.6-1.3c0.5,0.1,1,0.5,1.3,0.8c1.2,1.2-0.3,2.9,0.6,4.2c0.3-0.1,0.3-0.5,0.4-0.7c0.4-0.9-0.1-1.9-0.3-2.8
				c-0.3-0.6-0.5-1-1-1.5c0.1-0.1,0.2-0.1,0.3-0.1c0.5,0.4,1.1,0.8,1.5,1.3c0.7,1.2,1.1,2.6,1,4.2c-0.2,0.8-1,1.1-1.6,1.4
				c-0.3,0.2-0.6,0.5-0.7,0.8c0.3,0.2,0.7,0,1-0.1c0.5-0.2,0.8-0.8,1.1-1.1c0,0,0,0.1,0,0.2c0,0.3-0.1,0.7,0.1,0.7
				c0.1-0.4,0.2-0.9,0.2-1.3c0.3,0.4,0.4,0.8,0.5,1.3c0.2,0.5,0.6,1.1,1.2,1.1c0.2-0.2,0-0.5-0.1-0.7c-0.1-0.6-0.6-1-1-1.4
				c-0.9-1.2-0.5-3.1-1.2-4.5c-0.3-0.7-0.8-1.3-1.4-1.9l0.1-0.1c1.2,0,2.3,0.4,3.4,0.6c1.4,0.7,3.4,0.5,4.1,2.3c0.3,1,0.7,2,1.4,2.8
				l0.1-0.1c0.2-0.3,0.2-0.7,0-0.9c-0.2-1.3-1.3-1.6-1.9-2.7l0.1-0.1c0.6,0.2,1.2,0.3,1.8,0.6c2,0.6,3.4,2.5,3.7,4.6
				c0,1.6-0.3,3-0.9,4.4c-0.1,0.2-0.4,0.4-0.2,0.6c0.3-0.2,0.3-0.5,0.5-0.8c0.8-1.4,1.3-3.3,0.8-5.1c0-0.3-0.4-0.6-0.2-0.9
				c0.1,0.2,0.3,0.2,0.4,0.2c0.2-0.1,0.4-0.1,0.5-0.3c0-0.2,0.1-0.3,0-0.5c-0.2-0.2-0.5-0.2-0.7-0.2c-0.1,0.2-0.3,0.4-0.3,0.6
				c-0.3-0.4-0.5-1-0.9-1.4l0.1-0.1c1.1,0.4,2.2,0.9,3.3,1.2c0.3,0.2,0.5,0.3,0.9,0.3c1,0.4,2.1,0.5,3.1,0.8
				c0.8-0.1,1.4,0.3,2.2,0.1v-0.1l0,0c-0.3-0.4-0.9,0-1.2-0.3c-1.7-0.2-3.4-0.6-5-1.2c0-0.1,0.1-0.1,0.2-0.1
				c0.3-0.1,0.4-0.4,0.4-0.6c-0.1-0.2-0.3-0.3-0.6-0.3c-0.2,0.1-0.4,0.3-0.4,0.4c0,0.2,0.2,0.4,0.4,0.5c-0.1,0.1-0.2,0-0.2,0
				c-0.8-0.4-1.5-0.7-2.3-1c-0.3-0.1-0.5-0.3-0.8-0.3c-0.6-0.3-1.2-0.6-1.7-0.8c-1.6-0.8-3.4-1.3-5.1-1.9c-0.4-0.1-0.7-0.2-1.1-0.3
				c-0.6-0.2-1.3-0.3-1.9-0.5c-2.2-0.5-5-0.6-6.9,0.6c-0.3-0.1-0.5,0.4-0.6,0.1c0.5-1.4,2.1-1.9,3.5-1.9c10.2-0.1,19.7-0.2,29.7-0.3
				c1.2,0,2.3-0.4,2.9-1.5C184.9,58.6,185,57.5,184.6,56.8 M144.4,66.2c-0.1,0.3-0.3,0.6-0.3,0.9l-0.1,0.1c0.1-0.4-0.3-0.6-0.2-1
				c-0.2-0.3-0.2-0.7-0.4-1c-0.2-0.4,0.2-0.6,0.4-0.9c0.4,0.2,0.5,0.5,0.7,0.8C144.7,65.5,144.4,65.8,144.4,66.2"/>
			<path class="st3" d="M171.8,64.6c0,0.1,0.2,0.1,0.1,0.2c-0.9,0.8-2.1,1-3.4,1.1c-0.1,0-0.2,0.1-0.3,0.1c-0.1-0.1-0.1-0.1-0.1-0.2
				C169.1,64.8,170.5,64.3,171.8,64.6"/>
			<path class="st3" d="M167.8,65c0.1,0.4-0.1,0.6-0.4,0.7c-0.3,0-0.4-0.2-0.6-0.4c-0.1-0.2,0.1-0.3,0.2-0.4
				C167.2,64.7,167.7,64.7,167.8,65"/>
			<path class="st3" d="M119.6,65.1c0.1,0.2,0,0.4-0.1,0.5c-0.1,0.1-0.3,0.2-0.5,0.1c-0.2,0-0.3-0.2-0.3-0.4c0-0.2,0.1-0.4,0.3-0.5
				C119.3,64.9,119.5,64.9,119.6,65.1"/>
			<path class="st3" d="M115.1,66.8v0.2c-0.6,0.1-1.2,0-1.6-0.4c-0.4-0.5-0.8-1-1.3-1.3c0-0.1-0.2-0.2,0-0.2
				C113.4,65,114.2,66.1,115.1,66.8"/>
			<path class="st3" d="M175.7,65.1c-0.6,0.9-1.1,1.9-2.1,2.3c-0.2,0-0.3,0.3-0.5,0.1c0.4-1,1.3-2,2.3-2.4
				C175.4,65,175.6,65,175.7,65.1"/>
			<path class="st3" d="M121.1,65.4c0,0.3-0.2,0.3-0.4,0.5c-0.2,0-0.3-0.1-0.4-0.3c-0.1-0.3,0.1-0.4,0.3-0.5
				C120.8,65,121,65.2,121.1,65.4"/>
			<path class="st3" d="M178.9,65.5c-0.2,0.3-0.1,0.8-0.4,1.2c-0.5,0.6-0.9,1.2-1.7,1.4c-0.1-0.3,0.2-0.5,0.3-0.7
				c0.4-0.8,0.9-1.6,1.7-2L178.9,65.5z"/>
			<path class="st3" d="M107.3,65.8c0.1,0.2,0.2,0.4,0,0.6c-0.2,0.1-0.4,0.2-0.6,0.1c-0.2-0.1-0.3-0.4-0.2-0.6
				C106.6,65.6,107.1,65.5,107.3,65.8"/>
			<path class="st3" d="M105.8,66.1c0,0.1,0.1,0.2,0.1,0.4c-0.1,0.1-0.2,0.3-0.4,0.3c-0.3,0.1-0.5-0.1-0.6-0.3
				c0-0.2,0.1-0.4,0.3-0.5C105.4,65.8,105.7,65.9,105.8,66.1"/>
			<path class="st3" d="M108.8,66.2c0.1,0.2,0.1,0.6-0.2,0.6c-0.4,0.2-0.6-0.1-0.8-0.3c0-0.2,0.1-0.4,0.3-0.5
				C108.4,66,108.6,66,108.8,66.2"/>
			<path class="st3" d="M113,66.6c0,0.2,0,0.4-0.2,0.5c-0.1,0.1-0.4,0.1-0.5,0.1c-0.1-0.2-0.3-0.3-0.2-0.5c0.1-0.1,0.2-0.2,0.4-0.3
				C112.6,66.4,112.9,66.3,113,66.6"/>
			<path class="st3" d="M181.3,66.7c-0.1,0.2-0.2,0.4-0.4,0.4c-0.2,0-0.5-0.1-0.6-0.3c-0.1-0.3,0.1-0.4,0.3-0.5
				C180.9,66.3,181.3,66.4,181.3,66.7"/>
			<path class="st3" d="M176.7,66.9c0,0.2-0.2,0.4-0.3,0.4c-0.4,0.2-0.7-0.1-0.8-0.4c0.1-0.2,0.2-0.4,0.4-0.5
				C176.4,66.4,176.5,66.6,176.7,66.9"/>
			<path class="st3" d="M179.8,66.8c0,0.2-0.1,0.4-0.2,0.4c-0.2,0.1-0.5,0.1-0.6-0.1c-0.2-0.2-0.1-0.4,0.1-0.5
				C179.3,66.5,179.7,66.5,179.8,66.8"/>
			<path class="st3" d="M106.6,67.2c0.1,0.3,0,0.5-0.3,0.6c-0.2,0-0.5-0.1-0.6-0.4c0-0.2,0.1-0.5,0.3-0.5
				C106.3,66.9,106.5,67.1,106.6,67.2"/>
			<path class="st3" d="M175.4,67.5c0.1,0.3-0.1,0.5-0.4,0.7c-0.2,0.1-0.3-0.1-0.5-0.2c-0.1-0.1-0.2-0.4,0-0.5
				C174.8,67.1,175.3,67.2,175.4,67.5"/>
			<path class="st3" d="M120.2,67.8c0.1,0.3-0.2,0.3-0.3,0.5c-0.1,0.1-0.3,0.1-0.4,0c-0.1-0.2-0.3-0.3-0.2-0.5
				c0.1-0.1,0.2-0.2,0.3-0.3C120,67.4,120.1,67.6,120.2,67.8"/>
			<path class="st3" d="M180.9,68c0.1,0.2-0.1,0.3-0.1,0.4c-0.2,0.1-0.4,0.2-0.6,0.1c-0.2-0.1-0.2-0.3-0.2-0.6
				c0.2-0.1,0.2-0.2,0.4-0.3C180.5,67.6,180.8,67.7,180.9,68"/>
			<path class="st3" d="M179.3,68.1c0.1,0.3-0.2,0.5-0.4,0.5c-0.1,0-0.3-0.1-0.3,0.1c0.7,0.3,1.1,0.9,1.6,1.4v0.2
				c-0.9,0-1.8-0.3-2.5-1c-0.2-0.1-0.5-0.1-0.7-0.3c0.3-0.3,0.9-0.2,1.4-0.2c0.3-0.4-0.4-0.6,0-0.9c0.2,0,0.3-0.2,0.5-0.1
				C179.1,67.8,179.2,67.9,179.3,68.1"/>
			<path class="st3" d="M168.9,68.1c0.1,0.1-0.1,0.3-0.1,0.4c-0.2,0.2-0.4,0.2-0.6,0.1c-0.1-0.2-0.3-0.3-0.3-0.6
				C168.2,67.6,168.9,67.7,168.9,68.1"/>
			<path class="st3" d="M112.3,69c-0.1,0.2-0.2,0.4-0.4,0.4c-0.2,0-0.4-0.1-0.5-0.3c0-0.2,0.1-0.3,0.1-0.4
				C111.9,68.4,112.4,68.6,112.3,69"/>
			<path class="st3" d="M114.4,68.6c0,0.4-0.4,0.6-0.5,0.9c-0.4,0.8-1.1,1.6-2,1.7c-0.1-0.2,0.3-0.5,0.4-0.7
				c0.4-0.9,1.2-1.3,1.9-1.9H114.4z"/>
			<path class="st3" d="M168.3,69c0,0.3-0.2,0.5-0.4,0.6c-0.2,0.1-0.4-0.1-0.5-0.2c-0.2-0.2-0.1-0.4,0-0.6
				C167.7,68.5,168.1,68.7,168.3,69"/>
			<path class="st3" d="M169.9,69.2c0,0.3-0.2,0.5-0.5,0.6c-0.1-0.1-0.2,0-0.3-0.1c-0.2-0.1-0.3-0.3-0.3-0.5
				c0.1-0.1,0.2-0.3,0.4-0.4C169.4,68.8,169.8,68.9,169.9,69.2"/>
			<path class="st3" d="M118.3,69.2c0,0.3-0.2,0.4-0.4,0.5c-0.2,0-0.4-0.1-0.5-0.3c-0.1-0.2,0.2-0.4,0.3-0.5
				C118.1,68.8,118.1,69,118.3,69.2"/>
			<path class="st3" d="M120.1,69.3c-0.1,0.2-0.2,0.4-0.5,0.4c-0.2-0.1-0.4-0.1-0.5-0.3c0-0.3,0.2-0.4,0.4-0.5
				C119.7,68.9,120,69,120.1,69.3"/>
			<path class="st3" d="M175.3,71c0.1,0.1,0.4,0.2,0.3,0.4c-0.4,0.2-0.7-0.3-1.1-0.4c-0.6-0.6-1.1-1.3-1.3-2
				c0.2-0.2,0.5,0.1,0.7,0.1C174.5,69.7,175,70.3,175.3,71"/>
			<path class="st3" d="M176.3,69.3c0.1,0.2,0,0.4-0.1,0.6c-0.2,0.3-0.5,0.2-0.7,0.2c-0.1-0.2-0.4-0.4-0.2-0.6
				c0.1-0.2,0.3-0.3,0.5-0.3C176,69,176.1,69.2,176.3,69.3"/>
			<path class="st3" d="M122.4,69.9c0,0.2,0.1,0.5-0.2,0.6c-0.2,0.1-0.5,0-0.6-0.3c-0.1-0.3,0.2-0.4,0.3-0.5
				C122.1,69.7,122.2,69.8,122.4,69.9"/>
			<path class="st3" d="M169.8,71.6c0.4,0.5,0.6,1.1,0.7,1.8c-0.1,0.2,0.1,0.4,0,0.5h-0.1c-1.1-0.8-1.4-2-1.8-3.1
				c-0.1-0.1-0.1-0.2-0.1-0.3c0.3-0.2,0.4,0.2,0.7,0.3L169.8,71.6z"/>
			<path class="st3" d="M125.7,70.7C125.6,70.7,125.7,70.8,125.7,70.7c-1,0.8-2.4,1.2-3.6,0.5c0-0.1,0-0.2,0.1-0.2
				c0.7-0.2,1.4-0.6,2.2-0.5L125.7,70.7z"/>
			<path class="st3" d="M119.9,70.8c-0.9,0.5-1.6,1.6-2.7,1.8c-0.2,0.1-0.3,0.4-0.6,0.2c0.5-1.4,1.9-2.1,3.3-2.2V70.8z"/>
			<path class="st3" d="M168.3,72c0.1,0.2,0,0.5-0.2,0.5c-0.1,0.1-0.4,0.1-0.5,0c-0.2-0.1-0.2-0.3-0.2-0.5c0.1-0.2,0.3-0.2,0.4-0.3
				C168,71.8,168.2,71.8,168.3,72"/>
			<path class="st3" d="M166.2,72.1c-0.2,0.4-0.6,0.6-0.9,0.7c-0.9,0.3-1.6-0.1-2.4-0.3c0-0.2,0.3-0.1,0.4-0.3
				c0.8-0.2,1.7-0.4,2.6-0.1C166,72,166.2,72,166.2,72.1"/>
			<path class="st3" d="M119.9,72.8c-0.1,0.1-0.1,0.3-0.3,0.4c-0.2,0.1-0.4,0-0.5-0.1c-0.1-0.2-0.2-0.3-0.1-0.5
				c0.1-0.2,0.3-0.2,0.4-0.3C119.6,72.4,119.9,72.6,119.9,72.8"/>
			<path class="st3" d="M121.4,73.1c-0.1,0.2-0.2,0.4-0.4,0.5c-0.2,0.1-0.4-0.1-0.5-0.2c-0.1-0.2-0.2-0.3-0.1-0.5
				c0.1-0.1,0.2-0.2,0.4-0.2C121.1,72.6,121.3,72.9,121.4,73.1"/>
			<path class="st3" d="M167.8,73.3c0,0.2-0.1,0.3-0.2,0.5c-0.1,0.2-0.4,0.2-0.6,0.1c-0.2,0-0.2-0.2-0.3-0.4
				c-0.2-0.2,0.1-0.3,0.2-0.5C167.3,72.8,167.7,73,167.8,73.3"/>
			<path class="st3" d="M169,73.3c0,0.1,0.1,0.3,0,0.4c-0.2,0.1-0.3,0.5-0.6,0.3c-0.2,0.1-0.2-0.2-0.3-0.2c-0.1-0.3,0-0.6,0.3-0.7
				C168.7,73,168.8,73.2,169,73.3"/>
			<path class="st3" d="M120.5,74c0,0.3-0.1,0.5-0.3,0.7c-0.3,0.1-0.6,0.1-0.7-0.3c0-0.3,0-0.6,0.3-0.7
				C120.1,73.7,120.4,73.7,120.5,74"/>
			<path class="st3" d="M121.9,73.9c-0.1,0.7-0.2,1.6-0.9,2c-0.4,0.1-0.8,0.5-1.2,0.2V76C120.3,75.2,121.3,74.6,121.9,73.9"/>
			<path class="st3" d="M163.9,74.5c0.1,0.2-0.1,0.3-0.2,0.4c-0.2,0.2-0.4,0.1-0.6,0c-0.2-0.1-0.2-0.3-0.1-0.5
				c0.1-0.2,0.2-0.2,0.3-0.3C163.5,74.1,163.7,74.3,163.9,74.5"/>
			<path class="st3" d="M124.5,75.7c0.4,0.6,0.2,1.4,0.4,2c-0.4,0.1-0.6-0.4-0.9-0.7c-0.6-0.8-0.5-1.8-0.7-2.7
				c0.1-0.1,0.1-0.1,0.2-0.1c0.4,0.3,0.7,0.7,1,1.1C124.3,75.5,124.5,75.5,124.5,75.7"/>
			<path class="st3" d="M165.1,74.7c0,0.2-0.2,0.3-0.4,0.4c-0.2,0-0.3-0.1-0.5-0.2c-0.1-0.3,0.1-0.3,0.3-0.5
				C164.8,74.3,165.1,74.4,165.1,74.7"/>
			<path class="st3" d="M168.2,77c0,0.1,0,0.2-0.2,0.2h-0.1c-0.7-0.7-1.5-1.4-1.4-2.4l0.2,0C167.4,75.3,168.1,75.9,168.2,77"/>
			<path class="st3" d="M166.3,76.2c0,0.2-0.1,0.4-0.2,0.5c-0.3,0.1-0.7,0.1-0.8-0.3c0-0.3,0.3-0.4,0.4-0.5
				C166,75.7,166.2,75.9,166.3,76.2"/>
			<path class="st3" d="M164.6,76.7c-0.4,0.9-1.3,1.4-2,2.1c-0.1-0.1-0.1-0.3,0-0.4c0.3-1,1-1.9,1.9-2.3
				C164.9,76.2,164.5,76.5,164.6,76.7"/>
			<path class="st3" d="M166.5,77.5c0,0.2-0.2,0.3-0.4,0.5c-0.2,0-0.4-0.1-0.6-0.3c0-0.3,0.2-0.3,0.3-0.5
				C166.2,77.1,166.4,77.3,166.5,77.5"/>
			<path class="st3" d="M147.6,31.2c0.3,0,0.6,0.3,0.6,0.6c0,0.3-0.3,0.6-0.6,0.6h-7.5c-0.3,0-0.6-0.3-0.6-0.6
				c0-0.3,0.3-0.6,0.6-0.6H147.6z M142.3,32.3c0.7,0,0-0.9-0.4-0.9h-0.7c-0.7,0,0,0.9,0.4,0.9H142.3z M145.4,32.3
				c0.7,0,0-0.9-0.4-0.9h-0.7c-0.7,0,0,0.9,0.4,0.9H145.4z M147.7,31.4h-0.3c-0.7,0-0.1,0.9,0.3,0.9
				C148.2,32.3,148.2,31.4,147.7,31.4"/>
			<path class="st3" d="M147,39.8l1.4,0.6l1.4-0.6l-0.6,2.1l1.1-0.2l-0.4,1.3l0.4,1.2l-1-0.3l0.4,2.3l-1.4-0.5l-1.4,0.5l0.6-2.3
				l-1.1,0.3l0.3-1.3l-0.3-1.2l1.1,0.2L147,39.8z M149.1,43.6c0.3,0,0.3-0.4,0.3-0.8c0-0.9-0.7,0-1-0.8c-0.3,0.7-1,0.1-1,0.8
				c0,0.5,0,0.9,0.5,0.9H149.1z M147.7,42.8c0,0.3,0.4,0.1,0.8,0.1c0.3,0,0.8,0.2,0.8-0.1c0-0.5-0.4-0.3-0.8-0.3
				C148.1,42.5,147.7,42.3,147.7,42.8"/>
			<polygon class="st3" points="143.6,42.9 143.6,42.6 143.4,42.6 143.6,42.4 143.5,42.2 143.7,42.2 143.9,41.9 144,42.2 
				144.3,42.2 144.1,42.4 144.3,42.6 144.1,42.6 144.1,42.9 143.9,42.7 			"/>
			<polygon class="st3" points="142.5,44.3 142.5,44.1 142.3,44 142.5,43.8 142.3,43.6 142.6,43.6 142.7,43.4 142.9,43.6 
				143.1,43.6 143,43.8 143.2,44 143,44.1 143,44.3 142.7,44.2 			"/>
			<polygon class="st3" points="144.4,44.1 144.4,43.9 144.2,43.8 144.4,43.6 144.2,43.4 144.5,43.4 144.6,43.2 144.8,43.4 
				145,43.4 144.9,43.6 145.1,43.8 144.9,43.9 144.9,44.1 144.6,44 			"/>
			<polygon class="st3" points="144.6,45.2 144.6,45.1 144.5,45 144.6,44.9 144.5,44.8 144.7,44.8 144.8,44.7 144.8,44.8 145,44.8 
				144.9,44.9 145,45 144.9,45.1 144.9,45.2 144.8,45.1 			"/>
			<polygon class="st3" points="142.9,46.4 142.9,46 142.5,45.9 142.8,45.6 142.6,45.2 143,45.2 143.3,44.8 143.5,45.2 143.9,45.2 
				143.7,45.6 144.1,45.9 143.7,46 143.7,46.4 143.3,46.1 			"/>
			<polygon class="st3" points="143.8,22.4 144.7,24.6 146.9,23.9 145.8,26 147.7,27.3 145.4,27.7 145.5,30.1 143.8,28.5 142,30.1 
				142.2,27.7 139.8,27.3 141.8,26 140.6,23.9 142.9,24.6 			"/>
			<path class="st3" d="M135.6,71.6c-0.3,0.1-0.4,0.2-0.3,0.5l0.3,1.3c0.1,0.2,0.1,0.6-0.1,0.9c-0.2,0.3-0.6,0.5-0.9,0.5
				c-0.2,0.1-0.7,0.1-1.1,0c-0.3-0.1-0.4-0.2-0.5-0.7l-0.3-1.4c-0.1-0.4-0.2-0.3-0.5-0.3l0-0.1l1.7-0.4l0,0.1
				c-0.3,0.1-0.5,0.1-0.4,0.5l0.3,1.4c0.1,0.2,0.2,0.8,0.9,0.6c0.9-0.2,0.7-0.9,0.7-1.1l-0.3-1.3c-0.1-0.3-0.2-0.4-0.6-0.3l0-0.1
				l1.1-0.3L135.6,71.6z"/>
			<path class="st3" d="M138.1,71.8c-0.2-0.3-0.6-0.7-1.2-0.6c-0.3,0.1-0.5,0.2-0.5,0.5c0.1,0.2,0.2,0.3,0.6,0.4l0.8,0.1
				c0.2,0,0.6,0.2,0.7,0.7c0.1,0.4-0.1,1-1.1,1.2c-0.5,0.1-0.7,0-0.9,0c-0.1,0-0.1,0.1-0.1,0.2l-0.1,0l-0.2-1l0.1,0
				c0.2,0.4,0.6,0.8,1.2,0.7c0.6-0.1,0.5-0.6,0.5-0.6c-0.1-0.3-0.3-0.3-0.7-0.4l-0.4-0.1c-0.9-0.2-1-0.5-1.1-0.7
				c-0.1-0.3,0-0.9,0.9-1.1c0.4-0.1,0.7,0,0.8,0c0.1,0,0.1-0.1,0.1-0.2l0.2,0l0.2,0.9L138.1,71.8z"/>
			<path class="st3" d="M141.5,73.5l-1.8,0.2l0-0.1c0.4-0.1,0.5-0.1,0.5-0.4l-0.2-2.3c-0.4,0.1-0.9,0.1-0.9,0.8l-0.1,0l-0.1-0.9
				l3.1-0.3l0.1,0.9l-0.1,0c-0.2-0.7-0.7-0.7-1.1-0.6l0.2,2.3c0,0.4,0.2,0.4,0.5,0.3L141.5,73.5z"/>
			<path class="st3" d="M145.7,73.5l-1.1,0l-1-1.4l-0.1,0l0,0.8c0,0.3,0.1,0.4,0.4,0.4l0,0.1l-1.7,0l0-0.1c0.4,0,0.5,0,0.5-0.4
				l0-1.9c0-0.4-0.2-0.4-0.4-0.4l0-0.1l1.7,0c0.4,0,1.5,0.1,1.4,0.8c0,0.5-0.5,0.7-0.8,0.7l1,1.3c0.1,0.1,0.1,0.1,0.2,0.1
				L145.7,73.5z M143.5,72c0.7,0,0.9-0.1,1-0.6c0-0.4-0.2-0.6-0.6-0.6c-0.3,0-0.3,0-0.3,0.2L143.5,72z"/>
			<path class="st3" d="M149.1,73.9l-1.7-0.2l0-0.1c0.3,0,0.4,0,0.4-0.1c0-0.1-0.1-0.5-0.2-0.6l-1.2-0.1c-0.2,0.3-0.3,0.5-0.3,0.5
				c0,0.2,0.2,0.2,0.4,0.2l0,0.1l-1-0.1l0-0.1c0.3,0,0.4-0.1,0.6-0.4l1.4-2.2l0.1,0l0.9,2.4c0.2,0.5,0.2,0.6,0.5,0.7L149.1,73.9z
				 M147.7,72.7l-0.4-1.1l-0.6,1L147.7,72.7z"/>
			<path class="st3" d="M152.1,74.6l-2.9-0.5l0-0.1c0.3,0,0.4,0,0.5-0.2l0.4-2.1c0.1-0.3-0.2-0.3-0.4-0.4l0-0.1l1.8,0.3l0,0.1
				c-0.4-0.1-0.5-0.1-0.6,0.3l-0.4,2c0,0.2,0.1,0.3,0.4,0.3c0.8,0.1,1.1-0.2,1.4-0.6l0.1,0L152.1,74.6z"/>
			<path class="st3" d="M154.1,75l-1.8-0.4l0-0.1c0.3,0,0.5,0.1,0.5-0.2l0.4-2.1c0.1-0.3-0.2-0.3-0.4-0.4l0-0.1l1.8,0.4l0,0.1
				c-0.2,0-0.5-0.1-0.5,0.2l-0.4,2.1c-0.1,0.3,0.1,0.3,0.4,0.4L154.1,75z"/>
			<path class="st3" d="M157.7,75.5l-1.7-0.2l0-0.1c0.3,0,0.4,0,0.4-0.1c0-0.1-0.1-0.5-0.2-0.6l-1.2-0.1c-0.2,0.3-0.3,0.5-0.3,0.5
				c0,0.2,0.2,0.2,0.4,0.2l0,0.1l-1-0.1l0-0.1c0.3,0,0.4-0.1,0.6-0.5l1.4-2.2l0.1,0l0.9,2.4c0.2,0.5,0.3,0.6,0.5,0.7L157.7,75.5z
				 M156.2,74.3l-0.4-1.1l-0.6,1L156.2,74.3z"/>
			<path class="st3" d="M144.5,40.5c0-1-0.6-0.1-0.9-1c-0.2,0.7-0.9,0.1-0.9,0.9c0,0.3,0.1,0.5,0.2,0.6v0.3c0,0.1,0.1,0.1,0.1,0.1
				h1.1c0.1,0,0.1-0.1,0.1-0.1V41C144.4,40.9,144.5,40.7,144.5,40.5 M143.6,40.7c-0.3,0-0.7,0.2-0.7-0.2c0-0.5,0.3-0.4,0.6-0.4
				s0.8-0.1,0.8,0.4C144.3,40.9,143.9,40.7,143.6,40.7"/>
			<path class="st3" d="M153.5,53.3c0.3,0,0.5-0.2,0.5-0.4c0-0.2-0.2-0.4-0.5-0.4c-0.3,0-0.5,0.2-0.5,0.4
				C153.1,53.1,153.3,53.3,153.5,53.3"/>
			<path class="st3" d="M151.3,37.8c0,0-0.2,0.4-0.2,0.4c0,0.1,0.1,0.2,0.2,0.2c0.1,0,0.2-0.1,0.2-0.2
				C151.5,38.3,151.3,37.8,151.3,37.8"/>
			<path class="st3" d="M136,37.8c0,0-0.2,0.4-0.2,0.4c0,0.1,0.1,0.2,0.2,0.2s0.2-0.1,0.2-0.2C136.2,38.3,136,37.8,136,37.8"/>
			<path class="st3" d="M139.8,37.8c0,0-0.2,0.4-0.2,0.4c0,0.1,0.1,0.2,0.2,0.2c0.1,0,0.2-0.1,0.2-0.2
				C140.1,38.3,139.8,37.8,139.8,37.8"/>
			<path class="st3" d="M143.6,37.8c0,0-0.2,0.4-0.2,0.4c0,0.1,0.1,0.2,0.2,0.2c0.1,0,0.2-0.1,0.2-0.2
				C143.9,38.3,143.6,37.8,143.6,37.8"/>
			<path class="st3" d="M147.5,37.8c0,0-0.2,0.4-0.2,0.4c0,0.1,0.1,0.2,0.2,0.2c0.1,0,0.2-0.1,0.2-0.2
				C147.7,38.3,147.5,37.8,147.5,37.8"/>
			<path class="st3" d="M136,43.1c0,0,0.2,0.4,0.2,0.4c0,0.1-0.1,0.2-0.2,0.2c-0.1,0-0.2-0.1-0.2-0.2C135.8,43.5,136,43.1,136,43.1"
				/>
			<path class="st3" d="M136,48.2c0,0,0.2,0.4,0.2,0.4c0,0.1-0.1,0.2-0.2,0.2c-0.1,0-0.2-0.1-0.2-0.2C135.8,48.6,136,48.2,136,48.2"
				/>
			<path class="st3" d="M136.6,52.2c0,0,0.2,0.4,0.2,0.4c0,0.1-0.1,0.2-0.2,0.2c-0.1,0-0.2-0.1-0.2-0.2
				C136.4,52.7,136.6,52.2,136.6,52.2"/>
			<path class="st3" d="M139.8,54.4c0,0,0.2,0.4,0.2,0.4c0,0.1-0.1,0.2-0.2,0.2c-0.1,0-0.2-0.1-0.2-0.2
				C139.6,54.8,139.8,54.4,139.8,54.4"/>
			<path class="st3" d="M151.5,43.1c0,0-0.2,0.4-0.2,0.4c0,0.1,0.1,0.2,0.2,0.2c0.1,0,0.2-0.1,0.2-0.2
				C151.7,43.5,151.5,43.1,151.5,43.1"/>
			<path class="st3" d="M151.5,48.2c0,0-0.2,0.4-0.2,0.4c0,0.1,0.1,0.2,0.2,0.2c0.1,0,0.2-0.1,0.2-0.2
				C151.7,48.6,151.5,48.2,151.5,48.2"/>
			<path class="st3" d="M150.9,52.2c0,0-0.2,0.4-0.2,0.4c0,0.1,0.1,0.2,0.2,0.2c0.1,0,0.2-0.1,0.2-0.2
				C151.1,52.7,150.9,52.2,150.9,52.2"/>
			<path class="st3" d="M147.7,54.4c0,0-0.2,0.4-0.2,0.4c0,0.1,0.1,0.2,0.2,0.2c0.1,0,0.2-0.1,0.2-0.2
				C147.9,54.8,147.7,54.4,147.7,54.4"/>
			<path class="st3" d="M143.8,56.6c0,0-0.2,0.4-0.2,0.4c0,0.1,0.1,0.3,0.2,0.3c0.1,0,0.2-0.1,0.2-0.3
				C144,57.1,143.8,56.6,143.8,56.6"/>
			<path class="st3" d="M150,49c0,0.1,0.2,0.1,0.3,0l0.1-0.4c0,0-0.2-0.2-0.3-0.2c-0.4,0.1-0.8,0.1-1.1,0.5c0,0.3,0.2,0.5,0.4,0.6
				c0.1,0,0.2,0.1,0.3,0.2c0,0.1,0,0.2-0.2,0.2c-0.3-0.3-0.8,0.1-1-0.3c0.1-0.4,0.3-0.8,0-1.1c0-0.1,0.1-0.1,0.1-0.2
				c-0.1-0.3-0.5-0.1-0.7-0.1c-0.4,0-0.6,0.1-0.9,0.4c0,0.1,0.1,0.2,0.2,0.4c0.1,0,0.1,0,0.2,0.1l-0.2,0.1c0.1,0.1,0.1,0.2,0.1,0.3
				c-0.2,0.1-0.3-0.2-0.4-0.3c0-0.2,0-0.5-0.2-0.6c0,0-0.2,0.1-0.2,0.1c-0.1,0.1-0.1,0.2-0.1,0.4c0,0.2,0.1,0.4,0.1,0.4
				s0.7,0.6,0.9,0.9c-0.2,0.4-0.2,1-0.7,1.3c-0.1,0.1-0.1,0.2-0.1,0.4l0.1,0.1c0.3-0.2,0.9-0.2,0.9-0.8c0.1-0.2,0.2-0.5,0.5-0.6
				c0.2,0,0.5,0.1,0.6,0.3c-0.1,0.4-0.3,0.6-0.6,0.7c0,0,0,0.1,0,0.2c0.1,0.2,0.4,0.1,0.5,0.1c0.4-0.3,0.6-0.8,0.9-0.9
				c0,0.2-0.5,0.3-0.1,0.6c0.2,0,0.5,0,0.6-0.3c-0.2-0.4,0.6-0.6,0.1-1c0-0.4,0.4-0.5,0.4-0.9c-0.1-0.4-0.6-0.4-0.7-0.7
				C149.6,48.9,149.8,49,150,49"/>
			<path class="st3" d="M132.4,53.4c0.3,0,0.5-0.2,0.5-0.4c0-0.2-0.2-0.4-0.5-0.4c-0.3,0-0.5,0.2-0.5,0.4
				C131.9,53.3,132.2,53.4,132.4,53.4"/>
			<path class="st3" d="M107.6,67.9c0.3,0,0.5-0.2,0.5-0.5c0-0.2-0.2-0.5-0.5-0.5c-0.3,0-0.5,0.2-0.5,0.5
				C107.2,67.7,107.4,67.9,107.6,67.9"/>
			<path class="st3" d="M123.4,71.4L123.4,71.4L123.4,71.4L123.4,71.4L123.4,71.4C123.3,71.4,123.3,71.4,123.4,71.4L123.4,71.4h-0.1
				v0C123.3,71.4,123.3,71.4,123.4,71.4L123.4,71.4c-0.1-0.1-0.1-0.1-0.1-0.1v0L123.4,71.4C123.4,71.4,123.4,71.4,123.4,71.4
				C123.4,71.4,123.4,71.4,123.4,71.4L123.4,71.4C123.4,71.4,123.4,71.4,123.4,71.4L123.4,71.4z M123.3,71.4
				C123.4,71.4,123.4,71.4,123.3,71.4C123.4,71.4,123.4,71.4,123.3,71.4C123.3,71.4,123.3,71.4,123.3,71.4L123.3,71.4z"/>
			<path class="st3" d="M123.5,71.4C123.5,71.4,123.5,71.4,123.5,71.4C123.4,71.4,123.4,71.4,123.5,71.4
				C123.4,71.4,123.4,71.4,123.5,71.4L123.5,71.4C123.5,71.4,123.5,71.4,123.5,71.4C123.5,71.4,123.5,71.5,123.5,71.4
				C123.4,71.5,123.4,71.4,123.5,71.4C123.4,71.4,123.4,71.4,123.5,71.4L123.5,71.4L123.5,71.4L123.5,71.4
				C123.4,71.4,123.4,71.4,123.5,71.4C123.5,71.4,123.5,71.4,123.5,71.4C123.5,71.4,123.5,71.4,123.5,71.4L123.5,71.4
				C123.4,71.4,123.4,71.4,123.5,71.4C123.4,71.4,123.4,71.4,123.5,71.4C123.5,71.4,123.5,71.4,123.5,71.4
				C123.5,71.4,123.5,71.4,123.5,71.4L123.5,71.4L123.5,71.4L123.5,71.4z"/>
			<path class="st3" d="M123.6,71.4C123.6,71.4,123.6,71.4,123.6,71.4L123.6,71.4L123.6,71.4L123.6,71.4L123.6,71.4L123.6,71.4
				l-0.1,0.1l0-0.1c0,0,0,0,0,0v0h0v0c0,0,0,0,0,0c0,0,0,0,0,0L123.6,71.4L123.6,71.4L123.6,71.4C123.6,71.4,123.5,71.4,123.6,71.4
				L123.6,71.4L123.6,71.4L123.6,71.4C123.6,71.4,123.6,71.4,123.6,71.4C123.6,71.4,123.6,71.4,123.6,71.4L123.6,71.4L123.6,71.4
				L123.6,71.4C123.6,71.4,123.6,71.4,123.6,71.4C123.6,71.4,123.6,71.4,123.6,71.4L123.6,71.4L123.6,71.4L123.6,71.4z"/>
			<path class="st3" d="M123.6,71.4C123.7,71.4,123.7,71.4,123.6,71.4C123.7,71.4,123.7,71.4,123.6,71.4
				C123.7,71.4,123.7,71.4,123.6,71.4C123.7,71.4,123.6,71.4,123.6,71.4C123.6,71.4,123.6,71.4,123.6,71.4
				C123.7,71.4,123.7,71.4,123.6,71.4C123.7,71.4,123.7,71.4,123.6,71.4L123.6,71.4z M123.7,71.4C123.7,71.4,123.7,71.4,123.7,71.4
				C123.7,71.4,123.7,71.4,123.7,71.4C123.7,71.4,123.7,71.4,123.7,71.4C123.7,71.4,123.7,71.4,123.7,71.4
				C123.7,71.4,123.7,71.4,123.7,71.4"/>
			<path class="st3" d="M123.7,71.4C123.7,71.4,123.7,71.4,123.7,71.4C123.8,71.4,123.8,71.4,123.7,71.4
				C123.8,71.4,123.8,71.4,123.7,71.4C123.7,71.4,123.7,71.4,123.7,71.4C123.7,71.4,123.7,71.4,123.7,71.4
				C123.7,71.4,123.7,71.4,123.7,71.4C123.7,71.4,123.8,71.4,123.7,71.4C123.8,71.4,123.8,71.4,123.7,71.4
				C123.7,71.4,123.7,71.4,123.7,71.4L123.7,71.4L123.7,71.4L123.7,71.4L123.7,71.4L123.7,71.4z"/>
			<path class="st3" d="M152.6,37.2L152.6,37.2l-17.6,0v0h0l0,13.5c0,1.4,0.6,2.6,1.4,2.9l6.8,4.3c0.1,0.2,0.4,0.3,0.6,0.3
				c0.2,0,0.4-0.1,0.6-0.2l6.9-4.4c0.8-0.4,1.4-1.6,1.4-2.9L152.6,37.2L152.6,37.2z M152.1,50.9c-0.1,1-0.4,1.9-1.1,2.4l-6.7,4.2h0
				c-0.1,0.1-0.3,0.2-0.5,0.2c-0.2,0-0.4-0.1-0.5-0.2l-6.6-4.2c-0.7-0.5-1.1-1.3-1.1-2.4V37.7h16.6V50.9z"/>
			<path class="st3" d="M146.1,56.9l0.2-0.1C146.2,56.8,146.2,56.9,146.1,56.9"/>
			<path class="st3" d="M132.8,75.3l-1.7,0.2l0-0.1c0.3-0.1,0.4-0.1,0.4-0.2c0-0.1-0.2-0.4-0.3-0.5l-1.2,0.1
				c-0.1,0.3-0.2,0.5-0.2,0.6c0,0.2,0.3,0.1,0.4,0.1l0,0.1l-1,0.1l0-0.1c0.3-0.1,0.3-0.2,0.4-0.6l0.9-2.5l0.1,0l1.4,2.1
				c0.3,0.4,0.4,0.6,0.6,0.5L132.8,75.3z M131.1,74.5l-0.6-1l-0.4,1.1L131.1,74.5z"/>
			<path class="st3" d="M162,69c-0.3-0.8-0.9-1.3-1.7-1.6c-0.8-0.2-1.7-0.1-2.2,0.6c-0.9,0.7-0.3,2-0.3,3c0,0.2,0,0.4-0.2,0.5
				c-3.7-0.3-7.1-1.2-10.7-1.6c-0.8-0.1-1.7-0.1-2.5-0.3l-1-0.1c-3.2,0.1-6.3,0.3-9.3,1c-0.6,0.2-1.3,0.3-2,0.5
				c-0.5-0.1-0.8,0.3-1.3,0.1l-0.8,0.2c-0.1,0-0.2,0-0.3,0c-0.4-1,0.8-1.7,0.4-2.7c-0.3-0.6-1-1.1-1.7-1c-0.9-0.1-1.6,0.4-2,1
				c-0.6,1.3,0.2,2.6,0.4,3.8c-0.1,0.4,0.4,0.9,0,1.2C126,73,125,72.7,124,73c-0.3,0.2-0.9-0.1-1,0.3c1.1,0.6,2.5,0.5,3.7,0.5
				c0.2-0.1,0.3-0.1,0.4,0c0.1,0.7-0.1,1.6,0.3,2.1c0.5,0.6,1.2,0.8,1.9,0.8c2.3-0.1,4.4-0.8,6.5-1.3c0.3,0,0.6-0.2,0.9-0.2
				c1.1-0.3,2.4-0.5,3.6-0.5c-0.5,0.7-0.8,1.5-1.1,2.3c-0.3,0.7,0.5,0.8,0.8,1.2c-0.8,0.2-1.3,0.8-2.1,1.1c-1.6-0.1-3,0.6-4.5,0.7
				c0,0.3,0.5,0.2,0.6,0.6c-0.1,0.2-0.3,0.3-0.5,0.4c0,0.2,0,0.2,0.2,0.2c0.2-0.2,0.5-0.1,0.6-0.2c0.5,0,0.9-0.2,1.4-0.2
				c0.4-0.2,0.9-0.2,1.3-0.5c0.5-0.2,0.9-0.5,1.4-0.7c0.8,0,1.4-0.3,2.2-0.3v0.2c-0.6,0.9-1.2,1.9-1.8,2.8c-0.1,0.2,0,0.4,0.2,0.4
				c0.4,0.1,0.7,0,1-0.2c0.5-0.9,1-1.8,1.4-2.7c0.2-0.9,0.8-1.3,1.4-1.9c0.1-0.1,0.3-0.2,0.4-0.1c-0.5,0.6-0.8,1.1-1.2,1.8
				c-0.2,0.7-0.3,1.6,0.4,2.2c0.3,0.3,0.8,0.2,1.2,0.2c1-0.5,2.3,0.3,3-0.7c0.5-0.1,0.5,0.5,0.8,0.7c0.4,0.1,0.9,0.6,1.3,0.3
				c0-0.3-0.3-0.5-0.5-0.8c-0.3-0.5-0.7-1-1-1.5c-0.1-0.4-0.4-0.6-0.4-0.9c0.5,0.2,0.9,0.5,1.4,0.5c0.4,0.2,1,0.2,1.4,0.4
				c0.3,0.4,0.8,0.7,1.3,1c0.6,0.3,1.3,0.4,2,0.6c0.3,0,0.6,0.2,0.8,0c-0.1-0.1-0.2-0.2-0.4-0.3c-0.1-0.3,0.5-0.2,0.6-0.4
				c-0.1-0.1-0.2-0.2-0.3-0.2c-0.4-0.2-1.3-0.3-1.5-0.4c-0.3-0.1-0.6-0.2-0.9-0.3c-1.5,0-2.4-1.4-3.6-1.9c0.3-0.3,0.7-0.5,0.9-0.8
				c0.2-0.4,0.3-0.9,0.1-1.4c-0.2-0.8-1.2-0.7-1.8-1.1l0.1-0.1c1-0.1,1.8,0.2,2.7,0.4c2.4,0.3,4.7,1.2,7.2,1.3
				c1.4,0,3.1,0.1,3.8-1.3c0.1-0.8,0.3-1.6,0.4-2.4C161.3,71.6,162.2,70.4,162,69 M134.7,80.6l-0.4-0.3c0.2-0.2,0.6-0.1,0.8-0.3
				c0.7-0.2,1.4-0.5,2.2-0.3C136.6,80.3,135.6,80.4,134.7,80.6 M150.5,80.2c0.6,0.3,1.8,0.5,2.7,0.6c-0.1,0.3-0.7,0-0.6,0.5
				c-0.8-0.3-1.7-0.5-2.3-1.1C150.3,80.3,150.4,80.2,150.5,80.2 M126.7,69.4c0.1-0.5,0.2-0.9,0.6-1.3c0.6-0.3,1.4-0.3,2,0.1
				c0.2,0.1,0.3,0.3,0.4,0.5c0.1,0.4-0.1,0.9-0.4,1.1h-0.3c0-0.4,0-0.8,0.2-1.1c0-0.3-0.3-0.3-0.5-0.5c-0.4-0.1-0.8,0.1-1.1,0.3
				c-0.3,0.3-0.5,0.7-0.3,1.1c0.2,0.3,0,0.7,0.1,1l-0.1,0.1C127.1,70.3,126.7,70,126.7,69.4 M127.9,70.1c0.4,0.3,0.9,0.2,1.4,0.2
				c0.1,0.3,0.1,0.6-0.1,0.9c-0.4-0.1-1-0.1-1.2-0.5C128,70.6,127.9,70.3,127.9,70.1 M127.9,69.3c0.1-0.2,0-0.5,0.3-0.6
				c0.2-0.1,0.5-0.1,0.5,0.2c0,0.3,0,0.6-0.1,0.9C128.1,69.8,128,69.6,127.9,69.3 M139.7,77.4c-0.1-0.9,0.2-1.7,0.8-2.3
				c0.4-0.1,0.8-0.2,1.1,0.1c-0.7,0.2-1.5,0.3-1.6,1.2c0,0.3-0.1,0.5,0.1,0.8c0.3,0.5,0.9,0.3,1.3,0.7c0,0.1-0.1,0.3-0.2,0.3
				C140.7,77.9,140.1,77.8,139.7,77.4 M138.8,79.2c0.6-0.3,1.2-0.8,1.9-0.6C140.3,79,139.5,79.2,138.8,79.2 M141.2,79.5
				c-0.4,0.8-0.8,1.6-1.2,2.4c0,0.1-0.3,0.2-0.4,0.2c0-0.4,0.4-0.6,0.5-0.9c0.5-0.7,0.7-1.4,1.3-2.1
				C141.5,79.1,141.2,79.2,141.2,79.5 M141.8,78v0.1h-0.1L141.8,78L141.8,78L141.8,78C141.9,77.9,141.8,77.9,141.8,78L141.8,78z
				 M141.6,77.3c-0.4-0.1-0.8-0.2-1.2-0.3c-0.3-0.3,0-0.5,0-0.8c0.4-0.6,1.4-0.8,1.8-0.3C142.2,76.4,142,76.9,141.6,77.3
				 M142.2,77.3c0.1-0.3,0.2-0.8,0.4-1.1C142.6,76.5,142.4,77,142.2,77.3 M142.5,75.2c-0.3-0.1-0.5-0.5-0.9-0.5c0.3-0.1,0.6-0.1,1,0
				C142.7,74.9,142.5,75.1,142.5,75.2 M142.8,76L142.8,76l0-0.3h0V76z M142.8,77.2c0-0.1,0.1-0.2,0.1-0.4c0.1-0.1,0.3,0.1,0.3,0.2
				C143.1,77.1,142.9,77.2,142.8,77.2 M143.2,75.6c0.1-0.4,0.2-0.7,0.4-0.9c0.3,0,0.5,0,0.7,0.1c0.1,0.5,0.7,1.2,0,1.6
				c-0.2,0.1-0.6,0.3-0.8,0.1C143.1,76.2,143,75.9,143.2,75.6 M145,74.9c-0.1-0.2,0.2-0.1,0.3-0.2l0.8,0.1
				C145.7,74.7,145.2,75.7,145,74.9 M146.3,75.2c-0.3,0.1-0.5,0.5-0.8,0.5C145.6,75.4,146,75.2,146.3,75.2 M145.2,76.9L145.2,76.9
				L145.2,76.9L145.2,76.9L145.2,76.9z M145.3,78.3c0,0.1,0,0.1-0.1,0.2l-0.6-0.5C144.9,78,145.1,78.1,145.3,78.3 M144.6,77.5
				c0-0.1,0.2-0.1,0.2,0H144.6z M144.2,77.2c0.1-0.2,0.2-0.4,0.4-0.4c0,0,0,0.1,0.1,0.1C144.5,77,144.4,77.1,144.2,77.2 M143.6,77.1
				h-0.1l0.2-0.2C143.8,77,143.7,77.1,143.6,77.1 M143.7,78.1c0.3-0.4,0.6,0.2,0.8,0.5c0.4,0.6,1.4,1.1,1,1.8
				c-0.5,0.4-1.2,0-1.8,0.4c-0.3,0-0.8,0.1-0.9-0.2C143.1,79.7,143.3,78.8,143.7,78.1 M143,78.6l0.1-0.2c-0.2,0.6-0.5,1.2-0.8,1.8
				C142.2,79.6,142.8,79.1,143,78.6 M144.1,81.6c-0.5,0-1.2,0.3-1.7-0.1c0-0.2-0.2-0.3-0.2-0.5c0.4-0.2,0.8,0.3,1.1,0
				c0.6,0,1.2-0.1,1.8,0.1c0.3,0.1,0.7-0.5,0.8,0.1C145.7,81.9,144.7,81.3,144.1,81.6 M145.6,77.8L145.6,77.8L145.6,77.8L145.6,77.8
				L145.6,77.8z M145.7,79.5c0,0.3,0.3,0.4,0.1,0.6C145.8,80,145.7,79.8,145.7,79.5 M146.5,81.1l-0.1,0.1c-0.1-0.1-0.1-0.4-0.1-0.5
				C146.4,80.7,146.6,80.9,146.5,81.1 M147.7,81.7c0,0.1-0.2,0.1-0.2,0c-0.8-1-1.1-2-1.6-3.1l0.1,0
				C146.6,79.6,147.1,80.7,147.7,81.7 M148.7,79.3c-0.1,0-0.1,0.1-0.1,0.1c-0.7,0-1.2-0.4-1.8-0.8l0-0.1
				C147.5,78.6,148.1,79,148.7,79.3 M148,75.9c0.3,0.1,0.3,0.4,0.4,0.7c0,0.6-0.3,1-0.9,1.3c-0.3,0.2-0.7,0.2-1,0.1
				c0.6,0,1.3-0.3,1.5-0.9L148,75.9z M147.4,75.8c0.1,0.4,0.4,0.7,0.2,1.1c-0.3,0.5-0.8,0.5-1.2,0.6c-0.2,0-0.4-0.1-0.6-0.2
				c0-0.1,0-0.2-0.1-0.3c0.1-0.3-0.6-0.7-0.1-0.9C146.1,75.8,147,74.9,147.4,75.8 M160.3,74c-0.2,0.3,0,0.7-0.3,0.9
				c0,0.5-0.4,0.7-0.7,0.9c-3,0.7-6-0.4-8.9-0.9c-4.1-0.9-8.8-1.1-13-0.2c-1.9,0.4-3.8,0.8-5.7,1.4c-1.2,0.2-2.4,0.3-3.5,0
				c-0.9-0.4-0.5-1.6-0.8-2.4c0.1-0.6-0.2-1.1-0.2-1.8c-0.1-0.2-0.1-0.5-0.1-0.7c0.4,0.1,0.8,0.3,1.2,0.4c2.1,0.4,4-0.3,6-0.6
				c1.9-0.4,3.8-0.7,5.8-0.9c2.3,0,4.6-0.2,6.8,0.2c0.7,0,1.3,0.2,2,0.3c1.4,0.2,2.7,0.6,4.2,0.7c0.2,0.1,0.5,0.1,0.8,0.1
				c2.3,0.4,4.8,1,7,0C160.8,72.2,160.4,73.1,160.3,74 M159.6,70.9c0,0.4-0.4,0.3-0.6,0.5h-0.6c-0.1-0.2-0.1-0.5-0.1-0.7
				C158.8,70.7,159.2,70.7,159.6,70.9 M159.3,70.2c0.3-0.3-0.1-1.9,0.7-0.8c0,0.2,0,0.5-0.2,0.7C159.7,70.1,159.5,70.3,159.3,70.2
				 M161.4,70c-0.2,0.5-0.6,0.8-1.1,0.9c0-0.6,0.6-1,0.4-1.7c-0.3-0.5-1-0.6-1.6-0.5c-0.2,0.2-0.1,0.4-0.2,0.6l-0.1,0.8
				c-0.5,0-0.5-0.5-0.7-0.8c0-0.5,0.3-1.1,0.8-1.3c0.4-0.2,1.1-0.2,1.5,0.1c0.3,0.1,0.7,0.2,0.8,0.5C161.5,68.9,161.4,69.5,161.4,70
				"/>
			<path class="st3" d="M45.7,127.4v-0.3H46c0.3,0,0.5,0,0.7-0.1c0.2-0.1,0.3-0.2,0.3-0.4c0-0.1,0.1-0.4,0.1-0.9V119
				c0-0.5,0-0.8-0.1-1c-0.1-0.1-0.2-0.2-0.3-0.3c-0.2-0.1-0.4-0.1-0.7-0.1h-0.3v-0.3h4.5c1.2,0,2.2,0.2,2.9,0.5
				c0.9,0.4,1.6,1,2.1,1.8c0.5,0.8,0.7,1.7,0.7,2.8c0,0.7-0.1,1.4-0.3,2c-0.2,0.6-0.5,1.1-0.9,1.5c-0.4,0.4-0.8,0.7-1.3,0.9
				c-0.5,0.2-1.1,0.4-1.7,0.6c-0.3,0.1-0.8,0.1-1.4,0.1H45.7z M49.5,117.9v7.9c0,0.4,0,0.7,0.1,0.8c0,0.1,0.1,0.2,0.2,0.2
				c0.1,0.1,0.3,0.1,0.6,0.1c0.8,0,1.5-0.3,1.9-0.9c0.6-0.8,0.9-2,0.9-3.6c0-1.3-0.2-2.3-0.6-3.1c-0.3-0.6-0.7-1-1.2-1.2
				C51,117.9,50.4,117.9,49.5,117.9"/>
			<path class="st3" d="M59.5,120.4v5.5c0,0.5,0.1,0.8,0.2,0.9c0.1,0.1,0.3,0.2,0.7,0.2v0.3h-3.8v-0.3c0.3,0,0.5-0.1,0.7-0.3
				c0.1-0.1,0.1-0.4,0.1-0.9v-4.1c0-0.5-0.1-0.8-0.2-0.9c-0.1-0.1-0.3-0.2-0.7-0.2v-0.3H59.5z M58.5,117c0.3,0,0.6,0.1,0.8,0.3
				c0.2,0.2,0.3,0.5,0.3,0.8s-0.1,0.6-0.3,0.8c-0.2,0.2-0.5,0.3-0.8,0.3c-0.3,0-0.6-0.1-0.8-0.3c-0.2-0.2-0.3-0.5-0.3-0.8
				s0.1-0.6,0.3-0.8C57.9,117.2,58.2,117,58.5,117"/>
			<path class="st3" d="M65.3,120.5h2.4v0.8h-1.3c0.2,0.2,0.4,0.5,0.5,0.7c0.1,0.3,0.2,0.6,0.2,0.8c0,0.5-0.1,0.9-0.4,1.3
				c-0.3,0.4-0.7,0.7-1.1,0.9c-0.5,0.2-0.9,0.3-1.3,0.3c0,0-0.3,0-0.9,0c-0.2,0-0.4,0.1-0.6,0.2c-0.2,0.1-0.2,0.3-0.2,0.5
				c0,0.2,0.1,0.3,0.2,0.4c0.1,0.1,0.4,0.2,0.7,0.2l1.3,0c1,0,1.8,0.1,2.2,0.3c0.6,0.3,0.8,0.8,0.8,1.5c0,0.4-0.1,0.8-0.4,1.2
				c-0.3,0.3-0.6,0.6-1,0.8c-0.6,0.2-1.4,0.4-2.2,0.4c-0.6,0-1.2-0.1-1.7-0.2c-0.5-0.1-0.9-0.3-1.1-0.5c-0.2-0.2-0.3-0.4-0.3-0.7
				c0-0.2,0.1-0.4,0.3-0.6c0.2-0.2,0.5-0.3,1-0.5c-0.6-0.3-1-0.8-1-1.3c0-0.3,0.1-0.7,0.4-1c0.3-0.3,0.7-0.6,1.3-0.8
				c-0.7-0.2-1.2-0.6-1.5-1s-0.4-0.9-0.4-1.4c0-0.7,0.3-1.3,0.8-1.8c0.6-0.5,1.3-0.8,2.2-0.8C64.4,120.2,64.8,120.3,65.3,120.5
				 M63.6,128.5c-0.5,0-0.8,0-1,0.1c-0.3,0.2-0.4,0.4-0.4,0.6c0,0.3,0.1,0.5,0.4,0.7c0.3,0.2,0.8,0.3,1.7,0.3c0.7,0,1.2-0.1,1.6-0.3
				c0.4-0.2,0.6-0.4,0.6-0.8c0-0.1,0-0.2-0.1-0.3c-0.1-0.1-0.3-0.3-0.6-0.3S64.8,128.5,63.6,128.5 M64,120.7c-0.3,0-0.5,0.1-0.7,0.4
				c-0.2,0.3-0.3,0.9-0.3,1.8c0,0.7,0.1,1.3,0.3,1.5c0.2,0.3,0.4,0.4,0.7,0.4c0.3,0,0.5-0.1,0.7-0.4c0.2-0.3,0.3-0.8,0.3-1.6
				c0-0.9-0.1-1.5-0.3-1.8C64.6,120.8,64.3,120.7,64,120.7"/>
			<path class="st3" d="M71,120.4v5.5c0,0.5,0.1,0.8,0.2,0.9c0.1,0.1,0.3,0.2,0.7,0.2v0.3h-3.8v-0.3c0.3,0,0.5-0.1,0.7-0.3
				c0.1-0.1,0.1-0.4,0.1-0.9v-4.1c0-0.5-0.1-0.8-0.2-0.9c-0.1-0.1-0.3-0.2-0.7-0.2v-0.3H71z M70,117c0.3,0,0.6,0.1,0.8,0.3
				c0.2,0.2,0.3,0.5,0.3,0.8s-0.1,0.6-0.3,0.8c-0.2,0.2-0.5,0.3-0.8,0.3c-0.3,0-0.6-0.1-0.8-0.3c-0.2-0.2-0.3-0.5-0.3-0.8
				s0.1-0.6,0.3-0.8C69.4,117.2,69.6,117,70,117"/>
			<path class="st3" d="M75.1,117.9v2.6h1.7v0.7h-1.7v4.3c0,0.4,0,0.7,0.1,0.8c0,0.1,0.1,0.2,0.2,0.3c0.1,0.1,0.2,0.1,0.3,0.1
				c0.3,0,0.6-0.2,0.9-0.7l0.2,0.2c-0.4,1-1.1,1.4-2,1.4c-0.4,0-0.8-0.1-1.1-0.4c-0.3-0.2-0.5-0.5-0.6-0.8c0-0.2-0.1-0.6-0.1-1.4
				v-3.8h-0.9v-0.3c0.6-0.4,1.2-0.9,1.6-1.4c0.4-0.5,0.8-1,1.2-1.6H75.1z"/>
			<path class="st3" d="M81,126.4c-0.9,0.8-1.6,1.1-2.3,1.1c-0.4,0-0.7-0.1-1-0.4c-0.3-0.3-0.4-0.6-0.4-1c0-0.5,0.2-1,0.7-1.4
				c0.5-0.4,1.5-1,3-1.7v-0.7c0-0.5,0-0.9-0.1-1s-0.2-0.3-0.3-0.4c-0.2-0.1-0.3-0.2-0.5-0.2c-0.3,0-0.6,0.1-0.8,0.2
				c-0.1,0.1-0.2,0.2-0.2,0.3c0,0.1,0.1,0.2,0.2,0.4c0.2,0.2,0.3,0.4,0.3,0.6c0,0.2-0.1,0.5-0.3,0.6c-0.2,0.2-0.4,0.3-0.7,0.3
				c-0.3,0-0.6-0.1-0.8-0.3s-0.3-0.4-0.3-0.7c0-0.4,0.1-0.7,0.4-1c0.3-0.3,0.7-0.6,1.2-0.8c0.5-0.2,1-0.3,1.6-0.3
				c0.7,0,1.2,0.1,1.6,0.4c0.4,0.3,0.6,0.6,0.8,0.9c0.1,0.2,0.1,0.7,0.1,1.4v2.7c0,0.3,0,0.5,0,0.6c0,0.1,0.1,0.1,0.1,0.2
				c0,0,0.1,0.1,0.2,0.1c0.1,0,0.3-0.1,0.4-0.3l0.2,0.2c-0.2,0.4-0.5,0.6-0.8,0.8c-0.3,0.2-0.6,0.3-0.9,0.3c-0.4,0-0.7-0.1-0.9-0.3
				C81.2,127.1,81.1,126.8,81,126.4 M81,125.8v-2.3c-0.6,0.4-1.1,0.7-1.3,1.1c-0.2,0.3-0.3,0.5-0.3,0.8c0,0.2,0.1,0.4,0.2,0.6
				c0.1,0.1,0.3,0.2,0.5,0.2C80.4,126.3,80.7,126.1,81,125.8"/>
			<path class="st3" d="M87.3,117.3v8.7c0,0.5,0.1,0.8,0.2,0.9c0.1,0.1,0.3,0.2,0.7,0.2v0.3h-3.8v-0.3c0.3,0,0.5-0.1,0.7-0.3
				c0.1-0.1,0.1-0.4,0.1-0.9v-7.2c0-0.5-0.1-0.8-0.2-0.9c-0.1-0.1-0.3-0.2-0.7-0.2v-0.3H87.3z"/>
			<path class="st3" d="M101.1,117.3v2.7h-0.3c-0.2-0.6-0.3-1.1-0.5-1.4c-0.2-0.3-0.5-0.5-0.8-0.7c-0.2-0.1-0.5-0.1-1-0.1h-0.8v7.8
				c0,0.5,0,0.8,0.1,1s0.2,0.2,0.3,0.3c0.2,0.1,0.4,0.1,0.7,0.1h0.3v0.3h-5.3v-0.3h0.3c0.3,0,0.5-0.1,0.7-0.2
				c0.1-0.1,0.2-0.2,0.3-0.4c0.1-0.1,0.1-0.4,0.1-0.9v-7.8h-0.7c-0.7,0-1.2,0.1-1.5,0.4c-0.4,0.4-0.7,1-0.8,1.7H92v-2.7H101.1z"/>
			<path class="st3" d="M103.7,120.4v1.6c0.5-0.7,0.9-1.2,1.2-1.4c0.3-0.2,0.7-0.4,1-0.4c0.3,0,0.5,0.1,0.7,0.3
				c0.2,0.2,0.3,0.4,0.3,0.7c0,0.3-0.1,0.6-0.2,0.8c-0.2,0.2-0.4,0.3-0.6,0.3c-0.3,0-0.5-0.1-0.7-0.3c-0.2-0.2-0.3-0.3-0.3-0.3
				c-0.1,0-0.1,0-0.2,0c-0.1,0-0.3,0.1-0.4,0.2c-0.2,0.2-0.4,0.4-0.5,0.7c-0.2,0.5-0.2,1-0.2,1.6v1.6l0,0.4c0,0.3,0,0.5,0.1,0.5
				c0.1,0.1,0.1,0.2,0.3,0.3c0.1,0.1,0.3,0.1,0.6,0.1v0.3h-3.8v-0.3c0.3,0,0.5-0.1,0.6-0.3c0.1-0.1,0.2-0.5,0.2-1.1v-3.9
				c0-0.4,0-0.7-0.1-0.8c0-0.1-0.1-0.2-0.2-0.3c-0.1-0.1-0.3-0.1-0.5-0.1v-0.3H103.7z"/>
			<path class="st3" d="M111.2,126.4c-0.9,0.8-1.6,1.1-2.3,1.1c-0.4,0-0.7-0.1-1-0.4c-0.3-0.3-0.4-0.6-0.4-1c0-0.5,0.2-1,0.7-1.4
				c0.5-0.4,1.5-1,3-1.7v-0.7c0-0.5,0-0.9-0.1-1s-0.2-0.3-0.3-0.4c-0.2-0.1-0.3-0.2-0.5-0.2c-0.3,0-0.6,0.1-0.8,0.2
				c-0.1,0.1-0.2,0.2-0.2,0.3c0,0.1,0.1,0.2,0.2,0.4c0.2,0.2,0.3,0.4,0.3,0.6c0,0.2-0.1,0.5-0.3,0.6c-0.2,0.2-0.4,0.3-0.7,0.3
				c-0.3,0-0.6-0.1-0.8-0.3c-0.2-0.2-0.3-0.4-0.3-0.7c0-0.4,0.1-0.7,0.4-1c0.3-0.3,0.7-0.6,1.2-0.8c0.5-0.2,1-0.3,1.6-0.3
				c0.7,0,1.2,0.1,1.6,0.4c0.4,0.3,0.6,0.6,0.8,0.9c0.1,0.2,0.1,0.7,0.1,1.4v2.7c0,0.3,0,0.5,0,0.6c0,0.1,0.1,0.1,0.1,0.2
				c0,0,0.1,0.1,0.2,0.1c0.1,0,0.3-0.1,0.4-0.3l0.2,0.2c-0.2,0.4-0.5,0.6-0.8,0.8c-0.3,0.2-0.6,0.3-0.9,0.3c-0.4,0-0.7-0.1-0.9-0.3
				C111.4,127.1,111.3,126.8,111.2,126.4 M111.2,125.8v-2.3c-0.6,0.4-1.1,0.7-1.3,1.1c-0.2,0.3-0.3,0.5-0.3,0.8
				c0,0.2,0.1,0.4,0.2,0.6c0.1,0.1,0.3,0.2,0.5,0.2C110.6,126.3,110.9,126.1,111.2,125.8"/>
			<path class="st3" d="M117.7,120.4v0.9c0.4-0.4,0.7-0.7,1-0.8c0.3-0.2,0.7-0.3,1.1-0.3c0.5,0,0.8,0.1,1.1,0.4
				c0.3,0.3,0.5,0.6,0.6,0.9c0.1,0.3,0.1,0.8,0.1,1.6v2.7c0,0.5,0,0.9,0.1,1c0.1,0.1,0.3,0.2,0.6,0.3v0.3h-3.5v-0.3
				c0.3,0,0.5-0.1,0.6-0.3c0.1-0.1,0.1-0.4,0.1-0.9v-3.1c0-0.6,0-0.9-0.1-1.1c0-0.1-0.1-0.3-0.2-0.3c-0.1-0.1-0.2-0.1-0.4-0.1
				c-0.4,0-0.8,0.3-1.2,0.9v3.7c0,0.5,0,0.9,0.1,1c0.1,0.1,0.3,0.2,0.5,0.3v0.3h-3.5v-0.3c0.3,0,0.5-0.1,0.6-0.3
				c0.1-0.1,0.1-0.4,0.1-1v-3.9c0-0.5,0-0.9-0.1-1c-0.1-0.1-0.3-0.2-0.6-0.3v-0.3H117.7z"/>
			<path class="st3" d="M127.5,120.2l0.1,2.4h-0.3c-0.3-0.7-0.6-1.2-0.9-1.5c-0.3-0.3-0.7-0.4-1-0.4c-0.2,0-0.4,0.1-0.5,0.2
				c-0.1,0.1-0.2,0.3-0.2,0.5c0,0.1,0.1,0.3,0.1,0.4c0.2,0.2,0.6,0.6,1.3,1.1c0.7,0.5,1.2,0.9,1.4,1.3c0.2,0.3,0.3,0.7,0.3,1.2
				c0,0.4-0.1,0.8-0.3,1.1c-0.2,0.4-0.5,0.7-0.8,0.9c-0.4,0.2-0.7,0.3-1.2,0.3c-0.3,0-0.8-0.1-1.3-0.3c-0.1-0.1-0.3-0.1-0.3-0.1
				c-0.2,0-0.3,0.1-0.4,0.4h-0.2l-0.1-2.5h0.3c0.2,0.7,0.5,1.2,0.9,1.5c0.4,0.3,0.8,0.5,1.1,0.5c0.2,0,0.4-0.1,0.6-0.2
				c0.2-0.1,0.2-0.3,0.2-0.5c0-0.2-0.1-0.4-0.2-0.6c-0.1-0.2-0.5-0.4-1-0.8c-0.8-0.5-1.3-0.9-1.5-1.2c-0.3-0.4-0.5-0.9-0.5-1.4
				c0-0.5,0.2-1,0.6-1.5c0.4-0.4,0.9-0.7,1.6-0.7c0.4,0,0.7,0.1,1.1,0.3c0.1,0.1,0.2,0.1,0.3,0.1c0.1,0,0.2,0,0.2-0.1
				c0.1,0,0.1-0.1,0.3-0.3H127.5z"/>
			<path class="st3" d="M131.9,121.2v4.9c0,0.5,0,0.8,0.1,0.9c0.2,0.2,0.5,0.3,0.9,0.3v0.3h-4.1v-0.3c0.3,0,0.5,0,0.7-0.1
				c0.1-0.1,0.2-0.2,0.3-0.3c0-0.1,0.1-0.4,0.1-0.7v-4.9h-1v-0.7h1v-0.5l0-0.4c0-0.7,0.3-1.3,0.8-1.8c0.5-0.5,1.2-0.7,2.1-0.7
				c0.6,0,1.1,0.1,1.4,0.3c0.3,0.2,0.4,0.5,0.4,0.8c0,0.2-0.1,0.4-0.3,0.6s-0.4,0.2-0.7,0.2c-0.3,0-0.5-0.1-0.6-0.2
				c-0.2-0.1-0.2-0.3-0.2-0.4c0,0,0-0.1,0-0.3c0-0.1,0-0.2,0-0.2c0-0.1,0-0.2-0.1-0.2c-0.1-0.1-0.2-0.1-0.3-0.1
				c-0.1,0-0.3,0.1-0.4,0.2c-0.1,0.1-0.1,0.3-0.1,0.6l0,1.3v0.9h1v0.7H131.9z"/>
			<path class="st3" d="M137,120.2c0.6,0,1.2,0.2,1.7,0.5c0.5,0.3,0.9,0.8,1.2,1.3c0.3,0.6,0.4,1.2,0.4,1.9c0,1-0.3,1.8-0.8,2.5
				c-0.6,0.8-1.4,1.2-2.5,1.2c-1.1,0-1.9-0.4-2.4-1.1c-0.6-0.7-0.9-1.6-0.9-2.6c0-1,0.3-1.9,0.9-2.6S136,120.2,137,120.2 M137,120.8
				c-0.3,0-0.5,0.1-0.7,0.3c-0.2,0.2-0.3,0.6-0.4,1.1c-0.1,0.6-0.1,1.4-0.1,2.4c0,0.5,0,1,0.1,1.5c0.1,0.4,0.2,0.6,0.4,0.8
				c0.2,0.2,0.4,0.3,0.6,0.3c0.2,0,0.4-0.1,0.6-0.2c0.2-0.2,0.3-0.4,0.4-0.7c0.1-0.5,0.1-1.4,0.1-2.9c0-0.8,0-1.4-0.1-1.7
				c-0.1-0.3-0.2-0.5-0.4-0.7C137.4,120.8,137.2,120.8,137,120.8"/>
			<path class="st3" d="M144,120.4v1.6c0.5-0.7,0.9-1.2,1.2-1.4c0.3-0.2,0.7-0.4,1-0.4c0.3,0,0.5,0.1,0.7,0.3
				c0.2,0.2,0.3,0.4,0.3,0.7c0,0.3-0.1,0.6-0.2,0.8c-0.2,0.2-0.4,0.3-0.6,0.3c-0.3,0-0.5-0.1-0.7-0.3c-0.2-0.2-0.3-0.3-0.3-0.3
				c-0.1,0-0.1,0-0.2,0c-0.1,0-0.3,0.1-0.4,0.2c-0.2,0.2-0.4,0.4-0.5,0.7c-0.2,0.5-0.2,1-0.2,1.6v1.6l0,0.4c0,0.3,0,0.5,0.1,0.5
				c0.1,0.1,0.1,0.2,0.3,0.3c0.1,0.1,0.3,0.1,0.6,0.1v0.3h-3.8v-0.3c0.3,0,0.5-0.1,0.6-0.3c0.1-0.1,0.2-0.5,0.2-1.1v-3.9
				c0-0.4,0-0.7-0.1-0.8c0-0.1-0.1-0.2-0.2-0.3c-0.1-0.1-0.3-0.1-0.5-0.1v-0.3H144z"/>
			<path class="st3" d="M150.6,120.4v0.9c0.4-0.4,0.7-0.7,1.1-0.9c0.3-0.2,0.7-0.3,1.1-0.3c0.4,0,0.8,0.1,1.1,0.3
				c0.3,0.2,0.5,0.5,0.7,1c0.4-0.4,0.8-0.8,1.1-1c0.4-0.2,0.7-0.3,1.1-0.3c0.5,0,0.9,0.1,1.2,0.3c0.3,0.2,0.5,0.5,0.6,0.8
				c0.1,0.3,0.2,0.9,0.2,1.6v2.9c0,0.5,0,0.9,0.1,1c0.1,0.1,0.3,0.2,0.6,0.3v0.3h-3.6v-0.3c0.3,0,0.5-0.1,0.6-0.3
				c0.1-0.1,0.1-0.4,0.1-0.9v-3c0-0.6,0-1-0.1-1.2c-0.1-0.2-0.1-0.3-0.2-0.4c-0.1-0.1-0.2-0.1-0.4-0.1c-0.2,0-0.4,0.1-0.7,0.2
				c-0.2,0.2-0.4,0.4-0.7,0.7v3.8c0,0.5,0,0.8,0.1,1c0.1,0.2,0.3,0.3,0.7,0.3v0.3h-3.6v-0.3c0.2,0,0.3-0.1,0.5-0.1
				c0.1-0.1,0.2-0.2,0.2-0.3c0-0.1,0.1-0.4,0.1-0.8v-3c0-0.6,0-1-0.1-1.2c0-0.2-0.1-0.3-0.3-0.4c-0.1-0.1-0.2-0.1-0.4-0.1
				c-0.2,0-0.4,0.1-0.5,0.2c-0.2,0.2-0.5,0.4-0.7,0.8v3.8c0,0.5,0,0.8,0.1,1c0.1,0.2,0.3,0.3,0.6,0.3v0.3h-3.6v-0.3
				c0.3,0,0.5-0.1,0.6-0.3c0.1-0.1,0.1-0.4,0.1-1v-3.9c0-0.5,0-0.9-0.1-1c-0.1-0.1-0.3-0.2-0.6-0.3v-0.3H150.6z"/>
			<path class="st3" d="M164.1,126.4c-0.9,0.8-1.6,1.1-2.3,1.1c-0.4,0-0.7-0.1-1-0.4c-0.3-0.3-0.4-0.6-0.4-1c0-0.5,0.2-1,0.7-1.4
				c0.5-0.4,1.5-1,3-1.7v-0.7c0-0.5,0-0.9-0.1-1c-0.1-0.1-0.2-0.3-0.3-0.4c-0.2-0.1-0.3-0.2-0.5-0.2c-0.3,0-0.6,0.1-0.8,0.2
				c-0.1,0.1-0.2,0.2-0.2,0.3c0,0.1,0.1,0.2,0.2,0.4c0.2,0.2,0.3,0.4,0.3,0.6c0,0.2-0.1,0.5-0.3,0.6c-0.2,0.2-0.4,0.3-0.7,0.3
				c-0.3,0-0.6-0.1-0.8-0.3c-0.2-0.2-0.3-0.4-0.3-0.7c0-0.4,0.1-0.7,0.4-1c0.3-0.3,0.7-0.6,1.2-0.8c0.5-0.2,1-0.3,1.6-0.3
				c0.7,0,1.2,0.1,1.6,0.4c0.4,0.3,0.6,0.6,0.8,0.9c0.1,0.2,0.1,0.7,0.1,1.4v2.7c0,0.3,0,0.5,0,0.6c0,0.1,0.1,0.1,0.1,0.2
				c0,0,0.1,0.1,0.2,0.1c0.1,0,0.3-0.1,0.4-0.3l0.2,0.2c-0.2,0.4-0.5,0.6-0.8,0.8c-0.3,0.2-0.6,0.3-0.9,0.3c-0.4,0-0.7-0.1-0.9-0.3
				C164.3,127.1,164.1,126.8,164.1,126.4 M164.1,125.8v-2.3c-0.6,0.4-1.1,0.7-1.3,1.1c-0.2,0.3-0.3,0.5-0.3,0.8
				c0,0.2,0.1,0.4,0.2,0.6c0.1,0.1,0.3,0.2,0.5,0.2C163.5,126.3,163.7,126.1,164.1,125.8"/>
			<path class="st3" d="M170.4,117.9v2.6h1.7v0.7h-1.7v4.3c0,0.4,0,0.7,0.1,0.8c0,0.1,0.1,0.2,0.2,0.3c0.1,0.1,0.2,0.1,0.3,0.1
				c0.3,0,0.6-0.2,0.9-0.7l0.2,0.2c-0.4,1-1.1,1.4-2,1.4c-0.4,0-0.8-0.1-1.1-0.4c-0.3-0.2-0.5-0.5-0.6-0.8c0-0.2-0.1-0.6-0.1-1.4
				v-3.8h-0.9v-0.3c0.6-0.4,1.2-0.9,1.6-1.4c0.4-0.5,0.8-1,1.2-1.6H170.4z"/>
			<path class="st3" d="M175.2,120.4v5.5c0,0.5,0.1,0.8,0.2,0.9c0.1,0.1,0.3,0.2,0.7,0.2v0.3h-3.8v-0.3c0.3,0,0.5-0.1,0.7-0.3
				c0.1-0.1,0.1-0.4,0.1-0.9v-4.1c0-0.5-0.1-0.8-0.2-0.9c-0.1-0.1-0.3-0.2-0.7-0.2v-0.3H175.2z M174.2,117c0.3,0,0.6,0.1,0.8,0.3
				c0.2,0.2,0.3,0.5,0.3,0.8s-0.1,0.6-0.3,0.8c-0.2,0.2-0.5,0.3-0.8,0.3s-0.6-0.1-0.8-0.3c-0.2-0.2-0.3-0.5-0.3-0.8s0.1-0.6,0.3-0.8
				C173.6,117.2,173.9,117,174.2,117"/>
			<path class="st3" d="M179.8,120.2c0.6,0,1.2,0.2,1.7,0.5c0.5,0.3,0.9,0.8,1.2,1.3c0.3,0.6,0.4,1.2,0.4,1.9c0,1-0.3,1.8-0.8,2.5
				c-0.6,0.8-1.4,1.2-2.5,1.2c-1.1,0-1.9-0.4-2.4-1.1c-0.6-0.7-0.9-1.6-0.9-2.6c0-1,0.3-1.9,0.9-2.6
				C178,120.6,178.8,120.2,179.8,120.2 M179.9,120.8c-0.3,0-0.5,0.1-0.7,0.3c-0.2,0.2-0.3,0.6-0.4,1.1c-0.1,0.6-0.1,1.4-0.1,2.4
				c0,0.5,0,1,0.1,1.5c0.1,0.4,0.2,0.6,0.4,0.8c0.2,0.2,0.4,0.3,0.6,0.3c0.2,0,0.4-0.1,0.6-0.2c0.2-0.2,0.3-0.4,0.4-0.7
				c0.1-0.5,0.1-1.4,0.1-2.9c0-0.8,0-1.4-0.1-1.7c-0.1-0.3-0.2-0.5-0.4-0.7C180.3,120.8,180.1,120.8,179.9,120.8"/>
			<path class="st3" d="M186.8,120.4v0.9c0.4-0.4,0.7-0.7,1-0.8c0.3-0.2,0.7-0.3,1.1-0.3c0.5,0,0.8,0.1,1.1,0.4
				c0.3,0.3,0.5,0.6,0.6,0.9c0.1,0.3,0.1,0.8,0.1,1.6v2.7c0,0.5,0,0.9,0.1,1c0.1,0.1,0.3,0.2,0.6,0.3v0.3H188v-0.3
				c0.3,0,0.5-0.1,0.6-0.3c0.1-0.1,0.1-0.4,0.1-0.9v-3.1c0-0.6,0-0.9-0.1-1.1c0-0.1-0.1-0.3-0.2-0.3c-0.1-0.1-0.2-0.1-0.4-0.1
				c-0.4,0-0.8,0.3-1.2,0.9v3.7c0,0.5,0,0.9,0.1,1c0.1,0.1,0.3,0.2,0.5,0.3v0.3H184v-0.3c0.3,0,0.5-0.1,0.6-0.3
				c0.1-0.1,0.1-0.4,0.1-1v-3.9c0-0.5,0-0.9-0.1-1c-0.1-0.1-0.3-0.2-0.6-0.3v-0.3H186.8z"/>
			<path class="st3" d="M200.9,124.5h-3.6l-0.4,1c-0.1,0.3-0.2,0.6-0.2,0.8c0,0.3,0.1,0.5,0.3,0.6c0.1,0.1,0.5,0.1,1,0.2v0.3h-3.4
				v-0.3c0.4-0.1,0.7-0.2,0.9-0.5c0.2-0.2,0.5-0.8,0.9-1.5l3.6-8.1h0.1l3.7,8.3c0.3,0.8,0.6,1.3,0.9,1.5c0.2,0.2,0.4,0.2,0.7,0.3
				v0.3h-4.9v-0.3h0.2c0.4,0,0.7-0.1,0.8-0.2c0.1-0.1,0.2-0.2,0.2-0.3c0-0.1,0-0.2,0-0.3c0,0-0.1-0.2-0.2-0.6L200.9,124.5z
				 M200.6,124l-1.5-3.5l-1.6,3.5H200.6z"/>
			<path class="st3" d="M210.3,120.5h2.4v0.8h-1.3c0.2,0.2,0.4,0.5,0.5,0.7c0.1,0.3,0.2,0.6,0.2,0.8c0,0.5-0.1,0.9-0.4,1.3
				c-0.3,0.4-0.7,0.7-1.1,0.9c-0.5,0.2-0.9,0.3-1.3,0.3c0,0-0.3,0-0.9,0c-0.2,0-0.4,0.1-0.6,0.2c-0.2,0.1-0.2,0.3-0.2,0.5
				c0,0.2,0.1,0.3,0.2,0.4c0.1,0.1,0.4,0.2,0.7,0.2l1.3,0c1,0,1.8,0.1,2.2,0.3c0.6,0.3,0.8,0.8,0.8,1.5c0,0.4-0.1,0.8-0.4,1.2
				c-0.3,0.3-0.6,0.6-1,0.8c-0.6,0.2-1.4,0.4-2.2,0.4c-0.6,0-1.2-0.1-1.7-0.2c-0.5-0.1-0.9-0.3-1.1-0.5c-0.2-0.2-0.3-0.4-0.3-0.7
				c0-0.2,0.1-0.4,0.3-0.6c0.2-0.2,0.5-0.3,1-0.5c-0.6-0.3-1-0.8-1-1.3c0-0.3,0.1-0.7,0.4-1c0.3-0.3,0.7-0.6,1.3-0.8
				c-0.7-0.2-1.2-0.6-1.5-1c-0.3-0.4-0.4-0.9-0.4-1.4c0-0.7,0.3-1.3,0.8-1.8c0.6-0.5,1.3-0.8,2.2-0.8
				C209.4,120.2,209.8,120.3,210.3,120.5 M208.6,128.5c-0.5,0-0.8,0-1,0.1c-0.3,0.2-0.4,0.4-0.4,0.6c0,0.3,0.1,0.5,0.4,0.7
				c0.3,0.2,0.8,0.3,1.7,0.3c0.7,0,1.2-0.1,1.6-0.3s0.6-0.4,0.6-0.8c0-0.1,0-0.2-0.1-0.3c-0.1-0.1-0.3-0.3-0.6-0.3
				S209.8,128.5,208.6,128.5 M209,120.7c-0.3,0-0.5,0.1-0.7,0.4c-0.2,0.3-0.3,0.9-0.3,1.8c0,0.7,0.1,1.3,0.3,1.5
				c0.2,0.3,0.4,0.4,0.7,0.4c0.3,0,0.5-0.1,0.7-0.4c0.2-0.3,0.3-0.8,0.3-1.6c0-0.9-0.1-1.5-0.3-1.8
				C209.6,120.8,209.3,120.7,209,120.7"/>
			<path class="st3" d="M219.2,123.7h-3.8c0,0.9,0.3,1.7,0.7,2.2c0.3,0.4,0.8,0.6,1.2,0.6c0.3,0,0.6-0.1,0.8-0.3
				c0.2-0.2,0.5-0.5,0.8-0.9l0.3,0.2c-0.4,0.8-0.8,1.3-1.3,1.6c-0.5,0.3-1,0.5-1.6,0.5c-1,0-1.8-0.4-2.4-1.2
				c-0.4-0.6-0.6-1.4-0.6-2.4c0-1.2,0.3-2.1,0.9-2.8c0.6-0.7,1.4-1,2.2-1c0.7,0,1.3,0.3,1.8,0.9
				C218.9,121.7,219.2,122.5,219.2,123.7 M217.4,123.2c0-0.8,0-1.4-0.1-1.7c-0.1-0.3-0.2-0.5-0.4-0.7c-0.1-0.1-0.2-0.1-0.4-0.1
				c-0.3,0-0.5,0.1-0.6,0.4c-0.3,0.4-0.4,1.1-0.4,1.8v0.3H217.4z"/>
			<path class="st3" d="M222.7,120.4v0.9c0.4-0.4,0.7-0.7,1-0.8c0.3-0.2,0.7-0.3,1.1-0.3c0.5,0,0.8,0.1,1.1,0.4
				c0.3,0.3,0.5,0.6,0.6,0.9c0.1,0.3,0.1,0.8,0.1,1.6v2.7c0,0.5,0,0.9,0.1,1c0.1,0.1,0.3,0.2,0.6,0.3v0.3h-3.5v-0.3
				c0.3,0,0.5-0.1,0.6-0.3c0.1-0.1,0.1-0.4,0.1-0.9v-3.1c0-0.6,0-0.9-0.1-1.1c0-0.1-0.1-0.3-0.2-0.3c-0.1-0.1-0.2-0.1-0.4-0.1
				c-0.4,0-0.8,0.3-1.2,0.9v3.7c0,0.5,0,0.9,0.1,1c0.1,0.1,0.3,0.2,0.5,0.3v0.3h-3.5v-0.3c0.3,0,0.5-0.1,0.6-0.3
				c0.1-0.1,0.1-0.4,0.1-1v-3.9c0-0.5,0-0.9-0.1-1c-0.1-0.1-0.3-0.2-0.6-0.3v-0.3H222.7z"/>
			<path class="st3" d="M233.8,125.6l0.2,0.2c-0.3,0.6-0.7,1.1-1.2,1.4c-0.5,0.3-1,0.5-1.6,0.5c-0.9,0-1.7-0.4-2.2-1.1
				c-0.6-0.7-0.8-1.5-0.8-2.5c0-1,0.3-1.8,0.8-2.5c0.6-0.9,1.5-1.3,2.5-1.3c0.7,0,1.3,0.2,1.7,0.5c0.4,0.4,0.6,0.8,0.6,1.2
				c0,0.3-0.1,0.5-0.3,0.7c-0.2,0.2-0.4,0.3-0.7,0.3c-0.3,0-0.5-0.1-0.7-0.3c-0.2-0.2-0.3-0.5-0.4-1c0-0.3-0.1-0.5-0.2-0.7
				c-0.1-0.1-0.2-0.2-0.4-0.2c-0.2,0-0.4,0.1-0.6,0.4c-0.3,0.4-0.4,1-0.4,1.8c0,0.7,0.1,1.3,0.3,1.9c0.2,0.6,0.5,1,0.9,1.3
				c0.3,0.2,0.6,0.3,1,0.3c0.2,0,0.5-0.1,0.7-0.2C233.3,126.2,233.5,125.9,233.8,125.6"/>
			<path class="st3" d="M237.9,127.7l-2.3-5.2c-0.3-0.8-0.6-1.3-0.8-1.4s-0.4-0.3-0.6-0.4v-0.3h3.7v0.3c-0.2,0-0.4,0.1-0.5,0.1
				c-0.1,0.1-0.1,0.2-0.1,0.3c0,0.2,0.1,0.6,0.4,1.1l1.2,2.7l0.8-2.1c0.3-0.8,0.4-1.3,0.4-1.6c0-0.2-0.1-0.3-0.2-0.4
				c-0.1-0.1-0.3-0.2-0.6-0.2v-0.3h2.3v0.3c-0.2,0-0.4,0.1-0.6,0.3c-0.1,0.2-0.4,0.7-0.7,1.6l-2,5.2c-0.5,1.3-0.9,2.1-1.1,2.4
				c-0.3,0.4-0.8,0.6-1.3,0.6c-0.4,0-0.7-0.1-1-0.4c-0.3-0.2-0.4-0.5-0.4-0.9c0-0.3,0.1-0.5,0.3-0.7c0.2-0.2,0.4-0.3,0.7-0.3
				c0.2,0,0.5,0.1,0.6,0.2c0.2,0.2,0.2,0.4,0.2,0.7c0,0.2,0,0.3,0.1,0.4c0,0.1,0.1,0.1,0.2,0.1c0.1,0,0.2-0.1,0.4-0.2
				c0.2-0.2,0.4-0.7,0.7-1.4L237.9,127.7z"/>
		</g>
	</g>
</g>
</svg>
