<?xml version="1.0" encoding="UTF-8" standalone="no"?>
<svg width="140px" height="108px" viewBox="0 0 140 108" version="1.1" xmlns="http://www.w3.org/2000/svg" xmlns:xlink="http://www.w3.org/1999/xlink" style="color:black">
    <!-- Generator: Sketch 46 (44423) - http://www.bohemiancoding.com/sketch -->
    <title>COA v5 (1)</title>
    <desc>Created with Sketch.</desc>
    <defs></defs>
    <g id="Page-1" stroke="none" stroke-width="1" fill="white" fill-rule="evenodd">
        <g id="COA-v5-(1)">
            <g id="CoA2-v2" fill-rule="nonzero">
                <path d="M86.0603654,27.6745095 L53.7539214,27.6745095 L53.7539214,53.1265937 C53.7539214,55.3338568 54.9058271,57.3829305 56.7959646,58.5384253 L69.8657485,66.52672 L83.005945,58.5365095 C84.9032338,57.3826568 86.0603654,55.3294779 86.0603654,53.1170147 L86.0603654,27.6745095 Z M84.8751788,28.8538147 L84.8751788,53.1170147 C84.8751788,54.9060884 83.9221336,56.5971832 82.3879096,57.5301726 L69.8673988,65.1437937 L57.4164754,57.5334568 C55.8883026,56.5996463 54.9391081,54.9107411 54.9391081,53.1265937 L54.9391081,28.8538147 L84.8751788,28.8538147 L84.8751788,28.8538147 Z" id="Fill-1" fill="white"></path>
                <path d="M80.8254656,54.6581853 L74.6968212,58.4079326 L74.6968212,46.2484168 L81.8607505,46.2484168 L81.8607505,52.8151958 C81.8607505,53.5612589 81.4641297,54.2673642 80.8254656,54.6581853 L80.8254656,54.6581853 Z M69.8900629,61.3486695 L66.2849941,59.1466063 L66.2849941,46.2484168 L73.5116346,46.2484168 L73.5116346,59.1329221 L69.8900629,61.3486695 Z M57.8987466,52.8135537 L57.8987466,46.2484168 L65.0998075,46.2484168 L65.0998075,58.4227116 L58.9354067,54.6573642 C58.2959175,54.2668168 57.8987466,53.5601642 57.8987466,52.8135537 Z M57.8987466,45.0691116 L57.8987466,31.8014484 L65.0998075,31.8014484 L65.0998075,45.0691116 L57.8987466,45.0691116 Z M66.2849941,45.0691116 L66.2849941,31.8014484 L73.5116346,31.8014484 L73.5116346,45.0691116 L66.2849941,45.0691116 Z M74.6965462,45.0691116 L74.6965462,31.8014484 L81.8607505,31.8014484 L81.8607505,45.0691116 L74.6965462,45.0691116 Z M56.7135599,30.6221432 L56.7135599,52.8135537 C56.7135599,53.9756168 57.3200432,55.05448 58.315446,55.6623326 L69.890613,62.7326905 L81.4462515,55.66288 C82.440279,55.05448 83.0459371,53.9764379 83.0459371,52.8151958 L83.0459371,30.6221432 L56.7135599,30.6221432 Z" id="Fill-3" fill="white"></path>
                <path d="M30.5915403,61.0102589 C30.5915403,61.4227011 30.2554303,61.7568695 29.8412063,61.7568695 C29.4267073,61.7568695 29.0905972,61.4227011 29.0905972,61.0102589 C29.0905972,60.5978168 29.4267073,60.2636484 29.8412063,60.2636484 C30.2554303,60.2636484 30.5915403,60.5978168 30.5915403,61.0102589" id="Fill-5" fill="white"></path>
                <path d="M84.3282711,39.3069095 C84.3282711,39.5206568 84.154165,39.6936253 83.9396267,39.6936253 C83.7248134,39.6936253 83.5507073,39.5206568 83.5507073,39.3069095 C83.5507073,39.0931621 83.9396267,38.51432 83.9396267,38.51432 C83.9396267,38.51432 84.3282711,39.0931621 84.3282711,39.3069095" id="Fill-7" fill="white"></path>
                <path d="M84.3282711,29.9636863 C84.3282711,30.1774337 84.154165,30.3504021 83.9396267,30.3504021 C83.7248134,30.3504021 83.5507073,30.1774337 83.5507073,29.9636863 C83.5507073,29.7499389 83.9396267,29.1710968 83.9396267,29.1710968 C83.9396267,29.1710968 84.3282711,29.7499389 84.3282711,29.9636863" id="Fill-9" fill="white"></path>
                <path d="M77.1940472,29.9636863 C77.1940472,30.1774337 77.0199411,30.3504021 76.8054028,30.3504021 C76.5905894,30.3504021 76.4164833,30.1774337 76.4164833,29.9636863 C76.4164833,29.7499389 76.8054028,29.1710968 76.8054028,29.1710968 C76.8054028,29.1710968 77.1940472,29.7499389 77.1940472,29.9636863" id="Fill-11" fill="white"></path>
                <path d="M70.2847308,29.9636863 C70.2847308,30.1774337 70.1106248,30.3504021 69.8960864,30.3504021 C69.6812731,30.3504021 69.507167,30.1774337 69.507167,29.9636863 C69.507167,29.7499389 69.8960864,29.1710968 69.8960864,29.1710968 C69.8960864,29.1710968 70.2847308,29.7499389 70.2847308,29.9636863" id="Fill-13" fill="white"></path>
                <path d="M62.9400668,29.9636863 C62.9400668,30.1774337 62.7659607,30.3504021 62.5514224,30.3504021 C62.336609,30.3504021 62.1625029,30.1774337 62.1625029,29.9636863 C62.1625029,29.7499389 62.5514224,29.1710968 62.5514224,29.1710968 C62.5514224,29.1710968 62.9400668,29.7499389 62.9400668,29.9636863" id="Fill-15" fill="white"></path>
                <path d="M56.1642043,29.9636863 C56.1642043,30.1774337 55.9900982,30.3504021 55.7755599,30.3504021 C55.5607466,30.3504021 55.3866405,30.1774337 55.3866405,29.9636863 C55.3866405,29.7499389 55.7755599,29.1710968 55.7755599,29.1710968 C55.7755599,29.1710968 56.1642043,29.7499389 56.1642043,29.9636863" id="Fill-17" fill="white"></path>
                <path d="M56.1642043,39.2211368 C56.1642043,39.4348842 55.9900982,39.6078526 55.7755599,39.6078526 C55.5607466,39.6078526 55.3866405,39.4348842 55.3866405,39.2211368 C55.3866405,39.0073895 55.7755599,38.4285474 55.7755599,38.4285474 C55.7755599,38.4285474 56.1642043,39.0073895 56.1642043,39.2211368" id="Fill-19" fill="white"></path>
                <path d="M84.3282711,48.7249032 C84.3282711,48.9386505 84.154165,49.1116189 83.9396267,49.1116189 C83.7248134,49.1116189 83.5507073,48.9386505 83.5507073,48.7249032 C83.5507073,48.5111558 83.9396267,47.9323137 83.9396267,47.9323137 C83.9396267,47.9323137 84.3282711,48.5111558 84.3282711,48.7249032" id="Fill-21" fill="white"></path>
                <path d="M56.1642043,48.6391305 C56.1642043,48.8528779 55.9900982,49.0258463 55.7755599,49.0258463 C55.5607466,49.0258463 55.3866405,48.8528779 55.3866405,48.6391305 C55.3866405,48.4253832 55.7755599,47.8465411 55.7755599,47.8465411 C55.7755599,47.8465411 56.1642043,48.4253832 56.1642043,48.6391305" id="Fill-23" fill="white"></path>
                <path d="M57.0698585,55.8070295 C57.0698585,56.0207768 56.8957525,56.1937453 56.6812141,56.1937453 C56.4664008,56.1937453 56.2922947,56.0207768 56.2922947,55.8070295 C56.2922947,55.5932821 56.6812141,55.01444 56.6812141,55.01444 C56.6812141,55.01444 57.0698585,55.5932821 57.0698585,55.8070295" id="Fill-25" fill="white"></path>
                <path d="M83.308334,55.8070295 C83.308334,56.0207768 83.1342279,56.1937453 82.9196896,56.1937453 C82.7048762,56.1937453 82.5307701,56.0207768 82.5307701,55.8070295 C82.5307701,55.5932821 82.9196896,55.01444 82.9196896,55.01444 C82.9196896,55.01444 83.308334,55.5932821 83.308334,55.8070295" id="Fill-27" fill="white"></path>
                <path d="M77.5334853,59.7005979 C77.5334853,59.9143453 77.3593792,60.0873137 77.1448409,60.0873137 C76.9300275,60.0873137 76.7559214,59.9143453 76.7559214,59.7005979 C76.7559214,59.4868505 77.1448409,58.9080084 77.1448409,58.9080084 C77.1448409,58.9080084 77.5334853,59.4868505 77.5334853,59.7005979" id="Fill-29" fill="white"></path>
                <path d="M69.8960864,64.2707958 C69.6812731,64.2707958 69.507167,64.0978274 69.507167,63.88408 C69.507167,63.6703326 69.8960864,63.0914905 69.8960864,63.0914905 C69.8960864,63.0914905 70.2847308,63.6703326 70.2847308,63.88408 C70.2847308,64.0978274 70.1106248,64.2707958 69.8960864,64.2707958 Z" id="Fill-31" fill="white"></path>
                <path d="M62.9605855,59.7998905 C62.9605855,60.0136379 62.7864794,60.1866063 62.5719411,60.1866063 C62.3571277,60.1866063 62.1830216,60.0136379 62.1830216,59.7998905 C62.1830216,59.5861432 62.5719411,59.0073011 62.5719411,59.0073011 C62.5719411,59.0073011 62.9605855,59.5861432 62.9605855,59.7998905" id="Fill-33" fill="white"></path>
                <polygon id="Fill-38" fill="white" points="69.6964283 38.0992232 69.6964283 37.6320442 69.274778 37.5518547 69.6048369 37.2116653 69.4013006 36.8356232 69.8314774 36.8813284 70.092224 36.4253705 70.3480196 36.8736653 70.7864479 36.8356232 70.579336 37.2116653 70.91022 37.5518547 70.489945 37.6320442 70.489945 38.0992232 70.092224 37.8022758"></polygon>
                <polygon id="Fill-40" fill="white" points="67.639391 40.74616 67.639391 40.2803495 67.2177407 40.1998863 67.5488998 39.8586021 67.3431631 39.4836547 67.7744401 39.5282653 68.0362868 39.0734021 68.2909823 39.5227916 68.7280354 39.4836547 68.5236739 39.8586021 68.8531827 40.1998863 68.4329077 40.2803495 68.4329077 40.74616 68.0362868 40.4503074"></polygon>
                <polygon id="Fill-42" fill="white" points="71.1344401 40.4035347 71.1344401 39.9363558 70.71389 39.8572611 71.0439489 39.5148821 70.8406876 39.13884 71.2719646 39.18564 71.5335363 38.7307768 71.7882318 39.1790716 72.2255599 39.13884 72.0220236 39.5148821 72.3504322 39.8572611 71.9312574 39.9363558 71.9312574 40.4035347 71.5335363 40.1065874"></polygon>
                <polygon id="Fill-44" fill="white" points="71.5350216 42.39248 71.5350216 42.1278274 71.2968291 42.0832168 71.4835874 41.8908168 71.3672417 41.6773432 71.6112102 41.7038905 71.7586365 41.4471747 71.9027623 41.7006063 72.1497564 41.6773432 72.0345108 41.8908168 72.220169 42.0832168 71.9830766 42.1278274 71.9830766 42.39248 71.7586365 42.2244379"></polygon>
                <polygon id="Fill-46" fill="white" points="68.2927701 44.5950905 68.2927701 43.7953853 67.5718664 43.6599116 68.1362672 43.07368 67.7864047 42.4307958 68.5254617 42.5074274 68.9735167 41.7279747 69.4102947 42.4973011 70.1603536 42.4307958 69.809391 43.07368 70.3740668 43.6599116 69.6542633 43.7953853 69.6542633 44.5950905 68.9735167 44.0879537"></polygon>
                <path d="M71.6571434,33.8022168 L71.184609,34.8624695 L70.9164361,34.8624695 L71.1782829,33.6374589 C71.218165,33.5110168 71.3606405,33.4973326 71.419776,33.4973326 C71.4489312,33.4973326 71.4783615,33.5006168 71.4995403,33.5063642 C71.5729784,33.5263432 71.6230373,33.5638379 71.649167,33.6177537 C71.6871238,33.6963011 71.6645697,33.7855221 71.6571434,33.8022168 L71.6571434,33.8022168 Z M68.1304637,33.8134379 C68.1249627,33.7989326 68.1051591,33.7086168 68.1442161,33.6319853 C68.171446,33.5777958 68.2237053,33.5397537 68.300444,33.5181326 C68.3218978,33.5115642 68.350778,33.5080063 68.3799332,33.5080063 C68.4371434,33.5080063 68.5752181,33.5222379 68.6211513,33.6495011 L68.8821729,34.8777958 L68.6104244,34.8777958 L68.1304637,33.8134379 Z M69.0700314,33.4759853 C69.1313674,33.4048274 69.2215835,33.3665116 69.3384794,33.3624063 C69.3461807,33.3618589 69.3538821,33.3615853 69.3615835,33.3615853 C69.6710138,33.3615853 69.6982436,33.6574379 69.6990688,33.6661958 L69.7095206,34.8624695 L69.2446876,34.8624695 L68.9883418,33.6864484 C68.9869666,33.6730379 68.9941179,33.5641116 69.0700314,33.4759853 L69.0700314,33.4759853 Z M70.8058664,33.6897326 L70.5495206,34.8624695 L70.0789116,34.8624695 L70.0948644,33.6703011 C70.0956896,33.6577116 70.1237446,33.3615853 70.4306994,33.3615853 C70.4381257,33.3615853 70.4458271,33.3618589 70.4540786,33.3624063 C70.781387,33.3741747 70.8042161,33.6464905 70.8058664,33.6897326 L70.8058664,33.6897326 Z M71.9250413,33.4029116 C71.8430766,33.2753747 71.7085776,33.1856063 71.5468487,33.1503011 C71.5160432,33.1429116 71.481387,33.1393537 71.4437053,33.1393537 C71.3771434,33.1393537 71.2121139,33.1524905 71.0391081,33.2688063 C70.9145108,33.1295011 70.7104244,33.0088063 70.4967112,32.9929326 C70.4909352,32.9904695 70.4912102,32.9860905 70.4835088,32.9841747 C69.9818193,32.8454168 69.8885776,32.28108 69.8885776,32.28108 C69.8885776,32.28108 69.823666,32.8547221 69.3494813,32.9748695 C69.3395796,32.9773326 69.3384794,32.9825326 69.331053,32.9858168 C69.1277917,32.9907432 68.9099528,33.0972063 68.759501,33.2682589 C68.5906208,33.1524905 68.4239411,33.1393537 68.356554,33.1393537 C68.3180472,33.1393537 68.2825658,33.1429116 68.2514853,33.1500274 C67.9329784,33.2217326 67.7456699,33.5041747 67.8053556,33.8216484 C67.8149823,33.8758379 67.9035481,34.0816484 68.0586758,34.4407221 C68.1747466,34.70948 68.30622,35.0143642 68.3758075,35.1985537 L68.3892849,35.2338589 L68.3920354,35.2338589 L68.3920354,36.0179642 L71.4131749,36.0179642 L71.4131749,35.2237326 L71.4228016,35.1985537 C71.4879882,35.0250379 71.6065344,34.7524484 71.7212299,34.4888905 C71.9055128,34.0652274 71.9869273,33.8736484 71.9916031,33.8238379 C72.0259843,33.6703011 72.0028802,33.5247011 71.9250413,33.4029116 L71.9250413,33.4029116 Z" id="Fill-48" fill="white"></path>
                <path d="M80.8557485,52.5432358 C80.5540196,52.4266463 80.7641572,51.8439726 80.6970452,51.5645411 C80.6640393,51.4274253 80.6035285,51.3954042 80.7102475,51.3127516 C80.7825855,51.2563726 80.964943,51.2744358 81.0570845,51.22572 C81.2452181,51.1263726 81.3725658,50.9323305 81.3725658,50.7172147 C81.3725658,49.9867516 80.3136267,49.9883937 79.8091866,50.0518884 C79.5855717,50.0800779 79.3616817,50.1405621 79.1342161,50.1315305 C78.8415639,50.1203095 78.7573988,49.8723516 79.0838821,49.8266463 C79.2403851,49.8047516 79.4010138,49.8600358 79.5588919,49.8698884 C79.8196385,49.8865832 79.9480864,49.7587726 80.1799528,49.6974674 C80.4508762,49.6257621 80.5996778,49.7360568 80.7990884,49.4547095 C80.8293438,49.4120147 80.9443143,49.27052 80.8959057,49.2078463 C80.8488723,49.1468147 80.6370845,49.29652 80.5680472,49.3022674 C80.3017996,49.3249832 80.130169,49.1260147 79.8724479,49.2817411 C79.755277,49.3526253 79.6975167,49.4867305 79.5924479,49.5608989 C79.4758271,49.6435516 79.3217996,49.6178253 79.1873006,49.6153621 C78.9350806,49.6109832 78.6583811,49.6495726 78.5948448,49.9440568 C78.5247073,50.2691937 78.9075756,50.4178042 79.1699725,50.4106884 C79.7043929,50.3961832 80.3925658,50.1019726 80.8824283,50.4273832 C81.0584597,50.5442463 81.1305226,50.8034253 80.9440393,50.9506674 C80.7446287,51.1080358 80.4109941,50.9944568 80.2008566,50.9306884 C79.6799136,50.7724989 79.2238821,50.7410253 78.6875363,50.8075305 C78.573391,50.8214884 78.4149627,50.8573411 78.3010923,50.8277832 C78.2757878,50.8214884 78.2557092,50.8132779 78.2389312,50.8039726 C78.2796385,50.7757832 78.3208959,50.7027095 78.3274971,50.6594674 C78.3274971,50.5491726 78.1283615,50.5190674 78.09178,50.4279305 C78.0551984,50.3359726 78.1082829,50.2615305 78.0532731,50.16492 C78.0290688,50.1224989 77.9781847,50.1049832 77.9495796,50.0694042 C77.9245501,50.0384779 77.8802672,49.9697832 77.8607387,49.9500779 C77.7721729,49.8600358 77.6816817,49.8181621 77.5482829,49.8033832 C77.5482829,49.6722884 77.8258075,49.6170042 77.7760236,49.3898463 C77.7182633,49.1254674 77.6035678,49.3427726 77.4613674,49.2598463 C77.4613674,49.1591305 77.5441572,49.0012147 77.4151591,48.9327937 C77.2946876,48.8690253 77.2490295,49.0299516 77.1414853,49.0627937 C77.0691473,48.7710463 76.9951591,48.9787726 76.8062004,49.0688147 C76.7066326,49.1161621 76.5878114,49.08332 76.4832927,49.1465411 C76.3917014,49.2020989 76.4043536,49.2781832 76.3339411,49.3383937 C76.2739804,49.3895726 76.2041179,49.3824568 76.1246287,49.3986042 C76.0583418,49.4120147 75.9408959,49.4029832 75.8979882,49.46812 C75.8696582,49.5110884 75.9395206,49.7669832 75.9678507,49.8206253 C76.0792456,50.0330042 76.1873399,49.9525411 76.3628212,49.9944147 C76.6480472,50.0625621 76.355945,50.1827095 76.1829391,50.1851726 C76.1001493,50.1862674 75.7024283,50.2122674 75.9736267,50.3411726 C76.0852967,50.3942674 76.4073792,50.2166463 76.484943,50.1504147 C76.7121336,50.3764779 75.9653752,50.3187305 76.3460432,50.5519095 C76.4555128,50.6189621 76.6282436,50.5842042 76.6034892,50.7158463 C76.5949627,50.7607305 76.5121729,50.7976779 76.4923694,50.8450253 C76.46789,50.90332 76.5000707,50.9703726 76.4824676,51.0251095 C76.4458861,51.1381411 76.3350413,51.2013621 76.3339411,51.3475095 C76.333666,51.3680358 76.3366916,51.3954042 76.3416424,51.4260568 C76.16011,51.4405621 75.9466719,51.55332 75.7951198,51.4066253 C75.6276149,51.2446042 75.823725,50.9856989 75.6523694,50.8406463 C75.5588527,50.7615516 75.3272613,50.77332 75.2257682,50.8217621 C75.0348841,50.9131726 74.9674971,51.0924358 75.1512299,51.1244568 C75.0475363,51.1562042 74.9276149,51.2760779 74.9276149,51.3704989 C74.9276149,51.3937621 74.9328409,51.4110042 74.950444,51.42852 C75.0203065,51.4224989 75.1366523,51.5500358 75.2004637,51.5500358 C75.2378703,51.5401832 75.2744519,51.5284147 75.3107583,51.5150042 C75.3245108,51.5938253 75.3522908,51.7698042 75.4474578,51.8042884 C75.5112692,51.8272779 75.5517014,51.7676147 75.6050609,51.7774674 C75.616888,51.7796568 75.7104047,51.8201621 75.6922515,51.8171516 C75.6974774,51.8880358 75.7271827,51.9050042 75.7816424,51.8677832 C75.8091473,51.8486253 75.8366523,51.8450674 75.8641572,51.8573832 C75.9783026,51.8773621 76.0613674,51.8866674 76.1785383,51.8973411 C76.2990098,51.9085621 76.4087544,52.0158463 76.5138232,52.0410253 C76.4409352,52.0755095 76.3570452,52.1017832 76.3570452,52.1452989 C76.5908369,52.1452989 76.787222,52.2503937 76.899167,52.0111937 C76.9043929,52.2960989 76.9178703,52.93652 76.7168094,52.9986463 C76.5586562,53.0476358 76.4918193,52.8670042 76.3188134,52.9726463 C76.1427819,53.0799305 76.1521336,53.24332 76.3210138,53.3451305 C76.3210138,53.3640147 76.322664,53.3820779 76.3262397,53.3987726 C76.378499,53.6486463 76.6447466,53.4272358 76.6942554,53.6546674 C76.7330373,53.6163516 76.9071434,53.5268568 76.9558271,53.4515937 C76.9761807,53.46692 77.0012102,53.4778674 77.0311906,53.4816989 C77.1832927,53.5008568 77.285611,53.20692 77.3276935,53.1053832 C77.4289116,52.8618042 77.5372809,52.5232568 77.7663969,52.3327726 C77.9171238,52.2074253 78.2389312,52.2211095 78.4375167,52.1452989 C78.5060039,52.1192989 78.5874185,52.0960358 78.6663576,52.0692147 C78.5722908,52.2654463 78.8170845,52.5489832 78.9260039,52.6600989 C79.0525265,52.7892779 79.2208566,53.0429832 78.9062004,53.0916989 C78.7169666,53.1209832 78.5703654,52.8932779 78.3808566,53.0517411 C78.2086758,53.1959726 78.3739804,53.4088989 78.4551198,53.5681832 C78.5406601,53.4217621 78.6372024,53.4641832 78.5890688,53.6201832 C78.6990884,53.5648989 78.657556,53.5922674 78.7480472,53.5941832 C78.7606994,53.6144358 78.7736267,53.6346884 78.786554,53.6546674 C78.8181847,53.6475516 78.84789,53.6355095 78.8756699,53.6190884 C78.9235285,53.6103305 79.161721,53.4485832 79.088558,53.4466674 C79.2494617,53.4510463 79.3847859,53.2843726 79.4827033,53.16012 C79.5770452,53.04052 79.5786955,53.0626884 79.7008173,52.9972779 C79.7962593,52.9458253 79.878224,52.9346042 79.8317407,52.7766884 C79.7715049,52.5727937 79.3790098,52.5903095 79.4210923,52.2862463 C79.4315442,52.2109832 79.5173595,52.1494042 79.5374381,52.07332 C79.5641179,51.9723305 79.5388134,51.82372 79.5360629,51.7232779 C79.7723301,51.6803095 79.8215639,51.9906674 79.8619961,52.1529621 C79.9164558,52.36972 79.9530373,52.5240779 80.1664754,52.6398463 C80.3359057,52.7318042 80.6260825,52.7014253 80.735002,52.8880779 C80.8235678,53.0396989 80.7894617,53.2520779 80.6593635,53.3418463 C80.5232141,53.3114674 80.4467505,53.3100989 80.3939411,53.3530674 C80.3925658,53.3541621 80.3117014,53.4143726 80.2676935,53.4581621 C80.2113084,53.5139937 80.1799528,53.5996568 80.2104833,53.6721832 C80.3722122,53.6721832 80.3125265,53.5613411 80.3557092,53.7764568 C80.4781061,53.7452568 80.5650216,53.6300358 80.5650216,53.8459726 C80.6819175,53.8311937 80.7845108,53.7553832 80.9077328,53.7416989 C80.9709941,53.7348568 81.0194028,53.7770042 81.0804637,53.7438884 C81.2289902,53.6628779 81.1816817,53.3087305 81.1687544,53.1784568 C81.1621532,53.1111305 81.1368487,53.0342253 81.1448251,52.9655305 C81.155002,52.8804147 81.2309155,52.8024147 81.2377917,52.7246884 C81.2586955,52.4794674 81.0086758,52.6023516 80.8557485,52.5432358" id="Fill-50" fill="white"></path>
                <path d="M64.4007151,38.6489179 L64.4007151,39.0539705 L64.0555285,38.7967074 L63.7106169,39.0539705 L63.7106169,38.6489179 L63.3439764,38.5791284 L63.6316778,38.2821811 L63.4528959,37.9562232 L63.8280629,37.9948126 L64.0555285,37.5993389 L64.2772181,37.99016 L64.657336,37.9562232 L64.4793792,38.2821811 L64.7659804,38.5791284 L64.4007151,38.6489179 Z M62.7234656,38.3010653 C62.6849587,38.3213179 62.6084951,38.3139284 62.5782397,38.3374653 C62.5336817,38.3722232 62.5589862,38.38536 62.5727387,38.4428337 C62.6007937,38.5596968 62.512778,38.8035495 62.6393006,38.8525389 C62.703112,38.8771705 62.8079057,38.8257179 62.7991041,38.9283495 C62.7963536,38.9609179 62.7644479,38.9934863 62.7603222,39.0293389 C62.7567466,39.0580758 62.7674735,39.0900968 62.770224,39.1182863 C62.7754499,39.1727495 62.7952534,39.3210863 62.7330923,39.3550232 C62.7077878,39.3689811 62.6874342,39.3511916 62.6610295,39.3542021 C62.6093202,39.3599495 62.5664126,39.3914232 62.5174538,39.3977179 C62.5174538,39.3074021 62.4811473,39.3555705 62.4299882,39.3684337 C62.411835,39.2783916 62.4368644,39.3249179 62.3692024,39.3249179 C62.356275,39.2945389 62.3694774,39.2586863 62.3931316,39.2354232 C62.4112849,39.2170863 62.445391,39.1919074 62.4459411,39.19136 C62.467945,39.1732968 62.4998507,39.1738442 62.5570609,39.1867074 C62.6115206,39.1492126 62.6255481,39.0602653 62.5886916,38.9967705 C62.5430334,38.9187705 62.4214617,38.93136 62.3507741,38.8930442 C62.2613831,38.8443284 62.2459804,38.7797389 62.2231513,38.6891495 C62.2063733,38.6210021 62.1857446,38.4912758 62.0867269,38.5093389 C62.0878271,38.5512126 62.098554,38.6133389 62.0875521,38.65576 C62.0790255,38.6875074 62.0429941,38.7132337 62.0385933,38.7449811 C62.0212652,38.8722442 62.1854695,38.8648547 62.210499,38.9502442 C62.2300275,39.0162021 62.1956464,39.0208547 62.1557642,39.0424758 C62.1046051,39.0698442 62.10378,39.0605389 62.0644479,39.1106232 C62.0234656,39.1626232 61.9668055,39.2324126 61.8996935,39.2304968 C61.930224,39.2313179 61.8303811,39.2991916 61.8105776,39.3027495 C61.7987505,39.3095916 61.7863733,39.3145179 61.7731709,39.3175284 C61.7676699,39.3093179 61.762444,39.3008337 61.756943,39.2923495 C61.7192613,39.2915284 61.7365894,39.2800337 61.6903811,39.3032968 C61.7107348,39.2378863 61.6703026,39.2200968 61.6342711,39.2814021 C61.6004401,39.2146232 61.5314028,39.1256758 61.6034656,39.0651916 C61.6826798,38.99896 61.7440157,39.0942021 61.8232299,39.0818863 C61.9549784,39.0616337 61.8845658,38.9554442 61.8314813,38.9012547 C61.7858232,38.8550021 61.6835049,38.7362232 61.7228369,38.6541179 C61.689831,38.6653389 61.655725,38.6749179 61.6271198,38.6858653 C61.54378,38.7176126 61.4092809,38.7118653 61.3460196,38.7644126 C61.2503026,38.8440547 61.2049194,38.9858232 61.1625619,39.0876337 C61.1449587,39.1303284 61.1020511,39.2532126 61.0385147,39.2452758 C61.0258625,39.2436337 61.0154106,39.2389811 61.0068841,39.2326863 C60.9865305,39.26416 60.9136424,39.3016547 60.8974145,39.3175284 C60.8767859,39.22256 60.7651159,39.3150653 60.743387,39.2105179 C60.7420118,39.2036758 60.7411866,39.1960126 60.7411866,39.1880758 C60.670499,39.1453811 60.6666483,39.07696 60.7403615,39.0320758 C60.8126994,38.9880126 60.8407544,39.0635495 60.9070413,39.0430232 C60.9909312,39.0170232 60.9854303,38.7490863 60.9832299,38.62976 C60.9364715,38.7299284 60.8542318,38.6858653 60.7563143,38.6858653 C60.7563143,38.6675284 60.7915206,38.6565811 60.821776,38.6423495 C60.7780432,38.6316758 60.73211,38.5867916 60.681501,38.5821389 C60.6325422,38.5774863 60.597611,38.5736547 60.5500275,38.5654442 C60.5384754,38.5602442 60.5269234,38.5616126 60.5153713,38.5698232 C60.4928173,38.5854232 60.480165,38.5783074 60.4779646,38.5484758 C60.485666,38.5498442 60.446334,38.5328758 60.4413831,38.5320547 C60.4191041,38.5276758 60.4023261,38.5528547 60.3756464,38.5430021 C60.3357642,38.5287705 60.3242122,38.4551495 60.3184361,38.4220337 C60.3033084,38.4277811 60.2879057,38.4324337 60.2722279,38.4368126 C60.2455481,38.4368126 60.1968644,38.3834442 60.1674342,38.3859074 C60.1602829,38.3785179 60.1578075,38.3714021 60.1578075,38.3615495 C60.1578075,38.3221389 60.2081415,38.2720547 60.2515992,38.2586442 C60.1745855,38.2452337 60.2029155,38.1702442 60.2826798,38.1319284 C60.3253124,38.1116758 60.4221297,38.1067495 60.4611866,38.1398653 C60.5329745,38.2006232 60.4510098,38.3087284 60.5211473,38.3768758 C60.5844086,38.4381811 60.6737996,38.3908337 60.7499882,38.3848126 C60.7477878,38.3722232 60.7464126,38.3604547 60.7466876,38.3519705 C60.7472377,38.2909389 60.793446,38.2643916 60.8088487,38.2170442 C60.816275,38.1940547 60.8027976,38.1661389 60.8129745,38.1417811 C60.8212259,38.1218021 60.8558821,38.1064758 60.8594578,38.0875916 C60.8699096,38.0325811 60.7975717,38.0470863 60.7516385,38.0188968 C60.5923851,37.9214653 60.9048409,37.9455495 60.8099489,37.8508547 C60.7772181,37.8784968 60.6427191,37.9529389 60.5956857,37.9307705 C60.4820904,37.8768547 60.6487701,37.8659074 60.6834263,37.86536 C60.7557642,37.8645389 60.8781611,37.8141811 60.7587898,37.7857179 C60.6853517,37.7682021 60.6399686,37.8018653 60.5932102,37.7129179 C60.5816582,37.6904758 60.5522279,37.5831916 60.564055,37.5654021 C60.5819332,37.5380337 60.631167,37.5418653 60.658947,37.5361179 C60.6922279,37.5295495 60.7213831,37.53256 60.7464126,37.5112126 C60.7761179,37.48576 60.7708919,37.4540126 60.8091238,37.4307495 C60.8528566,37.4044758 60.9026405,37.41816 60.9441729,37.3981811 C61.023387,37.3606863 61.0541925,37.2736547 61.084723,37.3957179 C61.129556,37.3820337 61.1488094,37.3147074 61.1991434,37.3412547 C61.253053,37.3699916 61.2183969,37.4362232 61.2183969,37.4780968 C61.2780825,37.5128547 61.3259411,37.4219916 61.3501454,37.53256 C61.3710491,37.6278021 61.2547033,37.6507916 61.2547033,37.7055284 C61.3108134,37.7118232 61.3484951,37.7293389 61.3856267,37.7671074 C61.3938782,37.7753179 61.4123065,37.8040547 61.4227583,37.8169179 C61.4348605,37.8319705 61.4560393,37.83936 61.4662161,37.8568758 C61.4893202,37.8973811 61.4670413,37.9285811 61.482444,37.9671705 C61.4975717,38.0052126 61.5809116,38.0178021 61.5809116,38.0640547 C61.5781611,38.0821179 61.560833,38.1124968 61.544055,38.1245389 C61.5509312,38.1283705 61.5594578,38.1316547 61.5699096,38.1343916 C61.6174931,38.1467074 61.68378,38.1319284 61.7316385,38.1259074 C61.9560786,38.0982653 62.1469627,38.1114021 62.3650766,38.1776337 C62.4530923,38.2041811 62.5928173,38.2518021 62.6761572,38.1858442 C62.7542711,38.1242653 62.7240157,38.0158863 62.6503026,37.9668968 C62.445391,37.8306021 62.1574145,37.95376 61.9335246,37.9597811 C61.82378,37.9627916 61.6637014,37.9006653 61.6928566,37.7646442 C61.7195363,37.6412126 61.835332,37.6250653 61.9409509,37.6269811 C61.997336,37.6280758 62.0616974,37.6387495 62.1103811,37.6042653 C62.154389,37.5730653 62.1785933,37.51696 62.2275521,37.4874021 C62.3353713,37.4222653 62.4071591,37.5054653 62.5188291,37.4958863 C62.5477092,37.4934232 62.636275,37.4307495 62.6560786,37.4564758 C62.6761572,37.4824758 62.6280236,37.5418653 62.6153713,37.5596547 C62.5320314,37.6776126 62.4695953,37.63136 62.356275,37.6614653 C62.2591827,37.6871916 62.2055481,37.74056 62.0963536,37.7337179 C62.0303418,37.7293389 61.9629548,37.7063495 61.8974931,37.7153811 C61.7610688,37.7345389 61.796275,37.8382653 61.9186719,37.8431916 C62.0138389,37.8467495 62.1076306,37.8215705 62.2011473,37.8098021 C62.4123851,37.7829811 62.8554892,37.7824337 62.8554892,38.0881389 C62.8554892,38.1781811 62.8021297,38.2594653 62.7234656,38.3010653 L62.7234656,38.3010653 Z M61.7291631,43.6608968 L61.7291631,44.0659495 L61.3842515,43.8086863 L61.0390648,44.0659495 L61.0390648,43.6608968 L60.6724244,43.5908337 L60.9604008,43.29416 L60.7813438,42.9682021 L61.1565108,43.0067916 L61.3842515,42.6110442 L61.6059411,43.0021389 L61.9857839,42.9682021 L61.8081022,43.29416 L62.0947033,43.5908337 L61.7291631,43.6608968 Z M60.7813438,33.3128968 L61.1565108,33.3514863 L61.3842515,32.9560126 L61.6059411,33.3468337 L61.9857839,33.3128968 L61.8081022,33.6388547 L62.0947033,33.9358021 L61.7291631,34.0055916 L61.7291631,34.4106442 L61.3842515,34.1533811 L61.0390648,34.4106442 L61.0390648,34.0055916 L60.6724244,33.9358021 L60.9604008,33.6388547 L60.7813438,33.3128968 Z M59.3637407,38.6489179 L59.3637407,39.0539705 L59.0188291,38.7967074 L58.6736424,39.0539705 L58.6736424,38.6489179 L58.307002,38.5791284 L58.5947033,38.2821811 L58.4159214,37.9562232 L58.7910884,37.9948126 L59.0188291,37.5993389 L59.2402436,37.99016 L59.6203615,37.9562232 L59.4426798,38.2821811 L59.7292809,38.5791284 L59.3637407,38.6489179 Z M63.0260196,36.83576 L63.0260196,31.0210653 L60.0026798,31.0210653 L60.0026798,36.83576 L57.3358035,36.83576 L57.3358035,39.8440968 L60.0026798,39.8440968 L60.0026798,45.6587916 L63.0260196,45.6587916 L63.0260196,39.8440968 L65.6926208,39.8440968 L65.6926208,36.83576 L63.0260196,36.83576 Z" id="Fill-52" fill="white"></path>
                <path d="M72.6548291,51.5032905 C72.4070098,51.2159221 71.9130216,51.2082589 71.8208802,50.7605116 C71.81978,50.7553116 71.8137289,50.7528484 71.8093281,50.7558589 C71.080723,51.2733958 71.8272063,51.9231221 72.1638664,52.3903011 C72.7901532,53.2597958 73.2657132,54.3942168 72.8300354,55.4593958 C72.5118035,56.2369326 71.8954185,56.5847853 71.0851238,56.6023011 C70.7443379,56.6096905 69.781666,56.6031221 69.3655167,56.5998379 C68.6721179,56.5940905 68.1121179,56.2555432 67.8541218,55.9720063 C67.3274028,55.3926168 66.8837485,54.5647221 66.7979332,53.8947432 C66.7971081,53.88708 66.8086601,53.8843432 66.8119607,53.8911853 C67.0077957,54.2877537 67.9803694,54.3901116 68.2614695,54.3928484 C68.2669705,54.3928484 68.2702711,54.3871011 68.2677957,54.3824484 L67.8805265,53.6068274 C67.8772259,53.6005326 67.8841022,53.5939642 67.8904283,53.5972484 L68.1041415,53.7121958 C68.1107426,53.7157537 68.1178939,53.7086379 68.1137682,53.7023432 C68.0018232,53.5255432 67.8615481,53.2814168 67.7388762,53.0868274 C67.7347505,53.0802589 67.7427269,53.0728695 67.749053,53.0769747 C67.8246916,53.1245958 67.8860275,53.1787853 67.9619411,53.2269537 C67.9677171,53.2307853 67.9754185,53.2247642 67.972943,53.2181958 C67.9292102,53.1021537 67.8772259,52.8785537 67.838169,52.7291221 C67.8365187,52.7228274 67.843945,52.7181747 67.849446,52.7220063 C67.9325108,52.7824905 68.0191513,52.8372274 68.1090923,52.8864905 C68.1151434,52.8897747 68.1217446,52.8840274 68.1195442,52.8777326 C68.0956149,52.8087642 68.0155756,52.57668 68.0205265,52.5780484 L68.3236306,52.7231011 C68.3305069,52.7250168 68.3357328,52.7168063 68.331057,52.7113326 L68.1731788,52.4124695 C68.168778,52.4075432 68.3555363,52.5181116 68.4559293,52.5561537 C68.4619804,52.5586168 68.4677564,52.5525958 68.4647308,52.5465747 C68.4259489,52.4693958 68.4006444,52.3361116 68.3742397,52.2537326 C68.3723143,52.2479853 68.6256346,52.3908484 68.6256346,52.3908484 C68.6314106,52.3930379 68.6371866,52.3878379 68.6352613,52.3820905 C68.6140825,52.3175011 68.5508212,52.0654379 68.5543969,52.0676274 C68.6479136,52.1251011 68.8055167,52.1664274 68.90811,52.2192484 C68.9149862,52.2228063 68.874279,51.9888063 68.8148684,51.8656484 C68.8112927,51.8582589 68.8206444,51.8519642 68.8264204,51.8579853 C68.8264204,51.8579853 69.1105462,52.0939011 69.1083458,52.0865116 C69.0673635,51.9513116 69.0607623,51.8295221 69.020055,51.6940484 C69.0175796,51.6861116 69.0280314,51.6814589 69.0327073,51.6880274 C69.1108212,51.8016063 69.2194656,51.8987642 69.2978546,52.0120695 C69.3019804,52.0175432 69.3102318,52.0153537 69.3107819,52.0085116 L69.3327859,51.7112905 C69.333336,51.7049958 69.3413124,51.7022589 69.3457132,51.7069116 C69.8295246,52.2000905 69.647442,52.6727432 70.218444,52.9436905 C71.2614303,53.4385116 71.5111749,54.1465326 71.7763222,55.0797958 C71.7776974,55.0847221 71.7947505,55.1334379 71.7988762,55.1304274 C73.1408409,54.1364063 71.0614695,52.4527011 71.019112,51.3475642 C70.996833,50.7657116 71.3092888,50.1225537 71.9963615,50.2402379 C72.8402122,50.3847432 72.4983261,51.0807221 72.6666562,51.4961747 C72.6696817,51.5035642 72.660055,51.5093116 72.6548291,51.5032905" id="Fill-54" fill="white"></path>
                <polygon id="Fill-60" fill="white" points="60.8600629 52.5725747 60.345446 53.5088484 60.6689037 53.5088484 61.0363694 52.7772905"></polygon>
                <polygon id="Fill-62" fill="white" points="62.0773202 52.5725747 62.5919371 53.5088484 62.2684794 53.5088484 61.9010138 52.7772905"></polygon>
                <path d="M64.5003379,48.5965726 C64.3732652,48.5796042 64.3630884,48.6784042 64.2533438,48.6784042 C64.4235992,48.4589095 64.6202593,48.2654147 64.6650923,47.9208463 C64.192833,48.0516674 64.008275,48.4687621 63.6152299,48.6784042 C63.6122043,48.6195621 63.6724401,48.5188463 63.6152299,48.4736884 C63.290947,49.0216042 62.3263497,49.2413726 62.2361336,49.9688253 C62.1868998,50.3659411 62.4977053,50.5068884 62.5450138,50.7882358 C62.5868212,51.0381095 62.4421454,51.1254147 62.2361336,51.1566147 C62.1459175,51.0772463 62.1032849,50.99432 62.0092181,50.8749937 C61.9883143,50.8358568 61.9674106,50.7893305 61.9478821,50.7332253 C61.8670177,50.4989516 61.908275,50.3382989 61.908275,50.3382989 L61.9426562,50.0169937 C61.9594342,49.9513095 61.9646601,49.8790568 61.9685108,49.8048884 C62.1244637,49.0861937 61.5069784,49.1447621 61.3510255,49.2725726 C61.314444,49.3024042 61.2522829,49.3453726 61.1659175,49.3749305 C61.0644244,49.4094147 60.9469784,49.3782147 60.8982947,49.4159832 C60.8188055,49.4770147 60.7607701,49.6237095 60.8982947,49.7025305 C60.8936189,49.6294568 60.9659568,49.6182358 61.0393949,49.6228884 C61.2239528,49.7090989 61.353501,49.6705095 61.3672534,49.7980463 C61.3711041,49.8385516 61.3749548,49.8188463 61.3733045,49.8445726 C61.2437564,49.9129937 61.0248173,49.9160042 60.9189234,49.9277726 C60.9747583,50.0498358 61.12411,50.0785726 61.2687859,50.1122358 C61.2635599,50.1261937 61.2055246,50.4880042 61.0990806,50.6708253 C61.028668,50.79152 60.9681572,50.8624042 60.9175481,50.9174147 C60.8221061,51.0085516 60.7280393,51.1390989 60.6306719,51.1566147 C60.5555835,51.1702989 60.3968802,51.0750568 60.3630491,50.9929516 C60.2439528,50.7028463 60.6138939,50.4838989 60.6513006,50.1735411 C60.7538939,49.3180042 59.5018703,48.94552 59.2515756,48.4736884 C59.2284715,48.5527832 59.2884322,48.6534989 59.2515756,48.6784042 C58.8805344,48.4539832 58.6841493,48.0554989 58.2223418,47.9208463 C58.262224,48.2908674 58.4927151,48.4709516 58.6547191,48.7194568 C58.5639528,48.6797726 58.5193949,48.5946568 58.3870963,48.5965726 C58.3254853,48.8710779 58.5620275,49.0218779 58.6547191,49.2109937 C58.5920079,49.1844463 58.5587269,49.1291621 58.4489823,49.1496884 C58.3986483,49.5008253 58.7820668,49.7049937 58.9017132,49.8869937 C58.7537367,49.8760463 58.5287466,49.7974989 58.407725,49.8869937 C58.5694538,50.09472 58.7925187,50.2411411 59.0252102,50.3785305 C58.7955442,50.3889305 58.6401415,50.4732253 58.469336,50.5421937 C58.5631277,50.7085937 58.8376267,50.6949095 59.0045815,50.7882358 C58.7633635,50.8484463 58.5804558,50.9666779 58.4489823,51.1360884 C58.6184126,51.2064253 58.8640314,51.2009516 59.0661925,51.23872 C58.8153477,51.3506568 58.6382161,51.5362147 58.531222,51.7915621 C58.7573124,51.7984042 58.9382947,51.7598147 59.1074499,51.7097305 C58.9487466,51.8999411 58.7905933,52.0906989 58.7369587,52.3854568 C58.9825776,52.3569937 59.1899646,52.1812884 59.354444,52.1399621 C59.1957407,52.3435832 59.085446,52.5956463 59.0252102,52.89752 C59.3398664,52.8488042 59.5439528,52.5808674 59.7249352,52.4675621 C59.6545226,52.6703621 59.6047387,52.8939621 59.5808094,53.1435621 C59.8456817,53.0724042 60.0005344,52.7825726 60.1573124,52.6722779 C60.1045029,52.8044674 60.0637957,53.0570779 60.116055,53.22512 C60.3955049,53.0187621 60.56411,52.7015621 60.7129116,52.3652042 C60.7129116,52.3652042 60.7648959,52.8991621 60.9453281,53.0176674 C61.191222,53.5283621 60.8377839,53.8469305 60.1982947,53.8748463 C60.3490216,53.9876042 60.6449745,54.0037516 60.8364086,53.9158989 C60.759945,54.0308463 60.6314971,54.0940674 60.5071749,54.1616674 C60.7327151,54.2503411 60.9604558,54.0896884 61.0630491,54.0590358 C61.0154656,54.5026779 61.2201022,54.6948042 61.4538939,54.8581937 C61.6604558,54.6674358 61.8818703,54.4914568 61.8243851,54.0387832 C61.9327544,54.1364884 62.1976267,54.2481516 62.3802593,54.1411411 C62.2430098,54.1137726 62.087057,53.9963621 62.0713792,53.9158989 C62.2432849,54.0127832 62.5777446,53.9903411 62.6888644,53.85432 C62.0237957,53.8748463 61.7036385,53.58912 61.9627348,53.0176674 C62.1371159,52.8748042 62.0854067,52.4538779 62.1948762,52.3652042 C62.3139725,52.7313937 62.4944047,53.0365516 62.7920079,53.22512 C62.8024597,53.0031621 62.7801807,52.8137726 62.7301218,52.6517516 C62.8957014,52.8490779 63.0648566,53.0425726 63.3066248,53.1638147 C63.2881965,52.9087411 63.2062318,52.6085095 63.162499,52.4470358 C63.3492574,52.6364253 63.5464676,52.8156884 63.8415953,52.89752 C63.8575481,52.6210989 63.6177053,52.3156674 63.5536189,52.1194358 C63.7153477,52.2450568 63.9144833,52.3337305 64.1504754,52.3854568 C64.1136189,52.0945305 63.8858782,51.8843411 63.8003379,51.7097305 C63.9395128,51.7628253 64.1793556,51.8238568 64.3562122,51.7710358 C64.2357407,51.5290989 64.0500825,51.3522989 63.8212417,51.2181937 C64.0605344,51.2176463 64.2918507,51.2088884 64.4384519,51.1155621 C64.2954263,50.9576463 64.0891395,50.8626779 63.8828527,50.7677095 C64.0773124,50.7085937 64.3174303,50.6949095 64.4180982,50.5421937 C64.2459175,50.4609095 64.0517328,50.40152 63.8415953,50.3580042 C64.1138939,50.2534568 64.3254067,50.0884253 64.4797092,49.8664674 C64.3135796,49.8166568 64.131222,49.8741305 63.9650923,49.8869937 C64.1631277,49.6809095 64.4197485,49.5339411 64.4590806,49.1699411 C64.3837171,49.0938568 64.2525187,49.2145516 64.2327151,49.1904674 C64.3317328,49.0842779 64.4684322,48.9063832 64.4797092,48.7807621 C64.4753084,48.8040253 64.4568802,48.8127832 64.4384519,48.8218147 C64.4835599,48.7763832 64.5652495,48.6866147 64.5003379,48.5965726" id="Fill-64" fill="white"></path>
                <polygon id="Fill-66" fill="white" points="63.7852102 2.90146316 68.157391 4.23457895 69.8354656 0.000136842105 71.5146405 4.23457895 75.8868212 2.90146316 73.6085894 6.84908421 77.380613 9.42144211 72.861556 10.1094842 73.1938153 14.6507263 69.8354656 11.5608316 66.4782161 14.6507263 66.8104754 10.1094842 62.2914185 9.42144211 66.063442 6.84908421"></polygon>
                <path d="M77.2672927,18.6718589 L75.762224,17.1745326 L77.0288251,17.1745326 C77.4559764,17.1745326 77.8041886,17.5210168 77.8041886,17.9476905 C77.8041886,18.2895221 77.5764479,18.5703221 77.2672927,18.6718589 L77.2672927,18.6718589 Z M71.9239136,18.7200274 L70.3707112,17.1745326 L72.6811238,17.1745326 L74.2343261,18.7200274 L71.9239136,18.7200274 Z M66.0505147,18.7200274 L64.4973124,17.1745326 L66.9039921,17.1745326 L68.4571945,18.7200274 L66.0505147,18.7200274 Z M77.0291002,16.7180274 L75.3037171,16.7180274 L72.2226169,16.7180274 L69.9119293,16.7180274 L66.4454853,16.7180274 L64.0385305,16.7180274 L62.6429312,16.7180274 C62.3021454,16.7180274 61.9935403,16.8556905 61.7704754,17.0781958 C61.5471356,17.3007011 61.409336,17.6080484 61.409336,17.9474168 C61.409336,18.2865116 61.5471356,18.5938589 61.7704754,18.8163642 C61.9935403,19.0385958 62.3021454,19.1762589 62.6429312,19.1762589 L66.5090216,19.1762589 L68.9159764,19.1762589 L72.3824204,19.1762589 L77.0291002,19.1762589 C77.710947,19.1762589 78.2626955,18.62588 78.2626955,17.9474168 C78.2626955,17.2684063 77.710947,16.7180274 77.0291002,16.7180274 L77.0291002,16.7180274 Z" id="Fill-68" fill="white"></path>
                <path d="M78.6896817,37.3467284 C78.6830806,37.3464547 78.6770295,37.3461811 78.6712534,37.3461811 C78.4292102,37.3461811 78.4074813,37.5796337 78.4066562,37.5894863 L78.3940039,38.5290442 L78.7650452,38.5290442 L78.9669312,37.6048126 C78.965831,37.5708758 78.9476778,37.3560337 78.6896817,37.3467284 L78.6896817,37.3467284 Z M79.5140039,37.4603074 C79.4969509,37.4559284 79.4738468,37.4531916 79.4510177,37.4531916 C79.4042593,37.4531916 79.2920393,37.4638653 79.2606837,37.5634863 L79.0541218,38.5290442 L79.2653595,38.5290442 L79.6380511,37.6934863 C79.6438271,37.6803495 79.6617053,37.6100126 79.631725,37.54816 C79.6110963,37.5054653 79.5714892,37.4761811 79.5140039,37.4603074 L79.5140039,37.4603074 Z M79.8490138,37.3787495 C79.7846523,37.2783074 79.6784833,37.2074232 79.5508605,37.1795074 C79.5269312,37.17376 79.4994263,37.1707495 79.469721,37.1707495 C79.4171866,37.1707495 79.2870884,37.1814232 79.1509391,37.2731074 C79.0461454,37.1559705 78.8720393,37.0470442 78.691332,37.0470442 C78.5307033,37.0470442 78.366499,37.1135495 78.2518035,37.2224758 C78.1354578,37.1119074 77.9756542,37.0470442 77.8161257,37.0470442 C77.6527466,37.0470442 77.4753399,37.1346232 77.3540432,37.27256 C77.2209194,37.1814232 77.089721,37.1707495 77.0363615,37.1707495 C77.0061061,37.1707495 76.9783261,37.17376 76.9535717,37.1795074 C76.7027269,37.2358863 76.5550255,37.4586653 76.6020589,37.7088126 C76.6097603,37.7515074 76.6793477,37.9138021 76.8017446,38.1967916 C76.893336,38.4086232 76.9970295,38.6486442 77.0517642,38.7939705 L77.0622161,38.8218863 L77.0646916,38.8218863 L77.0646916,39.4398653 L79.4457917,39.4398653 L79.4457917,38.8139495 L79.4532181,38.7939705 C79.5046523,38.6574021 79.598169,38.44256 79.6883851,38.2348337 C79.833611,37.9006653 79.8976974,37.7495916 79.9015481,37.7104547 C79.928778,37.5894863 79.9106248,37.4748126 79.8490138,37.3787495 L79.8490138,37.3787495 Z M77.9643772,36.7804758 L78.1574617,36.7804758 L78.1574617,37.0506021 L78.3345933,37.0506021 L78.3345933,36.7804758 L78.5257525,36.7804758 L78.5257525,36.6066863 L78.3345933,36.6066863 L78.3345933,36.4090863 L78.1574617,36.4090863 L78.1574617,36.6066863 L77.9643772,36.6066863 L77.9643772,36.7804758 Z M81.5204872,40.3848968 L79.9108998,40.1298232 L80.8947505,44.2307074 L78.2534538,43.2134232 L75.6124322,44.2307074 L76.5962829,40.1298232 L74.9866955,40.3848968 L75.5491709,38.3215916 L74.9866955,36.2582863 L76.5962829,36.5130863 L75.6124322,32.4122021 L78.2534538,33.42976 L80.8947505,32.4122021 L79.9108998,36.5130863 L81.5204872,36.2582863 L80.9580118,38.3215916 L81.5204872,40.3848968 Z M77.828778,37.3461811 C77.8227269,37.3461811 77.8164008,37.3464547 77.8103497,37.3467284 C77.7184833,37.3500126 77.6472456,37.3803916 77.5988369,37.4364968 C77.5388762,37.5057389 77.5333752,37.5914021 77.5344754,37.6020758 L77.7363615,38.5290442 L78.103002,38.5290442 L78.0947505,37.5862021 C78.0939253,37.57936 78.0724715,37.3461811 77.828778,37.3461811 L77.828778,37.3461811 Z M77.2451238,37.5730653 L77.4505855,38.54136 L77.2365972,38.54136 L76.8584047,37.7022442 C76.8540039,37.6907495 76.8386012,37.6198653 76.8691316,37.5593811 C76.8905855,37.5166863 76.9318428,37.4865811 76.9920786,37.4696126 C77.0091316,37.4644126 77.0319607,37.4614021 77.0550648,37.4614021 C77.1001729,37.4614021 77.2088173,37.4728968 77.2451238,37.5730653 L77.2451238,37.5730653 Z" id="Fill-70" fill="white"></path>
                <path d="M55.9403418,26.2353411 C54.6558625,26.2906253 53.9181807,27.3404779 53.051776,27.3593621 C52.5786916,27.3697621 52.3658035,27.05092 52.2648605,26.5506253 C52.1226601,25.4386463 52.0137407,24.3255726 52.1025815,23.2056568 C52.7965305,21.2975305 55.3242318,22.0195095 56.8749587,21.5712147 C57.8758625,21.5435726 57.9157446,20.5000147 58.0711473,19.7700989 C57.0663929,18.8776147 55.7068251,18.3299726 55.0370806,17.1161832 C54.6902436,16.2830884 53.7294971,16.1560989 52.9918153,15.8427305 C53.4263929,14.6286674 53.605725,13.3075937 53.1232888,12.0738253 C51.9072967,12.8951516 50.8348802,13.9939937 50.7232102,15.5331937 C50.0375128,14.0136989 48.7258035,12.8078463 47.2784951,12.0103305 C47.210833,13.2164568 46.9993202,14.4778674 47.3780629,15.6560779 C47.6652141,16.5447305 48.5582986,17.1041411 48.8055678,18.0007305 C48.4268251,19.3138674 48.0200275,20.6311095 47.9562161,22.0077411 C47.8924047,23.0627937 47.126943,23.8682463 46.4811277,24.6378463 C44.7230138,26.6015305 42.9049391,28.5137621 41.0469823,30.3822042 C38.116609,33.5996358 32.9102043,34.6459305 30.6856071,38.5653621 C27.9664715,42.5841411 29.285332,47.7942674 29.2773556,52.3524779 C29.4847426,55.5816779 29.5645069,59.5845832 26.6858428,61.7466884 C22.4836424,64.4006042 17.2648605,63.9205621 12.5164126,64.3412147 C11.8227387,64.4085411 10.5547623,65.0196779 11.1807741,65.8327937 C11.9143301,66.1223516 12.7155481,66.0788358 13.493112,66.0867726 C16.5511081,66.0629621 19.6091041,66.0867726 22.6671002,66.0788358 C25.2624637,66.0667937 27.9177878,65.3806674 29.9751552,63.7541621 C32.9176306,61.3936358 34.0577092,57.5453621 36.7490648,54.9587726 C37.3351945,54.9311305 37.6261965,55.6095937 37.8932692,56.0261411 C39.168947,58.6641832 38.2601847,61.6238042 38.3358232,64.4047095 C38.2720118,65.4162463 39.2088291,66.1661411 40.1816778,66.0708989 C45.0896542,66.0867726 50.0014813,66.0788358 54.9094578,66.0667937 C54.4509509,65.3330463 53.9445855,64.5355305 53.0476503,64.2935937 C49.8980629,63.2382674 46.5449391,64.0951726 43.3155874,64.0396147 C42.4544086,64.0316779 41.5852534,63.3493832 41.7046248,62.4289832 C41.7326798,59.74332 42.0995953,57.06532 42.6177878,54.4352147 C43.2836817,51.0552147 44.746943,47.5679305 43.4151552,44.1482463 C44.6311473,42.7478042 45.8353124,41.3396989 47.0273752,39.9233832 C46.130165,38.7372358 44.9779843,37.3485621 45.3487505,35.7617411 C46.5289862,39.0029832 50.1291041,40.4469411 51.6603026,43.4183305 C52.3498507,44.4577832 51.2493792,45.3940568 50.2886326,45.5963095 C51.1935442,46.3103516 52.6609312,46.3182884 53.3268251,45.2829411 C53.9685147,44.1840989 53.7374735,42.7280989 53.0674538,41.6927516 C52.0230923,39.9907095 50.8827387,38.3483305 49.7822672,36.6859726 C50.8467073,34.9814674 52.2406562,33.3089832 52.570165,31.2826253 C52.7640747,30.5102884 53.1755481,29.3446674 54.4154695,28.3793832 C54.5447426,28.2786674 55.0978664,27.8807305 56.0729155,27.85172 C57.7303615,27.8021832 58.9909116,28.8263095 60.4255678,27.8749832 C60.7217957,27.6782042 58.304664,26.1335305 55.9403418,26.2353411" id="Fill-72" fill="white"></path>
                <path d="M88.177831,16.9242758 C88.9848251,15.7176021 90.6758271,15.6645074 91.7344912,16.4866547 C92.5450609,17.2058968 92.6605815,18.4809916 92.5241572,19.5393284 C92.0873792,22.7822126 90.8191277,25.8272232 90.4593635,29.0854337 C90.3124872,31.3540021 92.6289509,32.8004232 94.4808566,32.7054547 C98.2193242,32.5341284 101.912409,30.9924653 105.678656,31.8184442 C112.7818,32.7547179 118.52565,40.2646126 118.004982,48.05996 C116.991976,47.6984232 116.135749,46.9485284 115.108715,46.6250337 C112.53013,45.7382968 109.818971,45.3422758 107.121564,45.3348863 C107.88345,46.8916021 108.7218,48.4141074 109.333234,50.0507389 C109.50789,51.4287389 109.217988,52.8217916 109.14125,54.2036232 C108.767183,57.5037074 108.896456,60.8265074 108.861525,64.1419179 C108.858224,64.8953705 108.617006,65.8852863 107.824039,66.0451179 C105.636849,66.1326968 103.446083,66.0525074 101.258892,66.0754968 C101.41622,64.8953705 102.530719,64.2483811 103.550876,64.4082126 C104.627143,64.3701705 106.42624,64.6025284 106.614923,63.0036653 C106.877045,60.0957705 106.831662,57.1533916 106.835238,54.2301705 C106.84569,51.18516 105.035866,48.6918968 103.177084,46.6288653 C102.321132,45.6925916 101.314727,44.8400653 100.084982,44.6268653 C102.003175,46.0275811 103.337713,48.3492442 103.62789,50.8463389 C103.540424,51.5466968 103.20844,52.1709705 102.92899,52.7990758 C101.430248,55.72996 100.37846,58.8929284 99.186947,61.9798126 C98.6175953,63.38436 98.369501,65.0286547 97.2690295,66.0908232 C95.0606601,66.0601705 92.8492652,66.0754968 90.6375953,66.0869916 C91.0358664,63.9590968 93.3523301,64.4388653 94.8232927,64.2940863 C95.6861218,64.3244653 96.3745697,63.6241074 96.6889509,62.7981284 C97.9957092,59.6885284 99.0893045,56.4721916 100.235159,53.2824021 C100.665061,52.1444232 100.93736,50.8082968 100.382035,49.6588232 C99.6063969,47.8089916 98.3100904,45.7306337 96.2590491,45.5935179 C91.4236857,45.0149495 86.951387,41.2162126 85.4980275,36.1158337 C84.9460039,34.3877916 85.4177132,32.5530126 85.9870648,30.9087179 C87.0039214,28.0388653 88.3247073,25.2754758 88.9570452,22.2646758 C89.1526051,21.38916 88.8976346,20.4110126 88.233666,19.85516 C87.3496582,19.0368442 86.0536267,19.42876 85.0788527,18.8540232 C85.8753949,17.7844653 87.4230963,18.0472021 88.177831,16.9242758" id="Fill-74" fill="white"></path>
                <g id="Group-78" transform="translate(0.000000, 59.579684)" fill="white">
                    <path d="M136.476483,0.0995663158 C134.927957,0.0995663158 133.668232,1.35304 133.668232,2.89360842 C133.668232,4.18676632 134.725521,5.23880842 136.024853,5.23880842 C136.328782,5.23880842 136.574951,4.99358737 136.574951,4.69144 C136.574951,4.38901895 136.328782,4.14407158 136.024853,4.14407158 C135.332279,4.14407158 134.768428,3.58329263 134.768428,2.89360842 C134.768428,1.95678737 135.534715,1.19430316 136.476483,1.19430316 C137.729607,1.19430316 138.749214,2.20885053 138.749214,3.45548211 C138.749214,4.85400842 137.708153,7.22110316 133.806306,7.22110316 L6.0429666,7.22110316 C2.14139489,7.22110316 1.10033399,4.85400842 1.10033399,3.45548211 C1.10033399,2.20885053 2.11994106,1.19430316 3.37278978,1.19430316 C4.31455796,1.19430316 5.08084479,1.95678737 5.08084479,2.89360842 C5.08084479,3.58329263 4.51699411,4.14407158 3.82442043,4.14407158 C3.52049116,4.14407158 3.2743222,4.38901895 3.2743222,4.69144 C3.2743222,4.99358737 3.52049116,5.23880842 3.82442043,5.23880842 C5.12375246,5.23880842 6.18104126,4.18676632 6.18104126,2.89360842 C6.18104126,1.35304 4.92131631,0.0995663158 3.37278978,0.0995663158 C1.51318271,0.0995663158 0.000137524558,1.60510316 0.000137524558,3.45548211 C0.000137524558,5.79630316 1.8911002,8.31584 6.0429666,8.31584 L133.806306,8.31584 C137.958448,8.31584 139.849411,5.79630316 139.849411,3.45548211 C139.849411,1.60510316 138.336365,0.0995663158 136.476483,0.0995663158" id="Fill-76"></path>
                </g>
                <path d="M36.6974381,73.0086568 L35.6954342,75.9537726 L37.6999921,75.9534989 L36.6974381,73.0086568 Z M38.6434106,78.8397726 L38.2544912,77.7132884 L35.1535874,77.7135621 L34.7643929,78.8400463 L32.4649823,78.84032 L35.4236857,71.0145937 L37.9706405,71.01432 L40.9428212,78.8394989 L38.6434106,78.8397726 Z" id="Fill-82" fill="white"></path>
                <path d="M45.9951434,78.9797347 C45.3575796,78.9797347 44.8044558,78.8973558 44.3360472,78.7336926 C43.8676385,78.5692084 43.4795442,78.3404084 43.1725894,78.0472926 C42.8656346,77.7539032 42.6373438,77.4060505 42.487442,77.0029137 C42.3378153,76.6003242 42.263277,76.1566821 42.263277,75.67144 L42.2627269,71.0138821 L44.3261454,71.0138821 L44.3266955,75.6008295 C44.3266955,76.0701979 44.463945,76.4533558 44.7392692,76.7503032 C45.0143183,77.0477979 45.4307426,77.1961347 45.9890923,77.1961347 C46.5314892,77.1961347 46.9418625,77.0477979 47.2213124,76.7503032 C47.5002122,76.4530821 47.6396621,76.0696505 47.6396621,75.6002821 L47.639387,71.0133347 L49.7025305,71.0133347 L49.7030806,75.6591242 C49.7030806,76.1443663 49.6282672,76.5901979 49.4786405,76.9966189 C49.3295639,77.4033137 49.100998,77.7536295 48.7940432,78.0467453 C48.4870884,78.3398611 48.1011945,78.5686611 47.6369116,78.7331453 C47.1720786,78.8970821 46.6250059,78.9797347 45.9951434,78.9797347" id="Fill-84" fill="white"></path>
                <path d="M55.2095363,78.9786674 C54.4077682,78.9789411 53.7256464,78.8653621 53.1639961,78.6387516 C52.6020707,78.4118674 52.1204597,78.1108147 51.7197132,77.7355937 L52.7921297,76.2218463 C53.0751552,76.5031937 53.4288684,76.7459516 53.8532692,76.9492989 C54.2776699,77.1526463 54.7612063,77.2541832 55.3036031,77.2539095 C55.6573163,77.2539095 55.9323654,77.1936989 56.1290255,77.0719095 C56.3254106,76.9509411 56.4238782,76.7963095 56.4238782,76.6088358 C56.4238782,76.4290253 56.3138585,76.2957411 56.0938193,76.2098042 C55.8735049,76.1235937 55.5984558,76.0436779 55.2683969,75.9692358 C54.9383379,75.8950674 54.580499,75.8132358 54.1951552,75.72292 C53.8100864,75.6331516 53.4525226,75.4982253 53.1224637,75.3184147 C52.7921297,75.1386042 52.5170806,74.89612 52.2967662,74.5912358 C52.0764519,74.2860779 51.9667073,73.8834884 51.9667073,73.38292 C51.9667073,73.0544989 52.0349194,72.7394884 52.1716189,72.4384358 C52.3083183,72.1373832 52.5096542,71.8730042 52.7750766,71.64612 C53.0407741,71.4195095 53.3675324,71.2375095 53.7550766,71.1006674 C54.1423458,70.9638253 54.5876503,70.8954042 55.0907151,70.8954042 C56.372169,70.8951305 57.4374342,71.2585832 58.2865108,71.9857621 L57.1780629,73.4291726 C56.8480039,73.1554884 56.4805383,72.9521411 56.075666,72.8191305 C55.6707937,72.6863937 55.2719725,72.6198884 54.8789273,72.6201621 C54.580224,72.6201621 54.3640354,72.6727095 54.2303615,72.7783516 C54.0966876,72.88372 54.0301257,73.01892 54.0301257,73.1831305 C54.0301257,73.3473411 54.1401454,73.4726884 54.3610098,73.5583516 C54.5818743,73.6448358 54.8577485,73.7247516 55.1886326,73.7986463 C55.5195167,73.8733621 55.8762554,73.9571095 56.2582986,74.0509832 C56.6406169,74.1448568 56.9973556,74.2819726 57.3282397,74.4615095 C57.6593988,74.6415937 57.9352731,74.8818884 58.1561375,75.1829411 C58.377002,75.4839937 58.4872967,75.8772779 58.4872967,76.3619726 C58.4872967,76.7530674 58.4144086,77.1110463 58.2694578,77.4353621 C58.1239568,77.7602253 57.9135442,78.0360989 57.6384951,78.2629832 C57.3631709,78.4898674 57.0212849,78.6658463 56.6128369,78.7906463 C56.2038389,78.9159937 55.7362554,78.9786674 55.2095363,78.9786674" id="Fill-86" fill="white"></path>
                <polygon id="Fill-88" fill="white" points="62.1660786 78.8372821 62.1655285 72.7716189 59.9607348 72.7718926 59.9604597 71.0121032 66.3867073 71.0112821 66.3869823 72.7710716 64.1937407 72.7713453 64.1942908 78.8370084"></polygon>
                <path d="M72.164279,74.4481537 C72.4316267,74.4481537 72.6615678,74.3759011 72.8541022,74.2311221 C73.0466365,74.0866168 73.1431788,73.8775221 73.1431788,73.6035642 C73.1431788,73.3375432 73.0466365,73.13228 72.8541022,72.9875011 C72.6615678,72.8429958 72.4316267,72.7704695 72.164279,72.7704695 L70.5607426,72.7707432 L70.5607426,74.4484274 L72.164279,74.4481537 Z M72.9195639,78.8361326 L71.5985029,76.2082168 L70.5610177,76.2084905 L70.5612927,78.8364063 L68.5333556,78.83668 L68.5325305,71.0112274 L72.4704086,71.01068 C72.9030609,71.01068 73.290055,71.0791011 73.6319411,71.2159432 C73.9738271,71.3525116 74.2607033,71.5383432 74.4928448,71.7731642 C74.7249862,72.0077116 74.9015678,72.2833116 75.0236896,72.6002379 C75.1455363,72.9168905 75.2065972,73.2554379 75.2065972,73.6150589 C75.2065972,73.9593537 75.1592888,74.2623221 75.064947,74.5242379 C74.9708802,74.7864274 74.8490334,75.0130379 74.6996817,75.2048905 C74.5503301,75.3964695 74.3814499,75.5549326 74.1924912,75.6800063 C74.0038075,75.80508 73.8192495,75.8992274 73.6382672,75.9616274 L75.2420786,78.8358589 L72.9195639,78.8361326 Z" id="Fill-90" fill="white"></path>
                <path d="M80.9011316,73.0043874 L79.8991277,75.9492295 L81.9036857,75.9492295 L80.9011316,73.0043874 Z M82.8471041,78.8352295 L82.4581847,77.7087453 L79.3572809,77.7090189 L78.9680864,78.8357768 L76.6686758,78.8357768 L79.6273792,71.0100505 L82.174334,71.0097768 L85.1465147,78.8349558 L82.8471041,78.8352295 Z" id="Fill-92" fill="white"></path>
                <polygon id="Fill-94" fill="white" points="86.9033084 78.8348737 86.9024833 71.0094211 88.9304204 71.0091474 88.9309705 77.0745368 92.0910098 77.0742632 92.0912849 78.8343263"></polygon>
                <polygon id="Fill-96" fill="white" points="94.3197053 78.8340526 94.3188802 71.0086 96.3468173 71.0083263 96.3476424 78.8337789"></polygon>
                <path d="M102.336699,73.0022253 L101.334695,75.9470674 L103.339253,75.9470674 L102.336699,73.0022253 Z M104.282672,78.8330674 L103.893752,77.7065832 L100.792849,77.7068568 L100.403654,78.8336147 L98.1042436,78.8336147 L101.062947,71.0078884 L103.609902,71.0076147 L106.582083,78.8327937 L104.282672,78.8330674 Z" id="Fill-98" fill="white"></path>
                <path d="M92.0721965,91.9990021 C91.6656739,89.9430863 89.2754971,88.0368758 86.5547112,87.4282021 C86.6696817,89.5068337 89.2067348,91.68016 92.0721965,91.9990021" id="Fill-100" fill="white"></path>
                <path d="M86.5223104,86.5774821 C89.2664754,87.1555032 91.2303261,85.7558821 91.0961022,83.7421137 C88.5678507,83.3753768 86.4601493,84.5111663 86.5223104,86.5774821" id="Fill-102" fill="white"></path>
                <path d="M98.302609,92.3616337 C97.7390334,90.3596337 95.2723929,88.7065811 92.5923143,88.3855495 C92.8679136,90.4310653 95.5004086,92.3274232 98.302609,92.3616337" id="Fill-104" fill="white"></path>
                <path d="M92.4938468,87.5464063 C95.194279,87.8356905 96.9804479,86.2502379 96.689721,84.2671221 C94.2195049,84.1631221 92.271057,85.5077326 92.4938468,87.5464063" id="Fill-106" fill="white"></path>
                <path d="M104.3678,92.1158379 C103.651572,90.1784274 101.127996,88.7727853 98.5100786,88.7221537 C98.9424558,90.7249747 101.649214,92.3490168 104.3678,92.1158379" id="Fill-108" fill="white"></path>
                <path d="M98.3463969,87.8992674 C100.982193,87.9167832 102.576927,86.1690358 102.132998,84.2266989 C99.7403458,84.3670989 97.9660039,85.8991832 98.3463969,87.8992674" id="Fill-110" fill="white"></path>
                <path d="M110.224035,91.2999305 C109.360381,89.4372358 106.798024,88.2746253 104.261796,88.4768779 C104.847375,90.4255095 107.608318,91.7838042 110.224035,91.2999305" id="Fill-112" fill="white"></path>
                <path d="M104.03466,87.6743811 C106.585741,87.4379179 107.978314,85.5489495 107.384758,83.6586126 C105.087548,84.0264442 103.50024,85.7230126 104.03466,87.6743811" id="Fill-114" fill="white"></path>
                <path d="M115.831159,89.9520905 C114.82613,88.1745116 112.242043,87.2491853 109.805933,87.6876274 C110.540039,89.5722168 113.335914,90.6688695 115.831159,89.9520905" id="Fill-116" fill="white"></path>
                <path d="M109.516884,86.9099811 C111.965096,86.4367811 113.146157,84.4295811 112.407375,82.6013705 C110.221285,83.1793916 108.832562,85.0182758 109.516884,86.9099811" id="Fill-118" fill="white"></path>
                <path d="M121.152727,88.1105242 C120.012373,86.4287347 117.423336,85.7349453 115.103847,86.3923347 C115.981528,88.2024821 118.793356,89.0437874 121.152727,88.1105242" id="Fill-120" fill="white"></path>
                <path d="M114.754919,85.6442189 C117.08376,84.9512505 118.045607,82.8482611 117.166275,81.0933979 C115.106157,81.86464 113.925371,83.8228505 114.754919,85.6442189" id="Fill-122" fill="white"></path>
                <path d="M126.15576,85.81352 C124.886959,84.23792 122.308923,83.7701937 120.120908,84.6295621 C121.136389,86.3548674 123.946566,86.9457516 126.15576,85.81352" id="Fill-124" fill="white"></path>
                <path d="M119.714193,83.9153284 C121.908809,83.0201074 122.645941,80.8437705 121.631285,79.1723811 C119.709792,80.1193284 118.744919,82.1755179 119.714193,83.9153284" id="Fill-126" fill="white"></path>
                <path d="M130.810939,83.0992295 C129.421391,81.6402189 126.86921,81.3941768 124.825595,82.4377347 C125.972825,84.0669768 128.764574,84.4131874 130.810939,83.0992295" id="Fill-128" fill="white"></path>
                <path d="M124.363815,81.7615979 C126.411006,80.6810926 126.919022,78.4541242 125.775642,76.8768821 C124.004051,77.9822926 123.260593,80.1129242 124.363815,81.7615979" id="Fill-130" fill="white"></path>
                <path d="M135.092546,80.0058863 C133.590228,78.6738653 131.077929,78.6429389 129.190542,79.8545389 C130.462644,81.3778653 133.219737,81.4851495 135.092546,80.0058863" id="Fill-132" fill="white"></path>
                <path d="M128.67642,79.2211789 C130.564633,77.9726316 130.841332,75.7172 129.575556,74.2453263 C127.963493,75.4919579 127.446126,77.6748632 128.67642,79.2211789" id="Fill-134" fill="white"></path>
                <path d="M138.978413,76.5716968 C137.372126,75.3773389 134.912912,75.5568758 133.191929,76.9184547 C134.581202,78.3260126 137.288511,78.1982021 138.978413,76.5716968" id="Fill-136" fill="white"></path>
                <path d="M132.628216,76.3323053 C134.347273,74.9335053 134.392381,72.6717789 133.01136,71.3154 C131.566802,72.6857368 131.277725,74.8987474 132.628216,76.3323053" id="Fill-138" fill="white"></path>
                <path d="M47.6346837,91.9990021 C48.0412063,89.9430863 50.4313831,88.0368758 53.152169,87.4282021 C53.0371984,89.5068337 50.5001454,91.68016 47.6346837,91.9990021" id="Fill-140" fill="white"></path>
                <path d="M53.1845972,86.5774821 C50.4407073,87.1555032 48.4763065,85.7558821 48.6108055,83.7421137 C51.139332,83.3753768 53.2467583,84.5111663 53.1845972,86.5774821" id="Fill-142" fill="white"></path>
                <path d="M41.4042711,92.3616337 C41.9678468,90.3599074 44.4344872,88.7065811 47.1145658,88.3855495 C46.8392417,90.4310653 44.2064715,92.3274232 41.4042711,92.3616337" id="Fill-144" fill="white"></path>
                <path d="M47.2130334,87.5464063 C44.5126012,87.8356905 42.7264322,86.2502379 43.0171591,84.2671221 C45.4873752,84.1631221 47.4358232,85.5077326 47.2130334,87.5464063" id="Fill-146" fill="white"></path>
                <path d="M35.3390806,92.1158379 C36.0553084,90.1784274 38.5788841,88.7727853 41.1968016,88.7221537 C40.7644244,90.7249747 38.057391,92.3490168 35.3390806,92.1158379" id="Fill-148" fill="white"></path>
                <path d="M41.3604833,87.8992674 C38.7246876,87.9167832 37.1299528,86.1690358 37.5738821,84.2266989 C39.9665344,84.3670989 41.7408762,85.8991832 41.3604833,87.8992674" id="Fill-150" fill="white"></path>
                <path d="M29.4828723,91.2999305 C30.3465265,89.4372358 32.9091591,88.2746253 35.445112,88.4768779 C34.8595324,90.4255095 32.0985894,91.7838042 29.4828723,91.2999305" id="Fill-152" fill="white"></path>
                <path d="M35.67222,87.6743811 C33.1211395,87.4379179 31.7285658,85.5489495 32.3221218,83.6586126 C34.619332,84.0264442 36.2066405,85.7232863 35.67222,87.6743811" id="Fill-154" fill="white"></path>
                <path d="M23.875721,89.9520905 C24.8807505,88.1745116 27.4648369,87.2491853 29.900947,87.6876274 C29.1668409,89.5722168 26.3712417,90.6688695 23.875721,89.9520905" id="Fill-156" fill="white"></path>
                <path d="M30.1900236,86.9099811 C27.7418114,86.4367811 26.5607505,84.4295811 27.2995324,82.6013705 C29.4856228,83.1793916 30.8743458,85.0182758 30.1900236,86.9099811" id="Fill-158" fill="white"></path>
                <path d="M18.5541532,88.1105242 C19.6945069,86.4287347 22.2832692,85.7349453 24.6030334,86.3923347 C23.7253517,88.2024821 20.9137996,89.0437874 18.5541532,88.1105242" id="Fill-160" fill="white"></path>
                <path d="M24.9519882,85.6442189 C22.6231473,84.9512505 21.6613006,82.8482611 22.5406326,81.0933979 C24.6007505,81.86464 25.7815363,83.8228505 24.9519882,85.6442189" id="Fill-162" fill="white"></path>
                <path d="M13.5511473,85.81352 C14.8199489,84.23792 17.3979843,83.7701937 19.586,84.6295621 C18.5705187,86.3548674 15.7603418,86.9457516 13.5511473,85.81352" id="Fill-164" fill="white"></path>
                <path d="M19.9926876,83.9153284 C17.7980707,83.0201074 17.0609391,80.8437705 18.0755953,79.1723811 C19.9970884,80.1193284 20.9619607,82.1755179 19.9926876,83.9153284" id="Fill-166" fill="white"></path>
                <path d="M8.89594106,83.0992295 C10.2854892,81.6402189 12.8376699,81.3941768 14.8812849,82.4377347 C13.734055,84.0669768 10.9423065,84.4131874 8.89594106,83.0992295" id="Fill-168" fill="white"></path>
                <path d="M15.3430648,81.7615979 C13.2958743,80.6810926 12.7878585,78.4538505 13.9312377,76.8768821 C15.7031041,77.9825663 16.4462868,80.1131979 15.3430648,81.7615979" id="Fill-170" fill="white"></path>
                <path d="M4.61436149,80.0058863 C6.11667976,78.6738653 8.62897839,78.6429389 10.5163654,79.8545389 C9.24453831,81.3778653 6.48717092,81.4848758 4.61436149,80.0058863" id="Fill-172" fill="white"></path>
                <path d="M11.0304872,79.2211789 C9.14227505,77.9726316 8.86557564,75.7172 10.1313517,74.2453263 C11.7436896,75.4919579 12.2607819,77.6748632 11.0304872,79.2211789" id="Fill-174" fill="white"></path>
                <path d="M0.728495088,76.5716968 C2.33478193,75.3773389 4.79399607,75.5568758 6.51497839,76.9184547 C5.1257053,78.3260126 2.41839686,78.1982021 0.728495088,76.5716968" id="Fill-176" fill="white"></path>
                <path d="M7.07866405,76.3323053 C5.35988212,74.9335053 5.31449902,72.6717789 6.69552063,71.3154 C8.14007859,72.6857368 8.42888016,74.8987474 7.07866405,76.3323053" id="Fill-178" fill="white"></path>
                <path d="M67.7503733,84.7615053 C67.7503733,85.8789579 68.6607859,86.7848526 69.7838114,86.7848526 C70.9068369,86.7848526 71.8172495,85.8789579 71.8172495,84.7615053 C71.8172495,83.6440526 70.9068369,82.7381579 69.7838114,82.7381579 C68.6607859,82.7381579 67.7503733,83.6440526 67.7503733,84.7615053" id="Fill-180" fill="white"></path>
                <path d="M72.3080472,84.7615053 C72.3080472,85.2160947 72.6782633,85.5844737 73.1351198,85.5844737 C73.5919764,85.5844737 73.9621925,85.2160947 73.9621925,84.7615053 C73.9621925,84.3069158 73.5919764,83.9385368 73.1351198,83.9385368 C72.6782633,83.9385368 72.3080472,84.3069158 72.3080472,84.7615053" id="Fill-182" fill="white"></path>
                <path d="M65.6055128,84.7615053 C65.6055128,85.2160947 65.9757289,85.5844737 66.4325855,85.5844737 C66.889442,85.5844737 67.2596582,85.2160947 67.2596582,84.7615053 C67.2596582,84.3069158 66.889442,83.9385368 66.4325855,83.9385368 C65.9757289,83.9385368 65.6055128,84.3069158 65.6055128,84.7615053" id="Fill-184" fill="white"></path>
                <path d="M71.5687426,82.9854863 C71.8916503,83.3067916 72.4153438,83.3067916 72.7385265,82.9854863 C73.0614342,82.6641811 73.0614342,82.1430863 72.7385265,81.8215074 C72.4153438,81.5002021 71.8916503,81.5002021 71.5687426,81.8215074 C71.245835,82.1430863 71.245835,82.6641811 71.5687426,82.9854863" id="Fill-186" fill="white"></path>
                <path d="M66.8293163,87.7013663 C67.152224,88.0226716 67.6759175,88.0226716 67.9991002,87.7013663 C68.3220079,87.3800611 68.3220079,86.8589663 67.9991002,86.5373874 C67.6759175,86.2160821 67.152224,86.2160821 66.8293163,86.5373874 C66.5064086,86.8589663 66.5064086,87.3800611 66.8293163,87.7013663" id="Fill-188" fill="white"></path>
                <path d="M69.7838664,82.2498232 C70.240723,82.2498232 70.6109391,81.8814442 70.6109391,81.4268547 C70.6109391,80.9722653 70.240723,80.6038863 69.7838664,80.6038863 C69.3270098,80.6038863 68.9567937,80.9722653 68.9567937,81.4268547 C68.9567937,81.8814442 69.3270098,82.2498232 69.7838664,82.2498232" id="Fill-190" fill="white"></path>
                <path d="M69.7838664,88.9191242 C70.240723,88.9191242 70.6109391,88.5507453 70.6109391,88.0961558 C70.6109391,87.6415663 70.240723,87.2731874 69.7838664,87.2731874 C69.3270098,87.2731874 68.9567937,87.6415663 68.9567937,88.0961558 C68.9567937,88.5507453 69.3270098,88.9191242 69.7838664,88.9191242" id="Fill-192" fill="white"></path>
                <path d="M67.9989902,82.9854863 C68.3218978,82.6641811 68.3218978,82.1430863 67.9989902,81.8215074 C67.6760825,81.5002021 67.152389,81.5002021 66.8292063,81.8215074 C66.5062986,82.1430863 66.5062986,82.6641811 66.8292063,82.9854863 C67.152389,83.3067916 67.6760825,83.3067916 67.9989902,82.9854863" id="Fill-194" fill="white"></path>
                <path d="M72.7384165,87.7013663 C73.0613242,87.3800611 73.0613242,86.8589663 72.7384165,86.5373874 C72.4155088,86.2160821 71.8918153,86.2160821 71.5686326,86.5373874 C71.245725,86.8589663 71.245725,87.3800611 71.5686326,87.7013663 C71.8918153,88.0226716 72.4155088,88.0226716 72.7384165,87.7013663" id="Fill-196" fill="white"></path>
                <path d="M77.6393792,89.5823158 C77.6393792,90.6997684 78.5497917,91.6056632 79.6728173,91.6056632 C80.7958428,91.6056632 81.7062554,90.6997684 81.7062554,89.5823158 C81.7062554,88.4648632 80.7958428,87.5589684 79.6728173,87.5589684 C78.5497917,87.5589684 77.6393792,88.4648632 77.6393792,89.5823158" id="Fill-198" fill="white"></path>
                <path d="M82.197053,89.5823158 C82.197053,90.0369053 82.5672692,90.4052842 83.0241257,90.4052842 C83.4809823,90.4052842 83.8511984,90.0369053 83.8511984,89.5823158 C83.8511984,89.1277263 83.4809823,88.7593474 83.0241257,88.7593474 C82.5672692,88.7593474 82.197053,89.1277263 82.197053,89.5823158" id="Fill-200" fill="white"></path>
                <path d="M75.4944912,89.5823158 C75.4944912,90.0369053 75.8647073,90.4052842 76.3215639,90.4052842 C76.7784204,90.4052842 77.1486365,90.0369053 77.1486365,89.5823158 C77.1486365,89.1277263 76.7784204,88.7593474 76.3215639,88.7593474 C75.8647073,88.7593474 75.4944912,89.1277263 75.4944912,89.5823158" id="Fill-202" fill="white"></path>
                <path d="M81.457721,87.8062968 C81.7806287,88.1276021 82.3043222,88.1276021 82.6275049,87.8062968 C82.9504126,87.4849916 82.9504126,86.9638968 82.6275049,86.6423179 C82.3043222,86.3210126 81.7806287,86.3210126 81.457721,86.6423179 C81.1348134,86.9638968 81.1348134,87.4849916 81.457721,87.8062968" id="Fill-204" fill="white"></path>
                <path d="M76.7183222,92.5222042 C77.0412299,92.8435095 77.5649234,92.8435095 77.8881061,92.5222042 C78.2110138,92.2008989 78.2110138,91.6798042 77.8881061,91.3582253 C77.5649234,91.03692 77.0412299,91.03692 76.7183222,91.3582253 C76.3954145,91.6798042 76.3954145,92.2008989 76.7183222,92.5222042" id="Fill-206" fill="white"></path>
                <path d="M79.6728723,87.0706611 C80.1297289,87.0706611 80.499945,86.7022821 80.499945,86.2476926 C80.499945,85.7931032 80.1297289,85.4247242 79.6728723,85.4247242 C79.2160157,85.4247242 78.8457996,85.7931032 78.8457996,86.2476926 C78.8457996,86.7022821 79.2160157,87.0706611 79.6728723,87.0706611" id="Fill-208" fill="white"></path>
                <path d="M79.6728723,93.7399347 C80.1297289,93.7399347 80.499945,93.3715558 80.499945,92.9169663 C80.499945,92.4623768 80.1297289,92.0939979 79.6728723,92.0939979 C79.2160157,92.0939979 78.8457996,92.4623768 78.8457996,92.9169663 C78.8457996,93.3715558 79.2160157,93.7399347 79.6728723,93.7399347" id="Fill-210" fill="white"></path>
                <path d="M77.8879961,87.8062968 C78.2109037,87.4849916 78.2109037,86.9638968 77.8879961,86.6423179 C77.5650884,86.3210126 77.0413949,86.3210126 76.7182122,86.6423179 C76.3953045,86.9638968 76.3953045,87.4849916 76.7182122,87.8062968 C77.0413949,88.1276021 77.5650884,88.1276021 77.8879961,87.8062968" id="Fill-212" fill="white"></path>
                <path d="M82.6274224,92.5222042 C82.9503301,92.2008989 82.9503301,91.6798042 82.6274224,91.3582253 C82.3045147,91.03692 81.7808212,91.03692 81.4576385,91.3582253 C81.1347308,91.6798042 81.1347308,92.2008989 81.4576385,92.5222042 C81.7808212,92.8435095 82.3045147,92.8435095 82.6274224,92.5222042" id="Fill-214" fill="white"></path>
                <path d="M57.8613949,89.5823158 C57.8613949,90.6997684 58.7718075,91.6056632 59.894833,91.6056632 C61.0178585,91.6056632 61.9282711,90.6997684 61.9282711,89.5823158 C61.9282711,88.4648632 61.0178585,87.5589684 59.894833,87.5589684 C58.7718075,87.5589684 57.8613949,88.4648632 57.8613949,89.5823158" id="Fill-216" fill="white"></path>
                <path d="M62.4190688,89.5823158 C62.4190688,90.0369053 62.7892849,90.4052842 63.2461415,90.4052842 C63.702998,90.4052842 64.0732141,90.0369053 64.0732141,89.5823158 C64.0732141,89.1277263 63.702998,88.7593474 63.2461415,88.7593474 C62.7892849,88.7593474 62.4190688,89.1277263 62.4190688,89.5823158" id="Fill-218" fill="white"></path>
                <path d="M55.7165069,89.5823158 C55.7165069,90.0369053 56.086723,90.4052842 56.5435796,90.4052842 C57.0004361,90.4052842 57.3706523,90.0369053 57.3706523,89.5823158 C57.3706523,89.1277263 57.0004361,88.7593474 56.5435796,88.7593474 C56.086723,88.7593474 55.7165069,89.1277263 55.7165069,89.5823158" id="Fill-220" fill="white"></path>
                <path d="M61.6797367,87.8062968 C62.0026444,88.1276021 62.5263379,88.1276021 62.8495206,87.8062968 C63.1724283,87.4849916 63.1724283,86.9638968 62.8495206,86.6423179 C62.5263379,86.3210126 62.0026444,86.3210126 61.6797367,86.6423179 C61.3568291,86.9638968 61.3568291,87.4849916 61.6797367,87.8062968" id="Fill-222" fill="white"></path>
                <path d="M56.9403379,92.5222042 C57.2632456,92.8435095 57.7869391,92.8435095 58.1101218,92.5222042 C58.4330295,92.2008989 58.4330295,91.6798042 58.1101218,91.3582253 C57.7869391,91.03692 57.2632456,91.03692 56.9403379,91.3582253 C56.6174303,91.6798042 56.6174303,92.2008989 56.9403379,92.5222042" id="Fill-224" fill="white"></path>
                <path d="M59.894888,87.0706611 C60.3517446,87.0706611 60.7219607,86.7022821 60.7219607,86.2476926 C60.7219607,85.7931032 60.3517446,85.4247242 59.894888,85.4247242 C59.4380314,85.4247242 59.0678153,85.7931032 59.0678153,86.2476926 C59.0678153,86.7022821 59.4380314,87.0706611 59.894888,87.0706611" id="Fill-226" fill="white"></path>
                <path d="M59.894888,93.7399347 C60.3517446,93.7399347 60.7219607,93.3715558 60.7219607,92.9169663 C60.7219607,92.4623768 60.3517446,92.0939979 59.894888,92.0939979 C59.4380314,92.0939979 59.0678153,92.4623768 59.0678153,92.9169663 C59.0678153,93.3715558 59.4380314,93.7399347 59.894888,93.7399347" id="Fill-228" fill="white"></path>
                <path d="M58.1100118,87.8062968 C58.4329194,87.4849916 58.4329194,86.9638968 58.1100118,86.6423179 C57.7871041,86.3210126 57.2634106,86.3210126 56.9402279,86.6423179 C56.6173202,86.9638968 56.6173202,87.4849916 56.9402279,87.8062968 C57.2634106,88.1276021 57.7871041,88.1276021 58.1100118,87.8062968" id="Fill-230" fill="white"></path>
                <path d="M62.8494106,92.5222042 C63.1723183,92.2008989 63.1723183,91.6798042 62.8494106,91.3582253 C62.5265029,91.03692 62.0028094,91.03692 61.6796267,91.3582253 C61.3567191,91.6798042 61.3567191,92.2008989 61.6796267,92.5222042 C62.0028094,92.8435095 62.5265029,92.8435095 62.8494106,92.5222042" id="Fill-232" fill="white"></path>
            </g>
            <g id="GOVERNMENT" transform="translate(22.000000, 93.000000)" fill="white">
                <path d="M9.53613281,10.1855469 L9.53613281,8.98242188 L5.53710938,8.98242188 L5.53710938,10.0625 L8.3125,10.0625 L8.3125,10.3017578 C8.3125,11.9697266 7.11621094,13.0976562 5.35253906,13.0976562 C3.37011719,13.0976562 2.13964844,11.5527344 2.13964844,9.06445312 C2.13964844,6.61035156 3.390625,5.03808594 5.34570312,5.03808594 C6.80859375,5.03808594 7.79980469,5.7421875 8.22363281,7.07519531 L9.47460938,7.07519531 C9.11914062,5.12011719 7.53320312,3.90332031 5.34570312,3.90332031 C2.64550781,3.90332031 0.875,5.94726562 0.875,9.06445312 C0.875,12.2226562 2.61816406,14.2324219 5.34570312,14.2324219 C7.86816406,14.2324219 9.53613281,12.6191406 9.53613281,10.1855469 Z M15.7089844,3.90332031 C18.5117188,3.90332031 20.2207031,5.89941406 20.2207031,9.06445312 C20.2207031,12.2158203 18.5253906,14.2324219 15.7089844,14.2324219 C12.8789062,14.2324219 11.1767578,12.2226562 11.1767578,9.06445312 C11.1767578,5.89257812 12.9199219,3.90332031 15.7089844,3.90332031 Z M15.7089844,5.03808594 C13.6992188,5.03808594 12.4414062,6.59667969 12.4414062,9.06445312 C12.4414062,11.5117188 13.6582031,13.0976562 15.7089844,13.0976562 C17.7324219,13.0976562 18.9560547,11.5117188 18.9560547,9.06445312 C18.9560547,6.59667969 17.7255859,5.03808594 15.7089844,5.03808594 Z M25.9287109,14 L29.5654297,4.13574219 L28.2734375,4.13574219 L25.375,12.4072266 L25.265625,12.4072266 L22.3671875,4.13574219 L21.0751953,4.13574219 L24.7119141,14 L25.9287109,14 Z M37.2558594,12.8925781 L32.375,12.8925781 L32.375,9.50195312 L37.0029297,9.50195312 L37.0029297,8.40820312 L32.375,8.40820312 L32.375,5.24316406 L37.2558594,5.24316406 L37.2558594,4.13574219 L31.1445312,4.13574219 L31.1445312,14 L37.2558594,14 L37.2558594,12.8925781 Z M40.5644531,5.22949219 L40.5644531,9.00292969 L42.9912109,9.00292969 C44.2558594,9.00292969 44.9736328,8.32617188 44.9736328,7.11621094 C44.9736328,5.93359375 44.2080078,5.22949219 42.9365234,5.22949219 L40.5644531,5.22949219 Z M40.5644531,10.0966797 L40.5644531,14 L39.3339844,14 L39.3339844,4.13574219 L43.1005859,4.13574219 C45.0009766,4.13574219 46.2451172,5.29785156 46.2451172,7.07519531 C46.2451172,8.44921875 45.5,9.515625 44.2626953,9.90527344 L46.5458984,14 L45.1035156,14 L42.9912109,10.0966797 L40.5644531,10.0966797 Z M49.546875,14 L49.546875,6.35058594 L49.65625,6.35058594 L55.0087891,14 L56.2050781,14 L56.2050781,4.13574219 L54.9882812,4.13574219 L54.9882812,11.8125 L54.8789062,11.8125 L49.5263672,4.13574219 L48.3300781,4.13574219 L48.3300781,14 L49.546875,14 Z M59.71875,14 L59.71875,6.46679688 L59.8007812,6.46679688 L62.9111328,13.9316406 L63.9501953,13.9316406 L67.0605469,6.46679688 L67.1425781,6.46679688 L67.1425781,14 L68.2910156,14 L68.2910156,4.13574219 L66.8623047,4.13574219 L63.4853516,12.2978516 L63.3759766,12.2978516 L59.9990234,4.13574219 L58.5703125,4.13574219 L58.5703125,14 L59.71875,14 Z M76.7675781,12.8925781 L71.8867188,12.8925781 L71.8867188,9.50195312 L76.5146484,9.50195312 L76.5146484,8.40820312 L71.8867188,8.40820312 L71.8867188,5.24316406 L76.7675781,5.24316406 L76.7675781,4.13574219 L70.65625,4.13574219 L70.65625,14 L76.7675781,14 L76.7675781,12.8925781 Z M80.0625,14 L80.0625,6.35058594 L80.171875,6.35058594 L85.5244141,14 L86.7207031,14 L86.7207031,4.13574219 L85.5039062,4.13574219 L85.5039062,11.8125 L85.3945312,11.8125 L80.0419922,4.13574219 L78.8457031,4.13574219 L78.8457031,14 L80.0625,14 Z M92.8798828,14 L92.8798828,5.24316406 L96.0585938,5.24316406 L96.0585938,4.13574219 L88.4707031,4.13574219 L88.4707031,5.24316406 L91.6494141,5.24316406 L91.6494141,14 L92.8798828,14 Z"></path>
            </g>
        </g>
    </g>
</svg>
